<?xml version="1.0" standalone="no"?>
<!-- Licensee: Ultimate Finance Group (#29164) - http://vllg.com -->
<!DOCTYPE svg PUBLIC "-//W3C//DTD SVG 1.1//EN" "http://www.w3.org/Graphics/SVG/1.1/DTD/svg11.dtd" ><svg version="1.1" xmlns="http://www.w3.org/2000/svg"><defs><font horiz-adv-x="0" id="font"><font-face ascent="750" bbox="-158 -376 1260 972" cap-height="700" descent="-250" font-family="Superior Title Bold" font-stretch="normal" font-style="normal" font-weight="600" units-per-em="1000" x-height="458" /><missing-glyph d="M436 9 256 341 77 9ZM70 684V17L251 350ZM444 16V685L262 349ZM437 691H76L257 358ZM60 700H454V0H60Z" horiz-adv-x="514" /><glyph d="M268 0H10V10Q33 15 53 28.5Q73 42 92 68Q111 94 130 133.5Q149 173 170 229L353 708H411L638 126Q660 70 685.5 44Q711 18 740 10V0H387V10Q411 14 425.5 22.5Q440 31 445 48.5Q450 66 444.5 95Q439 124 422 169L403 219H195Q179 169 177 131.5Q175 94 184.5 68.5Q194 43 215.5 28.5Q237 14 268 10ZM202 241H395L297 500Z" glyph-name="A" horiz-adv-x="750" unicode="A" /><glyph d="M222 0H10V9Q27 13 42.5 22Q58 31 74.5 52.5Q91 74 110 111.5Q129 149 153 211L285 545H345L514 137Q528 104 539 81.5Q550 59 561 44.5Q572 30 583.5 22Q595 14 610 9V0H307V9Q337 16 348 43Q359 70 336 129L324 158H160Q140 84 158 51Q176 18 222 9ZM166 179H316L238 372Z" glyph-name="A.smcp" horiz-adv-x="619" /><glyph d="M265 0H5V10Q27 16 49 28.5Q71 41 99 70.5Q127 100 164 152Q201 204 252 289L459 633Q448 662 425.5 675Q403 688 379 690V700H952L982 513H967Q942 550 911.5 580.5Q881 611 846.5 633Q812 655 774.5 667Q737 679 699 679H653V380H693Q724 380 753 390.5Q782 401 804.5 418.5Q827 436 842 459Q857 482 861 508H875V228H861Q856 255 840.5 279Q825 303 802 321Q779 339 751 349Q723 359 693 359H653V21H719Q764 21 806 37Q848 53 884 80.5Q920 108 947.5 144.5Q975 181 990 221H1007L983 0H389V10Q404 11 418 16Q432 21 443 32Q454 43 460.5 62Q467 81 467 111V231H247Q219 178 210.5 137.5Q202 97 207.5 69Q213 41 228.5 26Q244 11 265 10ZM259 254H467V583L466 601Z" glyph-name="AE" horiz-adv-x="1043" unicode="&#198;" /><glyph d="M216 0H4V10Q27 13 48.5 26Q70 39 93.5 64Q117 89 143 127.5Q169 166 201 220L357 480Q347 505 327 515Q307 525 287 527V537H774L794 388H783Q766 412 740.5 435.5Q715 459 685 477.5Q655 496 622 507.5Q589 519 556 519H533V294H558Q580 294 601 302.5Q622 311 640 325.5Q658 340 670.5 358Q683 376 687 396H699V170H687Q683 188 671.5 207Q660 226 642.5 241Q625 256 603.5 266Q582 276 558 276H533V18H562Q599 18 635.5 32Q672 46 703.5 68.5Q735 91 759.5 119Q784 147 798 175H813L787 0H297V10Q310 11 322 14.5Q334 18 343.5 27Q353 36 358.5 51Q364 66 364 91V177H201Q163 104 167.5 60Q172 16 216 10ZM364 198V439L363 453Q327 393 303 352Q279 311 263 284Q247 257 238 242Q229 227 224 218.5Q219 210 216.5 206Q214 202 212 198Z" glyph-name="AE.smcp" horiz-adv-x="831" /><glyph d="M268 0H10V10Q33 15 53 28.5Q73 42 92 68Q111 94 130 133.5Q149 173 170 229L353 708H411L638 126Q660 70 685.5 44Q711 18 740 10V0H387V10Q411 14 425.5 22.5Q440 31 445 48.5Q450 66 444.5 95Q439 124 422 169L403 219H195Q179 169 177 131.5Q175 94 184.5 68.5Q194 43 215.5 28.5Q237 14 268 10ZM202 241H395L297 500ZM426 903Q448 925 472 925Q495 925 510.5 909.5Q526 894 526 871Q526 850 511.5 833.5Q497 817 472 811L314 770H303Z" glyph-name="Aacute" horiz-adv-x="750" unicode="&#193;" /><glyph d="M222 0H10V9Q27 13 42.5 22Q58 31 74.5 52.5Q91 74 110 111.5Q129 149 153 211L285 545H345L514 137Q528 104 539 81.5Q550 59 561 44.5Q572 30 583.5 22Q595 14 610 9V0H307V9Q337 16 348 43Q359 70 336 129L324 158H160Q140 84 158 51Q176 18 222 9ZM166 179H316L238 372ZM358 740Q380 762 404 762Q427 762 442.5 746.5Q458 731 458 708Q458 687 443.5 670.5Q429 654 404 648L246 607H235Z" glyph-name="Aacute.smcp" horiz-adv-x="619" /><glyph d="M268 0H10V10Q33 15 53 28.5Q73 42 92 68Q111 94 130 133.5Q149 173 170 229L353 708H411L638 126Q660 70 685.5 44Q711 18 740 10V0H387V10Q411 14 425.5 22.5Q440 31 445 48.5Q450 66 444.5 95Q439 124 422 169L403 219H195Q179 169 177 131.5Q175 94 184.5 68.5Q194 43 215.5 28.5Q237 14 268 10ZM202 241H395L297 500ZM375 779Q344 779 317 788Q290 797 270.5 814Q251 831 240 856.5Q229 882 229 915H245Q250 887 284 872Q318 857 375 857Q432 857 466.5 872Q501 887 506 915H522Q522 882 510.5 856.5Q499 831 479.5 814Q460 797 433 788Q406 779 375 779Z" glyph-name="Abreve" horiz-adv-x="750" unicode="&#258;" /><glyph d="M222 0H10V9Q27 13 42.5 22Q58 31 74.5 52.5Q91 74 110 111.5Q129 149 153 211L285 545H345L514 137Q528 104 539 81.5Q550 59 561 44.5Q572 30 583.5 22Q595 14 610 9V0H307V9Q337 16 348 43Q359 70 336 129L324 158H160Q140 84 158 51Q176 18 222 9ZM166 179H316L238 372ZM307 616Q276 616 249 625Q222 634 202.5 651Q183 668 172 693.5Q161 719 161 752H177Q182 724 216 709Q250 694 307 694Q364 694 398.5 709Q433 724 438 752H454Q454 719 442.5 693.5Q431 668 411.5 651Q392 634 365 625Q338 616 307 616Z" glyph-name="Abreve.smcp" horiz-adv-x="619" /><glyph d="M268 0H10V10Q33 15 53 28.5Q73 42 92 68Q111 94 130 133.5Q149 173 170 229L353 708H411L638 126Q660 70 685.5 44Q711 18 740 10V0H387V10Q411 14 425.5 22.5Q440 31 445 48.5Q450 66 444.5 95Q439 124 422 169L403 219H195Q179 169 177 131.5Q175 94 184.5 68.5Q194 43 215.5 28.5Q237 14 268 10ZM202 241H395L297 500ZM377 831 226 776H212L328 906H428L540 776H522Z" glyph-name="Acircumflex" horiz-adv-x="750" unicode="&#194;" /><glyph d="M222 0H10V9Q27 13 42.5 22Q58 31 74.5 52.5Q91 74 110 111.5Q129 149 153 211L285 545H345L514 137Q528 104 539 81.5Q550 59 561 44.5Q572 30 583.5 22Q595 14 610 9V0H307V9Q337 16 348 43Q359 70 336 129L324 158H160Q140 84 158 51Q176 18 222 9ZM166 179H316L238 372ZM309 668 158 613H144L260 743H360L472 613H454Z" glyph-name="Acircumflex.smcp" horiz-adv-x="619" /><glyph d="M268 0H10V10Q33 15 53 28.5Q73 42 92 68Q111 94 130 133.5Q149 173 170 229L353 708H411L638 126Q660 70 685.5 44Q711 18 740 10V0H387V10Q411 14 425.5 22.5Q440 31 445 48.5Q450 66 444.5 95Q439 124 422 169L403 219H195Q179 169 177 131.5Q175 94 184.5 68.5Q194 43 215.5 28.5Q237 14 268 10ZM202 241H395L297 500ZM479 777Q445 777 421 801Q397 825 397 859Q397 875 403.5 889.5Q410 904 421 915.5Q432 927 447 933.5Q462 940 479 940Q513 940 537.5 916Q562 892 562 859Q562 825 537.5 801Q513 777 479 777ZM269 777Q236 777 211.5 801Q187 825 187 859Q187 875 193.5 889.5Q200 904 211.5 915.5Q223 927 237.5 933.5Q252 940 269 940Q304 940 328 916Q352 892 352 859Q352 825 328 801Q304 777 269 777Z" glyph-name="Adieresis" horiz-adv-x="750" unicode="&#196;" /><glyph d="M222 0H10V9Q27 13 42.5 22Q58 31 74.5 52.5Q91 74 110 111.5Q129 149 153 211L285 545H345L514 137Q528 104 539 81.5Q550 59 561 44.5Q572 30 583.5 22Q595 14 610 9V0H307V9Q337 16 348 43Q359 70 336 129L324 158H160Q140 84 158 51Q176 18 222 9ZM166 179H316L238 372ZM411 614Q377 614 353 638Q329 662 329 696Q329 712 335.5 726.5Q342 741 353 752.5Q364 764 379 770.5Q394 777 411 777Q445 777 469.5 753Q494 729 494 696Q494 662 469.5 638Q445 614 411 614ZM201 614Q168 614 143.5 638Q119 662 119 696Q119 712 125.5 726.5Q132 741 143.5 752.5Q155 764 169.5 770.5Q184 777 201 777Q236 777 260 753Q284 729 284 696Q284 662 260 638Q236 614 201 614Z" glyph-name="Adieresis.smcp" horiz-adv-x="619" /><glyph d="M268 0H10V10Q33 15 53 28.5Q73 42 92 68Q111 94 130 133.5Q149 173 170 229L353 708H411L638 126Q660 70 685.5 44Q711 18 740 10V0H387V10Q411 14 425.5 22.5Q440 31 445 48.5Q450 66 444.5 95Q439 124 422 169L403 219H195Q179 169 177 131.5Q175 94 184.5 68.5Q194 43 215.5 28.5Q237 14 268 10ZM202 241H395L297 500ZM429 770 271 811Q246 817 231.5 833.5Q217 850 217 871Q217 894 232.5 909.5Q248 925 271 925Q295 925 317 903L440 770Z" glyph-name="Agrave" horiz-adv-x="750" unicode="&#192;" /><glyph d="M222 0H10V9Q27 13 42.5 22Q58 31 74.5 52.5Q91 74 110 111.5Q129 149 153 211L285 545H345L514 137Q528 104 539 81.5Q550 59 561 44.5Q572 30 583.5 22Q595 14 610 9V0H307V9Q337 16 348 43Q359 70 336 129L324 158H160Q140 84 158 51Q176 18 222 9ZM166 179H316L238 372ZM360 607 202 648Q177 654 162.5 670.5Q148 687 148 708Q148 731 163.5 746.5Q179 762 202 762Q226 762 248 740L371 607Z" glyph-name="Agrave.smcp" horiz-adv-x="619" /><glyph d="M268 0H10V10Q33 15 53 28.5Q73 42 92 68Q111 94 130 133.5Q149 173 170 229L353 708H411L638 126Q660 70 685.5 44Q711 18 740 10V0H387V10Q411 14 425.5 22.5Q440 31 445 48.5Q450 66 444.5 95Q439 124 422 169L403 219H195Q179 169 177 131.5Q175 94 184.5 68.5Q194 43 215.5 28.5Q237 14 268 10ZM202 241H395L297 500ZM518 845V814H237V845Z" glyph-name="Amacron" horiz-adv-x="750" unicode="&#256;" /><glyph d="M222 0H10V9Q27 13 42.5 22Q58 31 74.5 52.5Q91 74 110 111.5Q129 149 153 211L285 545H345L514 137Q528 104 539 81.5Q550 59 561 44.5Q572 30 583.5 22Q595 14 610 9V0H307V9Q337 16 348 43Q359 70 336 129L324 158H160Q140 84 158 51Q176 18 222 9ZM166 179H316L238 372ZM450 682V651H169V682Z" glyph-name="Amacron.smcp" horiz-adv-x="619" /><glyph d="M692 -193Q678 -214 654 -229.5Q630 -245 595 -245Q570 -245 551 -237Q532 -229 519.5 -215.5Q507 -202 501 -184.5Q495 -167 495 -148Q495 -104 525 -63.5Q555 -23 615 0H387V10Q411 14 425.5 22.5Q440 31 445 48.5Q450 66 444.5 95Q439 124 422 169L403 219H195Q179 169 177 131.5Q175 94 184.5 68.5Q194 43 215.5 28.5Q237 14 268 10V0H10V10Q33 15 53 28.5Q73 42 92 68Q111 94 130 133.5Q149 173 170 229L353 708H411L638 126Q660 70 685.5 44Q711 18 740 10V0H646Q619 -11 601.5 -41Q584 -71 584 -118Q584 -163 599.5 -183Q615 -203 641 -203Q664 -203 684 -186ZM202 241H395L297 500Z" glyph-name="Aogonek" horiz-adv-x="750" unicode="&#260;" /><glyph d="M166 179H316L238 372ZM555 -193Q541 -214 517 -229.5Q493 -245 458 -245Q433 -245 414 -237Q395 -229 382.5 -215.5Q370 -202 364 -184.5Q358 -167 358 -148Q358 -104 388 -63.5Q418 -23 478 0H307V9Q337 16 348 43Q359 70 336 129L324 158H160Q140 84 158 51Q176 18 222 9V0H10V9Q27 13 42.5 22Q58 31 74.5 52.5Q91 74 110 111.5Q129 149 153 211L285 545H345L514 137Q528 104 539 81.5Q550 59 561 44.5Q572 30 583.5 22Q595 14 610 9V0H509Q482 -11 464.5 -41Q447 -71 447 -118Q447 -163 462.5 -183Q478 -203 504 -203Q527 -203 547 -186Z" glyph-name="Aogonek.smcp" horiz-adv-x="619" /><glyph d="M268 0H10V10Q33 15 53 28.5Q73 42 92 68Q111 94 130 133.5Q149 173 170 229L347 692Q318 703 299 729Q280 755 280 789Q280 810 288 829.5Q296 849 309.5 863Q323 877 341.5 885.5Q360 894 382 894Q404 894 422.5 885.5Q441 877 455 863Q469 849 477 829.5Q485 810 485 789Q485 755 466 729Q447 703 417 692L638 126Q660 70 685.5 44Q711 18 740 10V0H387V10Q411 14 425.5 22.5Q440 31 445 48.5Q450 66 444.5 95Q439 124 422 169L403 219H195Q179 169 177 131.5Q175 94 184.5 68.5Q194 43 215.5 28.5Q237 14 268 10ZM202 241H395L297 500ZM382 872Q366 872 352 865.5Q338 859 327.5 847.5Q317 836 311 821Q305 806 305 789Q305 755 327.5 731.5Q350 708 382 708Q414 708 437 731.5Q460 755 460 789Q460 823 437 847.5Q414 872 382 872Z" glyph-name="Aring" horiz-adv-x="750" unicode="&#197;" /><glyph d="M222 0H10V9Q27 13 42.5 22Q58 31 74.5 52.5Q91 74 110 111.5Q129 149 153 211L278 528Q247 538 227.5 564.5Q208 591 208 626Q208 647 216 666.5Q224 686 237.5 700Q251 714 269.5 722.5Q288 731 310 731Q332 731 350.5 722.5Q369 714 383 700Q397 686 405 666.5Q413 647 413 626Q413 594 395.5 568.5Q378 543 351 531L514 137Q528 104 539 81.5Q550 59 561 44.5Q572 30 583.5 22Q595 14 610 9V0H307V9Q337 16 348 43Q359 70 336 129L324 158H160Q140 84 158 51Q176 18 222 9ZM166 179H316L238 372ZM310 709Q294 709 280 702.5Q266 696 255.5 684.5Q245 673 239 658Q233 643 233 626Q233 592 255.5 568.5Q278 545 310 545Q342 545 365 568.5Q388 592 388 626Q388 660 365 684.5Q342 709 310 709Z" glyph-name="Aring.smcp" horiz-adv-x="619" /><glyph d="M268 0H10V10Q33 15 53 28.5Q73 42 92 68Q111 94 130 133.5Q149 173 170 229L353 708H411L638 126Q660 70 685.5 44Q711 18 740 10V0H387V10Q411 14 425.5 22.5Q440 31 445 48.5Q450 66 444.5 95Q439 124 422 169L403 219H195Q179 169 177 131.5Q175 94 184.5 68.5Q194 43 215.5 28.5Q237 14 268 10ZM202 241H395L297 500ZM539 904Q537 878 529 855.5Q521 833 507.5 815.5Q494 798 476 788Q458 778 436 778Q417 778 399 784Q381 790 363.5 797.5Q346 805 328 811.5Q310 818 291 818Q269 818 252.5 808.5Q236 799 227 778L217 780Q219 805 227.5 827.5Q236 850 249.5 867.5Q263 885 281 895Q299 905 321 905Q340 905 357.5 898.5Q375 892 393 884.5Q411 877 428.5 871Q446 865 465 865Q485 865 502.5 874.5Q520 884 529 906Z" glyph-name="Atilde" horiz-adv-x="750" unicode="&#195;" /><glyph d="M222 0H10V9Q27 13 42.5 22Q58 31 74.5 52.5Q91 74 110 111.5Q129 149 153 211L285 545H345L514 137Q528 104 539 81.5Q550 59 561 44.5Q572 30 583.5 22Q595 14 610 9V0H307V9Q337 16 348 43Q359 70 336 129L324 158H160Q140 84 158 51Q176 18 222 9ZM166 179H316L238 372ZM471 741Q469 715 461 692.5Q453 670 439.5 652.5Q426 635 408 625Q390 615 368 615Q349 615 331 621Q313 627 295.5 634.5Q278 642 260 648.5Q242 655 223 655Q201 655 184.5 645.5Q168 636 159 615L149 617Q151 642 159.5 664.5Q168 687 181.5 704.5Q195 722 213 732Q231 742 253 742Q272 742 289.5 735.5Q307 729 325 721.5Q343 714 360.5 708Q378 702 397 702Q417 702 434.5 711.5Q452 721 461 743Z" glyph-name="Atilde.smcp" horiz-adv-x="619" /><glyph d="M315 21Q392 21 430 63Q468 105 468 196Q468 281 427 323.5Q386 366 311 366H283V21ZM283 389H307Q370 389 402.5 427Q435 465 435 532Q435 563 427.5 590Q420 617 404.5 636.5Q389 656 365 667.5Q341 679 309 679H283ZM20 0V10Q35 11 49 16.5Q63 22 74 33.5Q85 45 91.5 64.5Q98 84 98 114V586Q98 616 91.5 635.5Q85 655 74 666.5Q63 678 49 683Q35 688 20 690V700H361Q493 700 557.5 657.5Q622 615 622 543Q622 488 583 447Q544 406 463 389Q513 380 550 362Q587 344 611 319Q635 294 647 263.5Q659 233 659 200Q659 158 640 121.5Q621 85 583.5 58Q546 31 490.5 15.5Q435 0 363 0Z" glyph-name="B" horiz-adv-x="689" unicode="B" /><glyph d="M267 18Q318 18 349 47Q380 76 380 145Q380 214 349 247Q318 280 261 280H249V18ZM249 300H258Q306 300 331 330Q356 360 356 409Q356 461 330.5 490Q305 519 264 519H249ZM19 0V10Q31 11 42 15Q53 19 61.5 28.5Q70 38 75.5 54Q81 70 81 95V442Q81 467 75.5 483Q70 499 61.5 508.5Q53 518 42 522Q31 526 19 527V537H310Q366 537 405.5 528Q445 519 470.5 503Q496 487 508 466Q520 445 520 421Q520 379 487 347.5Q454 316 395 302Q474 287 512 245.5Q550 204 550 155Q550 120 532.5 91.5Q515 63 482.5 43Q450 23 403.5 11.5Q357 0 299 0Z" glyph-name="B.smcp" horiz-adv-x="568" /><glyph d="M606 481Q598 526 581.5 565Q565 604 541 633.5Q517 663 486.5 679.5Q456 696 422 696Q383 696 347.5 674.5Q312 653 285 613.5Q258 574 241.5 517.5Q225 461 225 391Q225 313 243 256Q261 199 292 161Q323 123 365.5 104.5Q408 86 458 86Q518 86 569.5 113Q621 140 648 194L665 189Q630 90 554.5 36Q479 -18 380 -18Q306 -18 242.5 10.5Q179 39 131.5 87.5Q84 136 57 201.5Q30 267 30 341Q30 423 61.5 492.5Q93 562 148 612.5Q203 663 278.5 691.5Q354 720 443 720Q506 720 566.5 709Q627 698 672 676L624 479Z" glyph-name="C" horiz-adv-x="709" unicode="C" /><glyph d="M536 153Q509 70 448.5 27Q388 -16 303 -16Q250 -16 200.5 3Q151 22 112.5 57.5Q74 93 50.5 144Q27 195 27 259Q27 326 52 381Q77 436 121 474Q165 512 226.5 533Q288 554 362 554Q412 554 460 543.5Q508 533 542 515L503 363L487 365Q481 401 467 432Q453 463 433 485.5Q413 508 389 520.5Q365 533 340 533Q309 533 283.5 515.5Q258 498 239.5 466.5Q221 435 211 392.5Q201 350 201 300Q201 246 214 205Q227 164 250 136Q273 108 305 93.5Q337 79 376 79Q434 79 469.5 103.5Q505 128 522 158Z" glyph-name="C.smcp" horiz-adv-x="567" /><glyph d="M606 481Q598 526 581.5 565Q565 604 541 633.5Q517 663 486.5 679.5Q456 696 422 696Q383 696 347.5 674.5Q312 653 285 613.5Q258 574 241.5 517.5Q225 461 225 391Q225 313 243 256Q261 199 292 161Q323 123 365.5 104.5Q408 86 458 86Q518 86 569.5 113Q621 140 648 194L665 189Q630 90 554.5 36Q479 -18 380 -18Q306 -18 242.5 10.5Q179 39 131.5 87.5Q84 136 57 201.5Q30 267 30 341Q30 423 61.5 492.5Q93 562 148 612.5Q203 663 278.5 691.5Q354 720 443 720Q506 720 566.5 709Q627 698 672 676L624 479ZM471 903Q493 925 517 925Q540 925 555.5 909.5Q571 894 571 871Q571 850 556.5 833.5Q542 817 517 811L359 770H348Z" glyph-name="Cacute" horiz-adv-x="709" unicode="&#262;" /><glyph d="M536 153Q509 70 448.5 27Q388 -16 303 -16Q250 -16 200.5 3Q151 22 112.5 57.5Q74 93 50.5 144Q27 195 27 259Q27 326 52 381Q77 436 121 474Q165 512 226.5 533Q288 554 362 554Q412 554 460 543.5Q508 533 542 515L503 363L487 365Q481 401 467 432Q453 463 433 485.5Q413 508 389 520.5Q365 533 340 533Q309 533 283.5 515.5Q258 498 239.5 466.5Q221 435 211 392.5Q201 350 201 300Q201 246 214 205Q227 164 250 136Q273 108 305 93.5Q337 79 376 79Q434 79 469.5 103.5Q505 128 522 158ZM386 741Q408 763 432 763Q455 763 470.5 747.5Q486 732 486 709Q486 688 471.5 671.5Q457 655 432 649L274 608H263Z" glyph-name="Cacute.smcp" horiz-adv-x="567" /><glyph d="M606 481Q598 526 581.5 565Q565 604 541 633.5Q517 663 486.5 679.5Q456 696 422 696Q383 696 347.5 674.5Q312 653 285 613.5Q258 574 241.5 517.5Q225 461 225 391Q225 313 243 256Q261 199 292 161Q323 123 365.5 104.5Q408 86 458 86Q518 86 569.5 113Q621 140 648 194L665 189Q630 90 554.5 36Q479 -18 380 -18Q306 -18 242.5 10.5Q179 39 131.5 87.5Q84 136 57 201.5Q30 267 30 341Q30 423 61.5 492.5Q93 562 148 612.5Q203 663 278.5 691.5Q354 720 443 720Q506 720 566.5 709Q627 698 672 676L624 479ZM420 852 571 906H585L469 776H369L257 906H275Z" glyph-name="Ccaron" horiz-adv-x="709" unicode="&#268;" /><glyph d="M536 153Q509 70 448.5 27Q388 -16 303 -16Q250 -16 200.5 3Q151 22 112.5 57.5Q74 93 50.5 144Q27 195 27 259Q27 326 52 381Q77 436 121 474Q165 512 226.5 533Q288 554 362 554Q412 554 460 543.5Q508 533 542 515L503 363L487 365Q481 401 467 432Q453 463 433 485.5Q413 508 389 520.5Q365 533 340 533Q309 533 283.5 515.5Q258 498 239.5 466.5Q221 435 211 392.5Q201 350 201 300Q201 246 214 205Q227 164 250 136Q273 108 305 93.5Q337 79 376 79Q434 79 469.5 103.5Q505 128 522 158ZM335 690 486 744H500L384 614H284L172 744H190Z" glyph-name="Ccaron.smcp" horiz-adv-x="567" /><glyph d="M385 -280Q344 -280 314.5 -270Q285 -260 262 -243L268 -229Q310 -256 357 -256Q375 -256 391.5 -252.5Q408 -249 420.5 -240Q433 -231 441 -217Q449 -203 449 -182Q449 -148 424 -132.5Q399 -117 334 -124L331 -120L386 -21H380Q306 -21 242.5 7.5Q179 36 131.5 85.5Q84 135 57 200.5Q30 266 30 341Q30 423 61.5 492.5Q93 562 148 612.5Q203 663 278.5 691.5Q354 720 443 720Q506 720 566.5 709Q627 698 672 676L624 479L606 481Q598 526 581.5 565Q565 604 541 633.5Q517 663 486.5 679.5Q456 696 422 696Q383 696 347.5 674.5Q312 653 285 613.5Q258 574 241.5 517.5Q225 461 225 391Q225 313 243 255Q261 197 292 158.5Q323 120 365.5 101.5Q408 83 458 83Q518 83 569 111Q620 139 648 194L665 189Q632 95 565.5 41.5Q499 -12 410 -20L384 -67Q407 -62 426 -62Q478 -62 511.5 -88Q545 -114 545 -162Q545 -186 534.5 -207Q524 -228 503.5 -244.5Q483 -261 453.5 -270.5Q424 -280 385 -280Z" glyph-name="Ccedilla" horiz-adv-x="709" unicode="&#199;" /><glyph d="M297 -285Q256 -285 226.5 -275Q197 -265 174 -248L180 -234Q222 -261 269 -261Q287 -261 303.5 -257.5Q320 -254 332.5 -245Q345 -236 353 -222Q361 -208 361 -187Q361 -153 336 -137.5Q311 -122 246 -129L243 -125L302 -18Q249 -18 199.5 1Q150 20 112 56Q74 92 50.5 143Q27 194 27 259Q27 326 52 381Q77 436 121 474Q165 512 226.5 533Q288 554 362 554Q412 554 460 543.5Q508 533 542 515L503 363L487 365Q481 401 467 432Q453 463 433 485.5Q413 508 389 520.5Q365 533 340 533Q309 533 283.5 515.5Q258 498 239.5 466.5Q221 435 211 392.5Q201 350 201 300Q201 246 214 204.5Q227 163 250 134.5Q273 106 305 91.5Q337 77 376 77Q434 77 469.5 102Q505 127 522 158L536 153Q510 75 455.5 32Q401 -11 326 -17L296 -72Q319 -67 338 -67Q390 -67 423.5 -93Q457 -119 457 -167Q457 -191 446.5 -212Q436 -233 415.5 -249.5Q395 -266 365.5 -275.5Q336 -285 297 -285Z" glyph-name="Ccedilla.smcp" horiz-adv-x="567" /><glyph d="M606 481Q598 526 581.5 565Q565 604 541 633.5Q517 663 486.5 679.5Q456 696 422 696Q383 696 347.5 674.5Q312 653 285 613.5Q258 574 241.5 517.5Q225 461 225 391Q225 313 243 256Q261 199 292 161Q323 123 365.5 104.5Q408 86 458 86Q518 86 569.5 113Q621 140 648 194L665 189Q630 90 554.5 36Q479 -18 380 -18Q306 -18 242.5 10.5Q179 39 131.5 87.5Q84 136 57 201.5Q30 267 30 341Q30 423 61.5 492.5Q93 562 148 612.5Q203 663 278.5 691.5Q354 720 443 720Q506 720 566.5 709Q627 698 672 676L624 479ZM422 831 271 776H257L373 906H473L585 776H567Z" glyph-name="Ccircumflex" horiz-adv-x="709" unicode="&#264;" /><glyph d="M536 153Q509 70 448.5 27Q388 -16 303 -16Q250 -16 200.5 3Q151 22 112.5 57.5Q74 93 50.5 144Q27 195 27 259Q27 326 52 381Q77 436 121 474Q165 512 226.5 533Q288 554 362 554Q412 554 460 543.5Q508 533 542 515L503 363L487 365Q481 401 467 432Q453 463 433 485.5Q413 508 389 520.5Q365 533 340 533Q309 533 283.5 515.5Q258 498 239.5 466.5Q221 435 211 392.5Q201 350 201 300Q201 246 214 205Q227 164 250 136Q273 108 305 93.5Q337 79 376 79Q434 79 469.5 103.5Q505 128 522 158ZM337 669 186 614H172L288 744H388L500 614H482Z" glyph-name="Ccircumflex.smcp" horiz-adv-x="567" /><glyph d="M606 481Q598 526 581.5 565Q565 604 541 633.5Q517 663 486.5 679.5Q456 696 422 696Q383 696 347.5 674.5Q312 653 285 613.5Q258 574 241.5 517.5Q225 461 225 391Q225 313 243 256Q261 199 292 161Q323 123 365.5 104.5Q408 86 458 86Q518 86 569.5 113Q621 140 648 194L665 189Q630 90 554.5 36Q479 -18 380 -18Q306 -18 242.5 10.5Q179 39 131.5 87.5Q84 136 57 201.5Q30 267 30 341Q30 423 61.5 492.5Q93 562 148 612.5Q203 663 278.5 691.5Q354 720 443 720Q506 720 566.5 709Q627 698 672 676L624 479ZM419 777Q386 777 361.5 801Q337 825 337 859Q337 875 343.5 889.5Q350 904 361.5 915.5Q373 927 387.5 933.5Q402 940 419 940Q453 940 477.5 916Q502 892 502 859Q502 825 477.5 801Q453 777 419 777Z" glyph-name="Cdotaccent" horiz-adv-x="709" unicode="&#266;" /><glyph d="M536 153Q509 70 448.5 27Q388 -16 303 -16Q250 -16 200.5 3Q151 22 112.5 57.5Q74 93 50.5 144Q27 195 27 259Q27 326 52 381Q77 436 121 474Q165 512 226.5 533Q288 554 362 554Q412 554 460 543.5Q508 533 542 515L503 363L487 365Q481 401 467 432Q453 463 433 485.5Q413 508 389 520.5Q365 533 340 533Q309 533 283.5 515.5Q258 498 239.5 466.5Q221 435 211 392.5Q201 350 201 300Q201 246 214 205Q227 164 250 136Q273 108 305 93.5Q337 79 376 79Q434 79 469.5 103.5Q505 128 522 158ZM334 615Q301 615 276.5 639Q252 663 252 697Q252 713 258.5 727.5Q265 742 276.5 753.5Q288 765 302.5 771.5Q317 778 334 778Q368 778 392.5 754Q417 730 417 697Q417 663 392.5 639Q368 615 334 615Z" glyph-name="Cdotaccent.smcp" horiz-adv-x="567" /><glyph d="M284 679V21H348Q394 21 430.5 38Q467 55 492.5 93Q518 131 532 193.5Q546 256 546 346Q546 430 530.5 492.5Q515 555 487.5 596.5Q460 638 423 658.5Q386 679 343 679ZM20 10Q35 11 49 16.5Q63 22 74 33.5Q85 45 91.5 64.5Q98 84 98 114V587Q98 617 91.5 636.5Q85 656 74 667Q63 678 49 683Q35 688 20 690V700H367Q453 700 524 672.5Q595 645 645.5 598Q696 551 724 488Q752 425 752 355Q752 278 721 213Q690 148 638 101Q586 54 516.5 27Q447 0 371 0H20Z" glyph-name="D" horiz-adv-x="782" unicode="D" /><glyph d="M251 519V18H285Q316 18 343.5 28Q371 38 392 66Q413 94 425 144Q437 194 437 274Q437 334 426 380Q415 426 395.5 457Q376 488 350.5 503.5Q325 519 296 519ZM19 10Q31 11 42.5 15.5Q54 20 62.5 29.5Q71 39 76 55Q81 71 81 95V444Q81 468 76 484Q71 500 62.5 509Q54 518 42.5 522Q31 526 19 527V537H306Q378 537 436 515Q494 493 535.5 456Q577 419 599.5 371Q622 323 622 272Q622 210 595 159.5Q568 109 524 73.5Q480 38 424.5 19Q369 0 312 0H19Z" glyph-name="D.smcp" horiz-adv-x="649" /><glyph d="M284 679V21H348Q394 21 430.5 38Q467 55 492.5 93Q518 131 532 193.5Q546 256 546 346Q546 430 530.5 492.5Q515 555 487.5 596.5Q460 638 423 658.5Q386 679 343 679ZM20 10Q35 11 49 16.5Q63 22 74 33.5Q85 45 91.5 64.5Q98 84 98 114V587Q98 617 91.5 636.5Q85 656 74 667Q63 678 49 683Q35 688 20 690V700H367Q453 700 524 672.5Q595 645 645.5 598Q696 551 724 488Q752 425 752 355Q752 278 721 213Q690 148 638 101Q586 54 516.5 27Q447 0 371 0H20ZM369 852 520 906H534L418 776H318L206 906H224Z" glyph-name="Dcaron" horiz-adv-x="782" unicode="&#270;" /><glyph d="M251 519V18H285Q316 18 343.5 28Q371 38 392 66Q413 94 425 144Q437 194 437 274Q437 334 426 380Q415 426 395.5 457Q376 488 350.5 503.5Q325 519 296 519ZM19 10Q31 11 42.5 15.5Q54 20 62.5 29.5Q71 39 76 55Q81 71 81 95V444Q81 468 76 484Q71 500 62.5 509Q54 518 42.5 522Q31 526 19 527V537H306Q378 537 436 515Q494 493 535.5 456Q577 419 599.5 371Q622 323 622 272Q622 210 595 159.5Q568 109 524 73.5Q480 38 424.5 19Q369 0 312 0H19ZM320 689 471 743H485L369 613H269L157 743H175Z" glyph-name="Dcaron.smcp" horiz-adv-x="649" /><glyph d="M348 21Q394 21 430.5 38Q467 55 492.5 93Q518 131 532 193.5Q546 256 546 346Q546 430 530.5 492.5Q515 555 487.5 596.5Q460 638 423 658.5Q386 679 343 679H284V386H381V363H284V21ZM20 0V10Q35 11 49 16.5Q63 22 74 33.5Q85 45 91.5 64.5Q98 84 98 114V363H23V386H98V587Q98 617 91.5 636.5Q85 656 74 667Q63 678 49 683Q35 688 20 690V700H367Q453 700 524 672.5Q595 645 645.5 598Q696 551 724 488Q752 425 752 355Q752 278 721 213Q690 148 638 101Q586 54 516.5 27Q447 0 371 0Z" glyph-name="Dcroat" horiz-adv-x="782" unicode="&#272;" /><glyph d="M285 18Q316 18 343.5 28Q371 38 392 66Q413 94 425 144Q437 194 437 274Q437 334 426 380Q415 426 395.5 457Q376 488 350.5 503.5Q325 519 296 519H251V287H330V268H251V18ZM19 0V10Q31 11 42.5 15.5Q54 20 62.5 29.5Q71 39 76 55Q81 71 81 95V268H14V287H81V444Q81 468 76 484Q71 500 62.5 509Q54 518 42.5 522Q31 526 19 527V537H306Q378 537 436 515Q494 493 535.5 456Q577 419 599.5 371Q622 323 622 272Q622 210 595 159.5Q568 109 524 73.5Q480 38 424.5 19Q369 0 312 0Z" glyph-name="Dcroat.smcp" horiz-adv-x="649" /><glyph d="M614 0H20V10Q35 11 49 16Q63 21 74 32Q85 43 91.5 62Q98 81 98 111V583Q98 613 91.5 633Q85 653 74 665Q63 677 49 682.5Q35 688 20 690V700H584L614 513H599Q548 588 478 633.5Q408 679 331 679H284V380H324Q355 380 384 390.5Q413 401 435.5 418.5Q458 436 473 459Q488 482 492 508H506V228H492Q487 255 471.5 279Q456 303 433 321Q410 339 382 349Q354 359 324 359H284V21H350Q395 21 437 37Q479 53 515 80.5Q551 108 578.5 144.5Q606 181 622 221H639Z" glyph-name="E" horiz-adv-x="675" unicode="E" /><glyph d="M505 0H19V10Q31 11 42 14.5Q53 18 62 27Q71 36 76 51Q81 66 81 91V439Q81 488 62 506.5Q43 525 19 527V537H491L514 388H501Q483 412 457.5 435.5Q432 459 402 477.5Q372 496 338.5 507.5Q305 519 272 519H250V294H276Q298 294 319 302.5Q340 311 358 325.5Q376 340 388.5 358Q401 376 405 396H417V170H405Q401 188 389.5 207Q378 226 360.5 241Q343 256 321.5 266Q300 276 276 276H250V18H279Q316 18 353 32Q390 46 422 68.5Q454 91 478.5 119Q503 147 517 175H531Z" glyph-name="E.smcp" horiz-adv-x="548" /><glyph d="M614 0H20V10Q35 11 49 16Q63 21 74 32Q85 43 91.5 62Q98 81 98 111V583Q98 613 91.5 633Q85 653 74 665Q63 677 49 682.5Q35 688 20 690V700H584L614 513H599Q548 588 478 633.5Q408 679 331 679H284V380H324Q355 380 384 390.5Q413 401 435.5 418.5Q458 436 473 459Q488 482 492 508H506V228H492Q487 255 471.5 279Q456 303 433 321Q410 339 382 349Q354 359 324 359H284V21H350Q395 21 437 37Q479 53 515 80.5Q551 108 578.5 144.5Q606 181 622 221H639ZM399 903Q421 925 445 925Q468 925 483.5 909.5Q499 894 499 871Q499 850 484.5 833.5Q470 817 445 811L287 770H276Z" glyph-name="Eacute" horiz-adv-x="675" unicode="&#201;" /><glyph d="M505 0H19V10Q31 11 42 14.5Q53 18 62 27Q71 36 76 51Q81 66 81 91V439Q81 488 62 506.5Q43 525 19 527V537H491L514 388H501Q483 412 457.5 435.5Q432 459 402 477.5Q372 496 338.5 507.5Q305 519 272 519H250V294H276Q298 294 319 302.5Q340 311 358 325.5Q376 340 388.5 358Q401 376 405 396H417V170H405Q401 188 389.5 207Q378 226 360.5 241Q343 256 321.5 266Q300 276 276 276H250V18H279Q316 18 353 32Q390 46 422 68.5Q454 91 478.5 119Q503 147 517 175H531ZM339 740Q361 762 385 762Q408 762 423.5 746.5Q439 731 439 708Q439 687 424.5 670.5Q410 654 385 648L227 607H216Z" glyph-name="Eacute.smcp" horiz-adv-x="548" /><glyph d="M614 0H20V10Q35 11 49 16Q63 21 74 32Q85 43 91.5 62Q98 81 98 111V583Q98 613 91.5 633Q85 653 74 665Q63 677 49 682.5Q35 688 20 690V700H584L614 513H599Q548 588 478 633.5Q408 679 331 679H284V380H324Q355 380 384 390.5Q413 401 435.5 418.5Q458 436 473 459Q488 482 492 508H506V228H492Q487 255 471.5 279Q456 303 433 321Q410 339 382 349Q354 359 324 359H284V21H350Q395 21 437 37Q479 53 515 80.5Q551 108 578.5 144.5Q606 181 622 221H639ZM347 779Q316 779 289 788Q262 797 242.5 814Q223 831 212 856.5Q201 882 201 915H217Q222 887 256 872Q290 857 347 857Q404 857 438.5 872Q473 887 478 915H494Q494 882 482.5 856.5Q471 831 451.5 814Q432 797 405 788Q378 779 347 779Z" glyph-name="Ebreve" horiz-adv-x="675" unicode="&#276;" /><glyph d="M505 0H19V10Q31 11 42 14.5Q53 18 62 27Q71 36 76 51Q81 66 81 91V439Q81 488 62 506.5Q43 525 19 527V537H491L514 388H501Q483 412 457.5 435.5Q432 459 402 477.5Q372 496 338.5 507.5Q305 519 272 519H250V294H276Q298 294 319 302.5Q340 311 358 325.5Q376 340 388.5 358Q401 376 405 396H417V170H405Q401 188 389.5 207Q378 226 360.5 241Q343 256 321.5 266Q300 276 276 276H250V18H279Q316 18 353 32Q390 46 422 68.5Q454 91 478.5 119Q503 147 517 175H531ZM288 616Q257 616 230 625Q203 634 183.5 651Q164 668 153 693.5Q142 719 142 752H158Q163 724 197 709Q231 694 288 694Q345 694 379.5 709Q414 724 419 752H435Q435 719 423.5 693.5Q412 668 392.5 651Q373 634 346 625Q319 616 288 616Z" glyph-name="Ebreve.smcp" horiz-adv-x="548" /><glyph d="M614 0H20V10Q35 11 49 16Q63 21 74 32Q85 43 91.5 62Q98 81 98 111V583Q98 613 91.5 633Q85 653 74 665Q63 677 49 682.5Q35 688 20 690V700H584L614 513H599Q548 588 478 633.5Q408 679 331 679H284V380H324Q355 380 384 390.5Q413 401 435.5 418.5Q458 436 473 459Q488 482 492 508H506V228H492Q487 255 471.5 279Q456 303 433 321Q410 339 382 349Q354 359 324 359H284V21H350Q395 21 437 37Q479 53 515 80.5Q551 108 578.5 144.5Q606 181 622 221H639ZM347 852 498 906H512L396 776H296L184 906H202Z" glyph-name="Ecaron" horiz-adv-x="675" unicode="&#282;" /><glyph d="M505 0H19V10Q31 11 42 14.5Q53 18 62 27Q71 36 76 51Q81 66 81 91V439Q81 488 62 506.5Q43 525 19 527V537H491L514 388H501Q483 412 457.5 435.5Q432 459 402 477.5Q372 496 338.5 507.5Q305 519 272 519H250V294H276Q298 294 319 302.5Q340 311 358 325.5Q376 340 388.5 358Q401 376 405 396H417V170H405Q401 188 389.5 207Q378 226 360.5 241Q343 256 321.5 266Q300 276 276 276H250V18H279Q316 18 353 32Q390 46 422 68.5Q454 91 478.5 119Q503 147 517 175H531ZM288 689 439 743H453L337 613H237L125 743H143Z" glyph-name="Ecaron.smcp" horiz-adv-x="548" /><glyph d="M614 0H20V10Q35 11 49 16Q63 21 74 32Q85 43 91.5 62Q98 81 98 111V583Q98 613 91.5 633Q85 653 74 665Q63 677 49 682.5Q35 688 20 690V700H584L614 513H599Q548 588 478 633.5Q408 679 331 679H284V380H324Q355 380 384 390.5Q413 401 435.5 418.5Q458 436 473 459Q488 482 492 508H506V228H492Q487 255 471.5 279Q456 303 433 321Q410 339 382 349Q354 359 324 359H284V21H350Q395 21 437 37Q479 53 515 80.5Q551 108 578.5 144.5Q606 181 622 221H639ZM349 831 198 776H184L300 906H400L512 776H494Z" glyph-name="Ecircumflex" horiz-adv-x="675" unicode="&#202;" /><glyph d="M505 0H19V10Q31 11 42 14.5Q53 18 62 27Q71 36 76 51Q81 66 81 91V439Q81 488 62 506.5Q43 525 19 527V537H491L514 388H501Q483 412 457.5 435.5Q432 459 402 477.5Q372 496 338.5 507.5Q305 519 272 519H250V294H276Q298 294 319 302.5Q340 311 358 325.5Q376 340 388.5 358Q401 376 405 396H417V170H405Q401 188 389.5 207Q378 226 360.5 241Q343 256 321.5 266Q300 276 276 276H250V18H279Q316 18 353 32Q390 46 422 68.5Q454 91 478.5 119Q503 147 517 175H531ZM290 668 139 613H125L241 743H341L453 613H435Z" glyph-name="Ecircumflex.smcp" horiz-adv-x="548" /><glyph d="M614 0H20V10Q35 11 49 16Q63 21 74 32Q85 43 91.5 62Q98 81 98 111V583Q98 613 91.5 633Q85 653 74 665Q63 677 49 682.5Q35 688 20 690V700H584L614 513H599Q548 588 478 633.5Q408 679 331 679H284V380H324Q355 380 384 390.5Q413 401 435.5 418.5Q458 436 473 459Q488 482 492 508H506V228H492Q487 255 471.5 279Q456 303 433 321Q410 339 382 349Q354 359 324 359H284V21H350Q395 21 437 37Q479 53 515 80.5Q551 108 578.5 144.5Q606 181 622 221H639ZM451 777Q417 777 393 801Q369 825 369 859Q369 875 375.5 889.5Q382 904 393 915.5Q404 927 419 933.5Q434 940 451 940Q485 940 509.5 916Q534 892 534 859Q534 825 509.5 801Q485 777 451 777ZM241 777Q208 777 183.5 801Q159 825 159 859Q159 875 165.5 889.5Q172 904 183.5 915.5Q195 927 209.5 933.5Q224 940 241 940Q276 940 300 916Q324 892 324 859Q324 825 300 801Q276 777 241 777Z" glyph-name="Edieresis" horiz-adv-x="675" unicode="&#203;" /><glyph d="M505 0H19V10Q31 11 42 14.5Q53 18 62 27Q71 36 76 51Q81 66 81 91V439Q81 488 62 506.5Q43 525 19 527V537H491L514 388H501Q483 412 457.5 435.5Q432 459 402 477.5Q372 496 338.5 507.5Q305 519 272 519H250V294H276Q298 294 319 302.5Q340 311 358 325.5Q376 340 388.5 358Q401 376 405 396H417V170H405Q401 188 389.5 207Q378 226 360.5 241Q343 256 321.5 266Q300 276 276 276H250V18H279Q316 18 353 32Q390 46 422 68.5Q454 91 478.5 119Q503 147 517 175H531ZM392 614Q358 614 334 638Q310 662 310 696Q310 712 316.5 726.5Q323 741 334 752.5Q345 764 360 770.5Q375 777 392 777Q426 777 450.5 753Q475 729 475 696Q475 662 450.5 638Q426 614 392 614ZM182 614Q149 614 124.5 638Q100 662 100 696Q100 712 106.5 726.5Q113 741 124.5 752.5Q136 764 150.5 770.5Q165 777 182 777Q217 777 241 753Q265 729 265 696Q265 662 241 638Q217 614 182 614Z" glyph-name="Edieresis.smcp" horiz-adv-x="548" /><glyph d="M614 0H20V10Q35 11 49 16Q63 21 74 32Q85 43 91.5 62Q98 81 98 111V583Q98 613 91.5 633Q85 653 74 665Q63 677 49 682.5Q35 688 20 690V700H584L614 513H599Q548 588 478 633.5Q408 679 331 679H284V380H324Q355 380 384 390.5Q413 401 435.5 418.5Q458 436 473 459Q488 482 492 508H506V228H492Q487 255 471.5 279Q456 303 433 321Q410 339 382 349Q354 359 324 359H284V21H350Q395 21 437 37Q479 53 515 80.5Q551 108 578.5 144.5Q606 181 622 221H639ZM346 777Q313 777 288.5 801Q264 825 264 859Q264 875 270.5 889.5Q277 904 288.5 915.5Q300 927 314.5 933.5Q329 940 346 940Q380 940 404.5 916Q429 892 429 859Q429 825 404.5 801Q380 777 346 777Z" glyph-name="Edotaccent" horiz-adv-x="675" unicode="&#278;" /><glyph d="M505 0H19V10Q31 11 42 14.5Q53 18 62 27Q71 36 76 51Q81 66 81 91V439Q81 488 62 506.5Q43 525 19 527V537H491L514 388H501Q483 412 457.5 435.5Q432 459 402 477.5Q372 496 338.5 507.5Q305 519 272 519H250V294H276Q298 294 319 302.5Q340 311 358 325.5Q376 340 388.5 358Q401 376 405 396H417V170H405Q401 188 389.5 207Q378 226 360.5 241Q343 256 321.5 266Q300 276 276 276H250V18H279Q316 18 353 32Q390 46 422 68.5Q454 91 478.5 119Q503 147 517 175H531ZM287 614Q254 614 229.5 638Q205 662 205 696Q205 712 211.5 726.5Q218 741 229.5 752.5Q241 764 255.5 770.5Q270 777 287 777Q321 777 345.5 753Q370 729 370 696Q370 662 345.5 638Q321 614 287 614Z" glyph-name="Edotaccent.smcp" horiz-adv-x="548" /><glyph d="M614 0H20V10Q35 11 49 16Q63 21 74 32Q85 43 91.5 62Q98 81 98 111V583Q98 613 91.5 633Q85 653 74 665Q63 677 49 682.5Q35 688 20 690V700H584L614 513H599Q548 588 478 633.5Q408 679 331 679H284V380H324Q355 380 384 390.5Q413 401 435.5 418.5Q458 436 473 459Q488 482 492 508H506V228H492Q487 255 471.5 279Q456 303 433 321Q410 339 382 349Q354 359 324 359H284V21H350Q395 21 437 37Q479 53 515 80.5Q551 108 578.5 144.5Q606 181 622 221H639ZM401 770 243 811Q218 817 203.5 833.5Q189 850 189 871Q189 894 204.5 909.5Q220 925 243 925Q267 925 289 903L412 770Z" glyph-name="Egrave" horiz-adv-x="675" unicode="&#200;" /><glyph d="M505 0H19V10Q31 11 42 14.5Q53 18 62 27Q71 36 76 51Q81 66 81 91V439Q81 488 62 506.5Q43 525 19 527V537H491L514 388H501Q483 412 457.5 435.5Q432 459 402 477.5Q372 496 338.5 507.5Q305 519 272 519H250V294H276Q298 294 319 302.5Q340 311 358 325.5Q376 340 388.5 358Q401 376 405 396H417V170H405Q401 188 389.5 207Q378 226 360.5 241Q343 256 321.5 266Q300 276 276 276H250V18H279Q316 18 353 32Q390 46 422 68.5Q454 91 478.5 119Q503 147 517 175H531ZM341 607 183 648Q158 654 143.5 670.5Q129 687 129 708Q129 731 144.5 746.5Q160 762 183 762Q207 762 229 740L352 607Z" glyph-name="Egrave.smcp" horiz-adv-x="548" /><glyph d="M614 0H20V10Q35 11 49 16Q63 21 74 32Q85 43 91.5 62Q98 81 98 111V583Q98 613 91.5 633Q85 653 74 665Q63 677 49 682.5Q35 688 20 690V700H584L614 513H599Q548 588 478 633.5Q408 679 331 679H284V380H324Q355 380 384 390.5Q413 401 435.5 418.5Q458 436 473 459Q488 482 492 508H506V228H492Q487 255 471.5 279Q456 303 433 321Q410 339 382 349Q354 359 324 359H284V21H350Q395 21 437 37Q479 53 515 80.5Q551 108 578.5 144.5Q606 181 622 221H639ZM490 845V814H209V845Z" glyph-name="Emacron" horiz-adv-x="675" unicode="&#274;" /><glyph d="M505 0H19V10Q31 11 42 14.5Q53 18 62 27Q71 36 76 51Q81 66 81 91V439Q81 488 62 506.5Q43 525 19 527V537H491L514 388H501Q483 412 457.5 435.5Q432 459 402 477.5Q372 496 338.5 507.5Q305 519 272 519H250V294H276Q298 294 319 302.5Q340 311 358 325.5Q376 340 388.5 358Q401 376 405 396H417V170H405Q401 188 389.5 207Q378 226 360.5 241Q343 256 321.5 266Q300 276 276 276H250V18H279Q316 18 353 32Q390 46 422 68.5Q454 91 478.5 119Q503 147 517 175H531ZM431 682V651H150V682Z" glyph-name="Emacron.smcp" horiz-adv-x="548" /><glyph d="M472 -241Q404 -241 370.5 -215Q337 -189 337 -152Q337 -122 357 -104Q377 -86 405 -86Q432 -86 451 -102Q470 -118 470 -149Q470 -164 467 -176Q464 -188 464 -198Q464 -209 470 -213.5Q476 -218 493 -218Q516 -218 540 -207Q564 -196 583 -172Q602 -148 614 -111Q626 -74 625 -21L153 549L155 229Q155 164 169 122.5Q183 81 203.5 56.5Q224 32 247.5 21.5Q271 11 292 10V0H10V10Q34 11 55 22.5Q76 34 91.5 57.5Q107 81 116.5 118.5Q126 156 126 209L128 513Q128 549 121.5 581Q115 613 100.5 636.5Q86 660 63.5 674Q41 688 10 690V700H277L631 282L628 495Q627 547 616.5 583Q606 619 588.5 642Q571 665 548 676Q525 687 500 690V700H767V690Q735 688 714.5 673.5Q694 659 681 633Q668 607 662.5 572Q657 537 657 495L654 -16Q653 -127 605.5 -184Q558 -241 472 -241Z" glyph-name="Eng" horiz-adv-x="777" unicode="&#330;" /><glyph d="M394 -199Q332 -199 303 -174Q274 -149 274 -116Q274 -87 292.5 -70Q311 -53 339 -53Q363 -53 381 -68.5Q399 -84 399 -113Q399 -127 396 -138.5Q393 -150 393 -160Q393 -177 417 -177Q432 -177 447 -168Q462 -159 475 -139.5Q488 -120 497 -90Q506 -60 508 -18L140 400L137 164Q137 134 144 106.5Q151 79 165 58Q179 37 200.5 24Q222 11 249 10V0H7V10Q50 12 79.5 49Q109 86 111 170L116 369Q117 402 111 430Q105 458 92 479Q79 500 59.5 512.5Q40 525 14 527V537H249L510 242L508 367Q507 400 501.5 428.5Q496 457 484.5 478.5Q473 500 454 512.5Q435 525 407 527V537H633V527Q606 525 587 512.5Q568 500 557 479Q546 458 540.5 429.5Q535 401 535 368L532 19Q531 -89 495 -144Q459 -199 394 -199Z" glyph-name="Eng.smcp" horiz-adv-x="645" /><glyph d="M573 -193Q559 -214 535 -229.5Q511 -245 476 -245Q451 -245 432 -237Q413 -229 400.5 -215.5Q388 -202 382 -184.5Q376 -167 376 -148Q376 -104 406 -63.5Q436 -23 496 0H20V10Q35 11 49 16Q63 21 74 32Q85 43 91.5 62Q98 81 98 111V583Q98 613 91.5 633Q85 653 74 665Q63 677 49 682.5Q35 688 20 690V700H584L614 513H599Q548 588 478 633.5Q408 679 331 679H284V380H324Q355 380 384 390.5Q413 401 435.5 418.5Q458 436 473 459Q488 482 492 508H506V228H492Q487 255 471.5 279Q456 303 433 321Q410 339 382 349Q354 359 324 359H284V21H350Q395 21 437 37Q479 53 515 80.5Q551 108 578.5 144.5Q606 181 622 221H639L614 0H527Q500 -11 482.5 -41Q465 -71 465 -118Q465 -163 480.5 -183Q496 -203 522 -203Q545 -203 565 -186Z" glyph-name="Eogonek" horiz-adv-x="675" unicode="&#280;" /><glyph d="M477 -193Q463 -214 439 -229.5Q415 -245 380 -245Q355 -245 336 -237Q317 -229 304.5 -215.5Q292 -202 286 -184.5Q280 -167 280 -148Q280 -104 310 -63.5Q340 -23 400 0H19V10Q31 11 42 14.5Q53 18 62 27Q71 36 76 51Q81 66 81 91V439Q81 488 62 506.5Q43 525 19 527V537H491L514 388H501Q483 412 457.5 435.5Q432 459 402 477.5Q372 496 338.5 507.5Q305 519 272 519H250V294H276Q298 294 319 302.5Q340 311 358 325.5Q376 340 388.5 358Q401 376 405 396H417V170H405Q401 188 389.5 207Q378 226 360.5 241Q343 256 321.5 266Q300 276 276 276H250V18H279Q316 18 353 32Q390 46 422 68.5Q454 91 478.5 119Q503 147 517 175H531L505 0H431Q404 -11 386.5 -41Q369 -71 369 -118Q369 -163 384.5 -183Q400 -203 426 -203Q449 -203 469 -186Z" glyph-name="Eogonek.smcp" horiz-adv-x="548" /><glyph d="M348 21Q394 21 430.5 38Q467 55 492.5 93Q518 131 532 193.5Q546 256 546 346Q546 430 530.5 492.5Q515 555 487.5 596.5Q460 638 423 658.5Q386 679 343 679H284V386H381V363H284V21ZM20 0V10Q35 11 49 16.5Q63 22 74 33.5Q85 45 91.5 64.5Q98 84 98 114V363H23V386H98V587Q98 617 91.5 636.5Q85 656 74 667Q63 678 49 683Q35 688 20 690V700H367Q453 700 524 672.5Q595 645 645.5 598Q696 551 724 488Q752 425 752 355Q752 278 721 213Q690 148 638 101Q586 54 516.5 27Q447 0 371 0Z" glyph-name="Eth" horiz-adv-x="782" unicode="&#208;" /><glyph d="M285 18Q316 18 343.5 28Q371 38 392 66Q413 94 425 144Q437 194 437 274Q437 334 426 380Q415 426 395.5 457Q376 488 350.5 503.5Q325 519 296 519H251V287H330V268H251V18ZM19 0V10Q31 11 42.5 15.5Q54 20 62.5 29.5Q71 39 76 55Q81 71 81 95V268H14V287H81V444Q81 468 76 484Q71 500 62.5 509Q54 518 42.5 522Q31 526 19 527V537H306Q378 537 436 515Q494 493 535.5 456Q577 419 599.5 371Q622 323 622 272Q622 210 595 159.5Q568 109 524 73.5Q480 38 424.5 19Q369 0 312 0Z" glyph-name="Eth.smcp" horiz-adv-x="649" /><glyph d="M605 160Q593 122 572.5 89.5Q552 57 522.5 33.5Q493 10 454.5 -3.5Q416 -17 369 -17Q316 -17 268 1.5Q220 20 182.5 54Q145 88 119.5 135.5Q94 183 86 241H11V262H84Q82 275 82.5 289.5Q83 304 84 318H11V339H86Q93 397 119 446.5Q145 496 187 532.5Q229 569 286 589.5Q343 610 414 610Q466 610 517 599Q568 588 609 566L578 398L564 399Q556 441 541 476Q526 511 505 536Q484 561 458.5 575Q433 589 405 589Q378 589 352.5 574.5Q327 560 307.5 529Q288 498 276 451Q264 404 264 339H443L435 318H264Q264 303 265 289Q266 275 268 262H413L405 241H272Q281 196 298.5 163.5Q316 131 338.5 111Q361 91 388 81.5Q415 72 444 72Q497 72 534 97Q571 122 591 164Z" glyph-name="Euro" horiz-adv-x="639" unicode="&#8364;" /><glyph d="M687 184Q673 141 650 104Q627 67 595 40Q563 13 521 -2.5Q479 -18 428 -18Q365 -18 308.5 4Q252 26 207.5 66.5Q163 107 132.5 163.5Q102 220 92 289H7V311H90Q88 327 87.5 344.5Q87 362 89 379H7V401H91Q98 472 127.5 530.5Q157 589 205.5 631Q254 673 319.5 696.5Q385 720 466 720Q525 720 584 708.5Q643 697 686 674L655 477L639 479Q630 528 612 568Q594 608 569.5 636.5Q545 665 515 680.5Q485 696 453 696Q418 696 388 677Q358 658 335.5 620.5Q313 583 299.5 528Q286 473 285 401H490L481 379H285Q285 360 286.5 343.5Q288 327 290 311H455L446 289H293Q303 232 324.5 192Q346 152 373.5 127Q401 102 434 91Q467 80 500 80Q553 80 597 105Q641 130 671 188Z" glyph-name="Euro.LP" horiz-adv-x="726" /><glyph d="M556 145Q535 75 482.5 30Q430 -15 349 -15Q298 -15 252 1Q206 17 169.5 46.5Q133 76 108.5 119Q84 162 77 216H8V237H75Q73 261 75 285H8V306H77Q84 361 107.5 406.5Q131 452 170 485Q209 518 263 536Q317 554 383 554Q430 554 475.5 545Q521 536 556 516L529 363L516 364Q508 401 494 432.5Q480 464 460.5 486Q441 508 417.5 520.5Q394 533 369 533Q344 533 321.5 517.5Q299 502 282 473Q265 444 255 402.5Q245 361 245 308V306H405L398 285H246Q246 272 247 260Q248 248 250 237H377L370 216H254Q263 176 279.5 147.5Q296 119 317.5 101Q339 83 363.5 74.5Q388 66 413 66Q458 66 492 87Q526 108 543 149Z" glyph-name="Euro.smcp" horiz-adv-x="585" /><glyph d="M368 0H20V10Q35 11 49 16.5Q63 22 74 33.5Q85 45 91.5 64.5Q98 84 98 114V583Q98 613 91.5 633Q85 653 74 665Q63 677 49 682.5Q35 688 20 690V700H593L614 476H596Q541 587 477 633Q413 679 345 679H285V375H306Q337 375 365.5 385.5Q394 396 416.5 413.5Q439 431 454.5 454.5Q470 478 474 504H488V223H474Q469 251 453.5 275Q438 299 415 316.5Q392 334 364 344Q336 354 306 354H285V114Q285 84 292 64.5Q299 45 310.5 33.5Q322 22 337 16.5Q352 11 368 10Z" glyph-name="F" horiz-adv-x="644" unicode="F" /><glyph d="M317 0H19V10Q31 11 42 15Q53 19 62 28.5Q71 38 76 54Q81 70 81 94V439Q81 488 62 506.5Q43 525 19 527V537H493L512 358H496Q456 437 401 478Q346 519 286 519H251V282H265Q287 282 308 290.5Q329 299 347 313.5Q365 328 377.5 346.5Q390 365 394 385H406V159H394Q390 177 378.5 195.5Q367 214 349.5 229.5Q332 245 310.5 254.5Q289 264 265 264H251V94Q251 70 256.5 54Q262 38 271.5 28.5Q281 19 293 15Q305 11 317 10Z" glyph-name="F.smcp" horiz-adv-x="531" /><glyph d="M723 63Q699 46 665 31Q631 16 591 4.5Q551 -7 507.5 -14Q464 -21 421 -21Q347 -21 276.5 4.5Q206 30 151 78Q96 126 63 194.5Q30 263 30 350Q30 437 62.5 506Q95 575 152 622.5Q209 670 285.5 695Q362 720 450 720Q483 720 517.5 717Q552 714 585 708Q618 702 647 694Q676 686 698 676L641 479L623 481Q617 531 599 571Q581 611 555 639Q529 667 496 682Q463 697 426 697Q385 697 349.5 677.5Q314 658 288.5 616.5Q263 575 248.5 510.5Q234 446 234 357Q234 263 249 195.5Q264 128 289.5 85Q315 42 349.5 21.5Q384 1 423 1Q473 1 507.5 27.5Q542 54 542 110V220Q542 250 535.5 269.5Q529 289 517.5 300.5Q506 312 491 317Q476 322 460 324V334H787V324Q775 322 763.5 317Q752 312 743 300.5Q734 289 728.5 269.5Q723 250 723 220Z" glyph-name="G" horiz-adv-x="805" unicode="G" /><glyph d="M380 554Q435 554 483.5 543.5Q532 533 568 516L523 361L509 363Q502 402 487 433Q472 464 451.5 486.5Q431 509 406 521Q381 533 354 533Q328 533 302.5 516.5Q277 500 256.5 467Q236 434 223.5 385Q211 336 211 270Q211 199 220 148Q229 97 245.5 64.5Q262 32 286.5 16.5Q311 1 341 1Q374 1 400 19.5Q426 38 426 83V166Q426 215 410 232.5Q394 250 366 252V261H640V252Q632 251 623 246.5Q614 242 606.5 232.5Q599 223 594 207Q589 191 589 166V54Q568 39 539 26Q510 13 476.5 3.5Q443 -6 407.5 -12Q372 -18 339 -18Q275 -18 218.5 4.5Q162 27 119.5 65.5Q77 104 52 156.5Q27 209 27 269Q27 326 49.5 377.5Q72 429 116.5 468Q161 507 227 530.5Q293 554 380 554Z" glyph-name="G.smcp" horiz-adv-x="652" /><glyph d="M723 63Q699 46 665 31Q631 16 591 4.5Q551 -7 507.5 -14Q464 -21 421 -21Q347 -21 276.5 4.5Q206 30 151 78Q96 126 63 194.5Q30 263 30 350Q30 437 62.5 506Q95 575 152 622.5Q209 670 285.5 695Q362 720 450 720Q483 720 517.5 717Q552 714 585 708Q618 702 647 694Q676 686 698 676L641 479L623 481Q617 531 599 571Q581 611 555 639Q529 667 496 682Q463 697 426 697Q385 697 349.5 677.5Q314 658 288.5 616.5Q263 575 248.5 510.5Q234 446 234 357Q234 263 249 195.5Q264 128 289.5 85Q315 42 349.5 21.5Q384 1 423 1Q473 1 507.5 27.5Q542 54 542 110V220Q542 250 535.5 269.5Q529 289 517.5 300.5Q506 312 491 317Q476 322 460 324V334H787V324Q775 322 763.5 317Q752 312 743 300.5Q734 289 728.5 269.5Q723 250 723 220ZM423 779Q392 779 365 788Q338 797 318.5 814Q299 831 288 856.5Q277 882 277 915H293Q298 887 332 872Q366 857 423 857Q480 857 514.5 872Q549 887 554 915H570Q570 882 558.5 856.5Q547 831 527.5 814Q508 797 481 788Q454 779 423 779Z" glyph-name="Gbreve" horiz-adv-x="805" unicode="&#286;" /><glyph d="M380 554Q435 554 483.5 543.5Q532 533 568 516L523 361L509 363Q502 402 487 433Q472 464 451.5 486.5Q431 509 406 521Q381 533 354 533Q328 533 302.5 516.5Q277 500 256.5 467Q236 434 223.5 385Q211 336 211 270Q211 199 220 148Q229 97 245.5 64.5Q262 32 286.5 16.5Q311 1 341 1Q374 1 400 19.5Q426 38 426 83V166Q426 215 410 232.5Q394 250 366 252V261H640V252Q632 251 623 246.5Q614 242 606.5 232.5Q599 223 594 207Q589 191 589 166V54Q568 39 539 26Q510 13 476.5 3.5Q443 -6 407.5 -12Q372 -18 339 -18Q275 -18 218.5 4.5Q162 27 119.5 65.5Q77 104 52 156.5Q27 209 27 269Q27 326 49.5 377.5Q72 429 116.5 468Q161 507 227 530.5Q293 554 380 554ZM347 616Q316 616 289 625Q262 634 242.5 651Q223 668 212 693.5Q201 719 201 752H217Q222 724 256 709Q290 694 347 694Q404 694 438.5 709Q473 724 478 752H494Q494 719 482.5 693.5Q471 668 451.5 651Q432 634 405 625Q378 616 347 616Z" glyph-name="Gbreve.smcp" horiz-adv-x="652" /><glyph d="M723 63Q699 46 665 31Q631 16 591 4.5Q551 -7 507.5 -14Q464 -21 421 -21Q347 -21 276.5 4.5Q206 30 151 78Q96 126 63 194.5Q30 263 30 350Q30 437 62.5 506Q95 575 152 622.5Q209 670 285.5 695Q362 720 450 720Q483 720 517.5 717Q552 714 585 708Q618 702 647 694Q676 686 698 676L641 479L623 481Q617 531 599 571Q581 611 555 639Q529 667 496 682Q463 697 426 697Q385 697 349.5 677.5Q314 658 288.5 616.5Q263 575 248.5 510.5Q234 446 234 357Q234 263 249 195.5Q264 128 289.5 85Q315 42 349.5 21.5Q384 1 423 1Q473 1 507.5 27.5Q542 54 542 110V220Q542 250 535.5 269.5Q529 289 517.5 300.5Q506 312 491 317Q476 322 460 324V334H787V324Q775 322 763.5 317Q752 312 743 300.5Q734 289 728.5 269.5Q723 250 723 220ZM425 831 274 776H260L376 906H476L588 776H570Z" glyph-name="Gcircumflex" horiz-adv-x="805" unicode="&#284;" /><glyph d="M380 554Q435 554 483.5 543.5Q532 533 568 516L523 361L509 363Q502 402 487 433Q472 464 451.5 486.5Q431 509 406 521Q381 533 354 533Q328 533 302.5 516.5Q277 500 256.5 467Q236 434 223.5 385Q211 336 211 270Q211 199 220 148Q229 97 245.5 64.5Q262 32 286.5 16.5Q311 1 341 1Q374 1 400 19.5Q426 38 426 83V166Q426 215 410 232.5Q394 250 366 252V261H640V252Q632 251 623 246.5Q614 242 606.5 232.5Q599 223 594 207Q589 191 589 166V54Q568 39 539 26Q510 13 476.5 3.5Q443 -6 407.5 -12Q372 -18 339 -18Q275 -18 218.5 4.5Q162 27 119.5 65.5Q77 104 52 156.5Q27 209 27 269Q27 326 49.5 377.5Q72 429 116.5 468Q161 507 227 530.5Q293 554 380 554ZM349 668 198 613H184L300 743H400L512 613H494Z" glyph-name="Gcircumflex.smcp" horiz-adv-x="652" /><glyph d="M441 -279Q441 -267 436 -260Q431 -253 422.5 -248.5Q414 -244 403.5 -240.5Q393 -237 383 -232Q362 -221 348 -203Q334 -185 334 -159Q334 -125 357 -100Q380 -75 422 -75Q459 -75 483 -100.5Q507 -126 507 -172Q507 -206 497 -239Q487 -272 468.5 -300Q450 -328 423.5 -348.5Q397 -369 364 -376L358 -361Q371 -358 386 -349.5Q401 -341 413 -329.5Q425 -318 433 -304.5Q441 -291 441 -279ZM723 63Q699 46 665 31Q631 16 591 4.5Q551 -7 507.5 -14Q464 -21 421 -21Q347 -21 276.5 4.5Q206 30 151 78Q96 126 63 194.5Q30 263 30 350Q30 437 62.5 506Q95 575 152 622.5Q209 670 285.5 695Q362 720 450 720Q483 720 517.5 717Q552 714 585 708Q618 702 647 694Q676 686 698 676L641 479L623 481Q617 531 599 571Q581 611 555 639Q529 667 496 682Q463 697 426 697Q385 697 349.5 677.5Q314 658 288.5 616.5Q263 575 248.5 510.5Q234 446 234 357Q234 263 249 195.5Q264 128 289.5 85Q315 42 349.5 21.5Q384 1 423 1Q473 1 507.5 27.5Q542 54 542 110V220Q542 250 535.5 269.5Q529 289 517.5 300.5Q506 312 491 317Q476 322 460 324V334H787V324Q775 322 763.5 317Q752 312 743 300.5Q734 289 728.5 269.5Q723 250 723 220Z" glyph-name="Gcommaaccent" horiz-adv-x="805" unicode="&#290;" /><glyph d="M355 -279Q355 -267 350 -260Q345 -253 336.5 -248.5Q328 -244 317.5 -240.5Q307 -237 297 -232Q276 -221 262 -203Q248 -185 248 -159Q248 -125 271 -100Q294 -75 336 -75Q373 -75 397 -100.5Q421 -126 421 -172Q421 -206 411 -239Q401 -272 382.5 -300Q364 -328 337.5 -348.5Q311 -369 278 -376L272 -361Q285 -358 300 -349.5Q315 -341 327 -329.5Q339 -318 347 -304.5Q355 -291 355 -279ZM380 554Q435 554 483.5 543.5Q532 533 568 516L523 361L509 363Q502 402 487 433Q472 464 451.5 486.5Q431 509 406 521Q381 533 354 533Q328 533 302.5 516.5Q277 500 256.5 467Q236 434 223.5 385Q211 336 211 270Q211 199 220 148Q229 97 245.5 64.5Q262 32 286.5 16.5Q311 1 341 1Q374 1 400 19.5Q426 38 426 83V166Q426 215 410 232.5Q394 250 366 252V261H640V252Q632 251 623 246.5Q614 242 606.5 232.5Q599 223 594 207Q589 191 589 166V54Q568 39 539 26Q510 13 476.5 3.5Q443 -6 407.5 -12Q372 -18 339 -18Q275 -18 218.5 4.5Q162 27 119.5 65.5Q77 104 52 156.5Q27 209 27 269Q27 326 49.5 377.5Q72 429 116.5 468Q161 507 227 530.5Q293 554 380 554Z" glyph-name="Gcommaaccent.smcp" horiz-adv-x="652" /><glyph d="M723 63Q699 46 665 31Q631 16 591 4.5Q551 -7 507.5 -14Q464 -21 421 -21Q347 -21 276.5 4.5Q206 30 151 78Q96 126 63 194.5Q30 263 30 350Q30 437 62.5 506Q95 575 152 622.5Q209 670 285.5 695Q362 720 450 720Q483 720 517.5 717Q552 714 585 708Q618 702 647 694Q676 686 698 676L641 479L623 481Q617 531 599 571Q581 611 555 639Q529 667 496 682Q463 697 426 697Q385 697 349.5 677.5Q314 658 288.5 616.5Q263 575 248.5 510.5Q234 446 234 357Q234 263 249 195.5Q264 128 289.5 85Q315 42 349.5 21.5Q384 1 423 1Q473 1 507.5 27.5Q542 54 542 110V220Q542 250 535.5 269.5Q529 289 517.5 300.5Q506 312 491 317Q476 322 460 324V334H787V324Q775 322 763.5 317Q752 312 743 300.5Q734 289 728.5 269.5Q723 250 723 220ZM422 777Q389 777 364.5 801Q340 825 340 859Q340 875 346.5 889.5Q353 904 364.5 915.5Q376 927 390.5 933.5Q405 940 422 940Q456 940 480.5 916Q505 892 505 859Q505 825 480.5 801Q456 777 422 777Z" glyph-name="Gdotaccent" horiz-adv-x="805" unicode="&#288;" /><glyph d="M380 554Q435 554 483.5 543.5Q532 533 568 516L523 361L509 363Q502 402 487 433Q472 464 451.5 486.5Q431 509 406 521Q381 533 354 533Q328 533 302.5 516.5Q277 500 256.5 467Q236 434 223.5 385Q211 336 211 270Q211 199 220 148Q229 97 245.5 64.5Q262 32 286.5 16.5Q311 1 341 1Q374 1 400 19.5Q426 38 426 83V166Q426 215 410 232.5Q394 250 366 252V261H640V252Q632 251 623 246.5Q614 242 606.5 232.5Q599 223 594 207Q589 191 589 166V54Q568 39 539 26Q510 13 476.5 3.5Q443 -6 407.5 -12Q372 -18 339 -18Q275 -18 218.5 4.5Q162 27 119.5 65.5Q77 104 52 156.5Q27 209 27 269Q27 326 49.5 377.5Q72 429 116.5 468Q161 507 227 530.5Q293 554 380 554ZM346 614Q313 614 288.5 638Q264 662 264 696Q264 712 270.5 726.5Q277 741 288.5 752.5Q300 764 314.5 770.5Q329 777 346 777Q380 777 404.5 753Q429 729 429 696Q429 662 404.5 638Q380 614 346 614Z" glyph-name="Gdotaccent.smcp" horiz-adv-x="652" /><glyph d="M359 0H20V10Q35 11 49 16.5Q63 22 74 33.5Q85 45 91.5 64.5Q98 84 98 114V586Q98 616 91.5 635.5Q85 655 74 666.5Q63 678 49 683Q35 688 20 690V700H359V690Q345 688 332 684Q319 680 308.5 669Q298 658 291.5 639.5Q285 621 285 591V373H516V591Q516 621 509.5 639.5Q503 658 492.5 669Q482 680 468.5 684Q455 688 442 690V700H781V690Q766 688 752 683Q738 678 726.5 666.5Q715 655 708.5 635.5Q702 616 702 586V114Q702 84 708.5 64.5Q715 45 726.5 33.5Q738 22 752 16.5Q766 11 781 10V0H442V10Q455 11 468.5 15.5Q482 20 492.5 31Q503 42 509.5 60.5Q516 79 516 109V350H285V109Q285 79 291.5 60.5Q298 42 308.5 31Q319 20 332 15.5Q345 11 359 10Z" glyph-name="H" horiz-adv-x="801" unicode="H" /><glyph d="M307 0H19V10Q32 11 43 15Q54 19 62.5 28.5Q71 38 76 53.5Q81 69 81 94V443Q81 468 76 483.5Q71 499 62.5 508.5Q54 518 43 522Q32 526 19 527V537H307V527Q297 526 287 522.5Q277 519 269 511Q261 503 256 487.5Q251 472 251 447V286H410V447Q410 472 405 487.5Q400 503 392.5 511Q385 519 374.5 522.5Q364 526 354 527V537H642V527Q616 525 598 508.5Q580 492 580 443V94Q580 69 585 53.5Q590 38 598.5 28.5Q607 19 618 15Q629 11 642 10V0H354V10Q364 11 374.5 14.5Q385 18 392.5 26Q400 34 405 49.5Q410 65 410 90V264H251V90Q251 65 256 49.5Q261 34 269 26Q277 18 287 14.5Q297 11 307 10Z" glyph-name="H.smcp" horiz-adv-x="661" /><glyph d="M359 0H20V10Q35 11 49 16.5Q63 22 74 33.5Q85 45 91.5 64.5Q98 84 98 114V495H11V517H98V586Q98 616 91.5 635.5Q85 655 74 666.5Q63 678 49 683Q35 688 20 690V700H359V690Q345 688 332 684Q319 680 308.5 669Q298 658 291.5 639.5Q285 621 285 591V517H516V591Q516 621 509.5 639.5Q503 658 492.5 669Q482 680 468.5 684Q455 688 442 690V700H781V690Q766 688 752 683Q738 678 726.5 666.5Q715 655 708.5 635.5Q702 616 702 586V517H788V495H702V114Q702 84 708.5 64.5Q715 45 726.5 33.5Q738 22 752 16.5Q766 11 781 10V0H442V10Q455 11 468.5 15.5Q482 20 492.5 31Q503 42 509.5 60.5Q516 79 516 109V350H285V109Q285 79 291.5 60.5Q298 42 308.5 31Q319 20 332 15.5Q345 11 359 10ZM516 495H285V373H516Z" glyph-name="Hbar" horiz-adv-x="801" unicode="&#294;" /><glyph d="M307 0H19V10Q32 11 43 15Q54 19 62.5 28.5Q71 38 76 53.5Q81 69 81 94V376H6V395H81V443Q81 468 76 483.5Q71 499 62.5 508.5Q54 518 43 522Q32 526 19 527V537H307V527Q297 526 287 522.5Q277 519 269 511Q261 503 256 487.5Q251 472 251 447V395H410V447Q410 472 405 487.5Q400 503 392.5 511Q385 519 374.5 522.5Q364 526 354 527V537H642V527Q616 525 598 508.5Q580 492 580 443V395H655V376H580V94Q580 69 585 53.5Q590 38 598.5 28.5Q607 19 618 15Q629 11 642 10V0H354V10Q364 11 374.5 14.5Q385 18 392.5 26Q400 34 405 49.5Q410 65 410 90V264H251V90Q251 65 256 49.5Q261 34 269 26Q277 18 287 14.5Q297 11 307 10ZM410 376H251V286H410Z" glyph-name="Hbar.smcp" horiz-adv-x="662" /><glyph d="M359 0H20V10Q35 11 49 16.5Q63 22 74 33.5Q85 45 91.5 64.5Q98 84 98 114V586Q98 616 91.5 635.5Q85 655 74 666.5Q63 678 49 683Q35 688 20 690V700H359V690Q345 688 332 684Q319 680 308.5 669Q298 658 291.5 639.5Q285 621 285 591V373H516V591Q516 621 509.5 639.5Q503 658 492.5 669Q482 680 468.5 684Q455 688 442 690V700H781V690Q766 688 752 683Q738 678 726.5 666.5Q715 655 708.5 635.5Q702 616 702 586V114Q702 84 708.5 64.5Q715 45 726.5 33.5Q738 22 752 16.5Q766 11 781 10V0H442V10Q455 11 468.5 15.5Q482 20 492.5 31Q503 42 509.5 60.5Q516 79 516 109V350H285V109Q285 79 291.5 60.5Q298 42 308.5 31Q319 20 332 15.5Q345 11 359 10ZM400 831 249 776H235L351 906H451L563 776H545Z" glyph-name="Hcircumflex" horiz-adv-x="801" unicode="&#292;" /><glyph d="M307 0H19V10Q32 11 43 15Q54 19 62.5 28.5Q71 38 76 53.5Q81 69 81 94V443Q81 468 76 483.5Q71 499 62.5 508.5Q54 518 43 522Q32 526 19 527V537H307V527Q297 526 287 522.5Q277 519 269 511Q261 503 256 487.5Q251 472 251 447V286H410V447Q410 472 405 487.5Q400 503 392.5 511Q385 519 374.5 522.5Q364 526 354 527V537H642V527Q616 525 598 508.5Q580 492 580 443V94Q580 69 585 53.5Q590 38 598.5 28.5Q607 19 618 15Q629 11 642 10V0H354V10Q364 11 374.5 14.5Q385 18 392.5 26Q400 34 405 49.5Q410 65 410 90V264H251V90Q251 65 256 49.5Q261 34 269 26Q277 18 287 14.5Q297 11 307 10ZM331 668 180 613H166L282 743H382L494 613H476Z" glyph-name="Hcircumflex.smcp" horiz-adv-x="661" /><glyph d="M363 690Q348 688 334 683Q320 678 309 666.5Q298 655 291.5 635.5Q285 616 285 586V114Q285 84 291.5 64.5Q298 45 309 33.5Q320 22 334 16.5Q348 11 363 10V0H20V10Q35 11 49 16.5Q63 22 74 33.5Q85 45 91.5 64.5Q98 84 98 114V586Q98 616 91.5 635.5Q85 655 74 666.5Q63 678 49 683Q35 688 20 690V700H363Z" glyph-name="I" horiz-adv-x="384" unicode="I" /><glyph d="M312 527Q300 526 289 522Q278 518 269 508.5Q260 499 255 483.5Q250 468 250 443V94Q250 69 255 53.5Q260 38 269 28.5Q278 19 289 15Q300 11 312 10V0H19V10Q31 11 42 15Q53 19 61.5 28.5Q70 38 75.5 53.5Q81 69 81 94V443Q81 468 75.5 483.5Q70 499 61.5 508.5Q53 518 42 522Q31 526 19 527V537H312Z" glyph-name="I.smcp" horiz-adv-x="331" /><glyph d="M721 32Q721 -22 700 -68Q679 -114 643 -148Q607 -182 558 -201.5Q509 -221 454 -221Q421 -221 392.5 -213.5Q364 -206 343.5 -192.5Q323 -179 311 -159.5Q299 -140 299 -115Q299 -80 320 -61.5Q341 -43 369 -43Q395 -43 418 -60.5Q441 -78 441 -113Q441 -128 437.5 -142.5Q434 -157 434 -170Q434 -200 467 -200Q480 -200 494 -194Q508 -188 519.5 -175Q531 -162 538 -141Q545 -120 545 -89Q545 -50 539.5 6Q534 62 534 129V584Q534 614 527 633.5Q520 653 508.5 665Q497 677 482 682.5Q467 688 451 690V700H793V690Q779 688 766.5 682.5Q754 677 743.5 665Q733 653 727 633.5Q721 614 721 584ZM363 690Q348 688 334 683Q320 678 309 666.5Q298 655 291.5 635.5Q285 616 285 586V114Q285 84 291.5 64.5Q298 45 309 33.5Q320 22 334 16.5Q348 11 363 10V0H20V10Q35 11 49 16.5Q63 22 74 33.5Q85 45 91.5 64.5Q98 84 98 114V586Q98 616 91.5 635.5Q85 655 74 666.5Q63 678 49 683Q35 688 20 690V700H363Z" glyph-name="IJ" horiz-adv-x="809" unicode="&#306;" /><glyph d="M384 -191Q312 -191 276.5 -164.5Q241 -138 241 -103Q241 -71 261 -53.5Q281 -36 309 -36Q335 -36 353.5 -51.5Q372 -67 372 -99Q372 -111 369 -124Q366 -137 366 -151Q366 -173 392 -173Q409 -173 426.5 -156Q444 -139 444 -104Q444 -78 438 -28.5Q432 21 432 82V440Q432 465 426.5 481.5Q421 498 411.5 507.5Q402 517 389.5 521.5Q377 526 364 527V537H663V527Q652 526 641 521.5Q630 517 621.5 507.5Q613 498 608 481.5Q603 465 603 440V11Q603 -39 582.5 -77Q562 -115 530.5 -140.5Q499 -166 460 -178.5Q421 -191 384 -191ZM312 527Q300 526 289 522Q278 518 269 508.5Q260 499 255 483.5Q250 468 250 443V94Q250 69 255 53.5Q260 38 269 28.5Q278 19 289 15Q300 11 312 10V0H19V10Q31 11 42 15Q53 19 61.5 28.5Q70 38 75.5 53.5Q81 69 81 94V443Q81 468 75.5 483.5Q70 499 61.5 508.5Q53 518 42 522Q31 526 19 527V537H312Z" glyph-name="IJ.smcp" horiz-adv-x="679" /><glyph d="M363 690Q348 688 334 683Q320 678 309 666.5Q298 655 291.5 635.5Q285 616 285 586V114Q285 84 291.5 64.5Q298 45 309 33.5Q320 22 334 16.5Q348 11 363 10V0H20V10Q35 11 49 16.5Q63 22 74 33.5Q85 45 91.5 64.5Q98 84 98 114V586Q98 616 91.5 635.5Q85 655 74 666.5Q63 678 49 683Q35 688 20 690V700H363ZM247 903Q269 925 293 925Q316 925 331.5 909.5Q347 894 347 871Q347 850 332.5 833.5Q318 817 293 811L135 770H124Z" glyph-name="Iacute" horiz-adv-x="383" unicode="&#205;" /><glyph d="M312 527Q300 526 289 522Q278 518 269 508.5Q260 499 255 483.5Q250 468 250 443V94Q250 69 255 53.5Q260 38 269 28.5Q278 19 289 15Q300 11 312 10V0H19V10Q31 11 42 15Q53 19 61.5 28.5Q70 38 75.5 53.5Q81 69 81 94V443Q81 468 75.5 483.5Q70 499 61.5 508.5Q53 518 42 522Q31 526 19 527V537H312ZM221 740Q243 762 267 762Q290 762 305.5 746.5Q321 731 321 708Q321 687 306.5 670.5Q292 654 267 648L109 607H98Z" glyph-name="Iacute.smcp" horiz-adv-x="331" /><glyph d="M363 690Q348 688 334 683Q320 678 309 666.5Q298 655 291.5 635.5Q285 616 285 586V114Q285 84 291.5 64.5Q298 45 309 33.5Q320 22 334 16.5Q348 11 363 10V0H20V10Q35 11 49 16.5Q63 22 74 33.5Q85 45 91.5 64.5Q98 84 98 114V586Q98 616 91.5 635.5Q85 655 74 666.5Q63 678 49 683Q35 688 20 690V700H363ZM196 779Q165 779 138 788Q111 797 91.5 814Q72 831 61 856.5Q50 882 50 915H66Q71 887 105 872Q139 857 196 857Q253 857 287.5 872Q322 887 327 915H343Q343 882 331.5 856.5Q320 831 300.5 814Q281 797 254 788Q227 779 196 779Z" glyph-name="Ibreve" horiz-adv-x="383" unicode="&#300;" /><glyph d="M312 527Q300 526 289 522Q278 518 269 508.5Q260 499 255 483.5Q250 468 250 443V94Q250 69 255 53.5Q260 38 269 28.5Q278 19 289 15Q300 11 312 10V0H19V10Q31 11 42 15Q53 19 61.5 28.5Q70 38 75.5 53.5Q81 69 81 94V443Q81 468 75.5 483.5Q70 499 61.5 508.5Q53 518 42 522Q31 526 19 527V537H312ZM170 616Q139 616 112 625Q85 634 65.5 651Q46 668 35 693.5Q24 719 24 752H40Q45 724 79 709Q113 694 170 694Q227 694 261.5 709Q296 724 301 752H317Q317 719 305.5 693.5Q294 668 274.5 651Q255 634 228 625Q201 616 170 616Z" glyph-name="Ibreve.smcp" horiz-adv-x="331" /><glyph d="M363 690Q348 688 334 683Q320 678 309 666.5Q298 655 291.5 635.5Q285 616 285 586V114Q285 84 291.5 64.5Q298 45 309 33.5Q320 22 334 16.5Q348 11 363 10V0H20V10Q35 11 49 16.5Q63 22 74 33.5Q85 45 91.5 64.5Q98 84 98 114V586Q98 616 91.5 635.5Q85 655 74 666.5Q63 678 49 683Q35 688 20 690V700H363ZM198 831 47 776H33L149 906H249L361 776H343Z" glyph-name="Icircumflex" horiz-adv-x="383" unicode="&#206;" /><glyph d="M312 527Q300 526 289 522Q278 518 269 508.5Q260 499 255 483.5Q250 468 250 443V94Q250 69 255 53.5Q260 38 269 28.5Q278 19 289 15Q300 11 312 10V0H19V10Q31 11 42 15Q53 19 61.5 28.5Q70 38 75.5 53.5Q81 69 81 94V443Q81 468 75.5 483.5Q70 499 61.5 508.5Q53 518 42 522Q31 526 19 527V537H312ZM172 668 21 613H7L123 743H223L335 613H317Z" glyph-name="Icircumflex.smcp" horiz-adv-x="331" /><glyph d="M363 690Q348 688 334 683Q320 678 309 666.5Q298 655 291.5 635.5Q285 616 285 586V114Q285 84 291.5 64.5Q298 45 309 33.5Q320 22 334 16.5Q348 11 363 10V0H20V10Q35 11 49 16.5Q63 22 74 33.5Q85 45 91.5 64.5Q98 84 98 114V586Q98 616 91.5 635.5Q85 655 74 666.5Q63 678 49 683Q35 688 20 690V700H363ZM300 777Q266 777 242 801Q218 825 218 859Q218 875 224.5 889.5Q231 904 242 915.5Q253 927 268 933.5Q283 940 300 940Q334 940 358.5 916Q383 892 383 859Q383 825 358.5 801Q334 777 300 777ZM90 777Q57 777 32.5 801Q8 825 8 859Q8 875 14.5 889.5Q21 904 32.5 915.5Q44 927 58.5 933.5Q73 940 90 940Q125 940 149 916Q173 892 173 859Q173 825 149 801Q125 777 90 777Z" glyph-name="Idieresis" horiz-adv-x="383" unicode="&#207;" /><glyph d="M312 527Q300 526 289 522Q278 518 269 508.5Q260 499 255 483.5Q250 468 250 443V94Q250 69 255 53.5Q260 38 269 28.5Q278 19 289 15Q300 11 312 10V0H19V10Q31 11 42 15Q53 19 61.5 28.5Q70 38 75.5 53.5Q81 69 81 94V443Q81 468 75.5 483.5Q70 499 61.5 508.5Q53 518 42 522Q31 526 19 527V537H312ZM274 614Q240 614 216 638Q192 662 192 696Q192 712 198.5 726.5Q205 741 216 752.5Q227 764 242 770.5Q257 777 274 777Q308 777 332.5 753Q357 729 357 696Q357 662 332.5 638Q308 614 274 614ZM64 614Q31 614 6.5 638Q-18 662 -18 696Q-18 712 -11.5 726.5Q-5 741 6.5 752.5Q18 764 32.5 770.5Q47 777 64 777Q99 777 123 753Q147 729 147 696Q147 662 123 638Q99 614 64 614Z" glyph-name="Idieresis.smcp" horiz-adv-x="331" /><glyph d="M363 690Q348 688 334 683Q320 678 309 666.5Q298 655 291.5 635.5Q285 616 285 586V114Q285 84 291.5 64.5Q298 45 309 33.5Q320 22 334 16.5Q348 11 363 10V0H20V10Q35 11 49 16.5Q63 22 74 33.5Q85 45 91.5 64.5Q98 84 98 114V586Q98 616 91.5 635.5Q85 655 74 666.5Q63 678 49 683Q35 688 20 690V700H363ZM195 777Q162 777 137.5 801Q113 825 113 859Q113 875 119.5 889.5Q126 904 137.5 915.5Q149 927 163.5 933.5Q178 940 195 940Q229 940 253.5 916Q278 892 278 859Q278 825 253.5 801Q229 777 195 777Z" glyph-name="Idotaccent" horiz-adv-x="383" unicode="&#304;" /><glyph d="M312 527Q300 526 289 522Q278 518 269 508.5Q260 499 255 483.5Q250 468 250 443V94Q250 69 255 53.5Q260 38 269 28.5Q278 19 289 15Q300 11 312 10V0H19V10Q31 11 42 15Q53 19 61.5 28.5Q70 38 75.5 53.5Q81 69 81 94V443Q81 468 75.5 483.5Q70 499 61.5 508.5Q53 518 42 522Q31 526 19 527V537H312ZM169 614Q136 614 111.5 638Q87 662 87 696Q87 712 93.5 726.5Q100 741 111.5 752.5Q123 764 137.5 770.5Q152 777 169 777Q203 777 227.5 753Q252 729 252 696Q252 662 227.5 638Q203 614 169 614Z" glyph-name="Idotaccent.smcp" horiz-adv-x="331" /><glyph d="M363 690Q348 688 334 683Q320 678 309 666.5Q298 655 291.5 635.5Q285 616 285 586V114Q285 84 291.5 64.5Q298 45 309 33.5Q320 22 334 16.5Q348 11 363 10V0H20V10Q35 11 49 16.5Q63 22 74 33.5Q85 45 91.5 64.5Q98 84 98 114V586Q98 616 91.5 635.5Q85 655 74 666.5Q63 678 49 683Q35 688 20 690V700H363ZM249 770 91 811Q66 817 51.5 833.5Q37 850 37 871Q37 894 52.5 909.5Q68 925 91 925Q115 925 137 903L260 770Z" glyph-name="Igrave" horiz-adv-x="383" unicode="&#204;" /><glyph d="M312 527Q300 526 289 522Q278 518 269 508.5Q260 499 255 483.5Q250 468 250 443V94Q250 69 255 53.5Q260 38 269 28.5Q278 19 289 15Q300 11 312 10V0H19V10Q31 11 42 15Q53 19 61.5 28.5Q70 38 75.5 53.5Q81 69 81 94V443Q81 468 75.5 483.5Q70 499 61.5 508.5Q53 518 42 522Q31 526 19 527V537H312ZM224 607 66 648Q41 654 26.5 670.5Q12 687 12 708Q12 731 27.5 746.5Q43 762 66 762Q90 762 112 740L235 607Z" glyph-name="Igrave.smcp" horiz-adv-x="331" /><glyph d="M363 690Q348 688 334 683Q320 678 309 666.5Q298 655 291.5 635.5Q285 616 285 586V114Q285 84 291.5 64.5Q298 45 309 33.5Q320 22 334 16.5Q348 11 363 10V0H20V10Q35 11 49 16.5Q63 22 74 33.5Q85 45 91.5 64.5Q98 84 98 114V586Q98 616 91.5 635.5Q85 655 74 666.5Q63 678 49 683Q35 688 20 690V700H363ZM339 845V814H58V845Z" glyph-name="Imacron" horiz-adv-x="383" unicode="&#298;" /><glyph d="M312 527Q300 526 289 522Q278 518 269 508.5Q260 499 255 483.5Q250 468 250 443V94Q250 69 255 53.5Q260 38 269 28.5Q278 19 289 15Q300 11 312 10V0H19V10Q31 11 42 15Q53 19 61.5 28.5Q70 38 75.5 53.5Q81 69 81 94V443Q81 468 75.5 483.5Q70 499 61.5 508.5Q53 518 42 522Q31 526 19 527V537H312ZM313 682V651H32V682Z" glyph-name="Imacron.smcp" horiz-adv-x="331" /><glyph d="M308 -193Q294 -214 270 -229.5Q246 -245 211 -245Q186 -245 167 -237Q148 -229 135.5 -215.5Q123 -202 117 -184.5Q111 -167 111 -148Q111 -104 141 -63.5Q171 -23 231 0H20V10Q35 11 49 16.5Q63 22 74 33.5Q85 45 91.5 64.5Q98 84 98 114V586Q98 616 91.5 635.5Q85 655 74 666.5Q63 678 49 683Q35 688 20 690V700H363V690Q348 688 334 683Q320 678 309 666.5Q298 655 291.5 635.5Q285 616 285 586V114Q285 84 291.5 64.5Q298 45 309 33.5Q320 22 334 16.5Q348 11 363 10V0H262Q235 -11 217.5 -41Q200 -71 200 -118Q200 -163 215.5 -183Q231 -203 257 -203Q280 -203 300 -186Z" glyph-name="Iogonek" horiz-adv-x="383" unicode="&#302;" /><glyph d="M270 -193Q256 -214 232 -229.5Q208 -245 173 -245Q148 -245 129 -237Q110 -229 97.5 -215.5Q85 -202 79 -184.5Q73 -167 73 -148Q73 -104 103 -63.5Q133 -23 193 0H19V10Q31 11 42 15Q53 19 61.5 28.5Q70 38 75.5 53.5Q81 69 81 94V443Q81 468 75.5 483.5Q70 499 61.5 508.5Q53 518 42 522Q31 526 19 527V537H312V527Q300 526 289 522Q278 518 269 508.5Q260 499 255 483.5Q250 468 250 443V94Q250 69 255 53.5Q260 38 269 28.5Q278 19 289 15Q300 11 312 10V0H224Q197 -11 179.5 -41Q162 -71 162 -118Q162 -163 177.5 -183Q193 -203 219 -203Q242 -203 262 -186Z" glyph-name="Iogonek.smcp" horiz-adv-x="331" /><glyph d="M363 690Q348 688 334 683Q320 678 309 666.5Q298 655 291.5 635.5Q285 616 285 586V114Q285 84 291.5 64.5Q298 45 309 33.5Q320 22 334 16.5Q348 11 363 10V0H20V10Q35 11 49 16.5Q63 22 74 33.5Q85 45 91.5 64.5Q98 84 98 114V586Q98 616 91.5 635.5Q85 655 74 666.5Q63 678 49 683Q35 688 20 690V700H363ZM360 904Q358 878 350 855.5Q342 833 328.5 815.5Q315 798 297 788Q279 778 257 778Q238 778 220 784Q202 790 184.5 797.5Q167 805 149 811.5Q131 818 112 818Q90 818 73.5 808.5Q57 799 48 778L38 780Q40 805 48.5 827.5Q57 850 70.5 867.5Q84 885 102 895Q120 905 142 905Q161 905 178.5 898.5Q196 892 214 884.5Q232 877 249.5 871Q267 865 286 865Q306 865 323.5 874.5Q341 884 350 906Z" glyph-name="Itilde" horiz-adv-x="383" unicode="&#296;" /><glyph d="M312 527Q300 526 289 522Q278 518 269 508.5Q260 499 255 483.5Q250 468 250 443V94Q250 69 255 53.5Q260 38 269 28.5Q278 19 289 15Q300 11 312 10V0H19V10Q31 11 42 15Q53 19 61.5 28.5Q70 38 75.5 53.5Q81 69 81 94V443Q81 468 75.5 483.5Q70 499 61.5 508.5Q53 518 42 522Q31 526 19 527V537H312ZM334 741Q332 715 324 692.5Q316 670 302.5 652.5Q289 635 271 625Q253 615 231 615Q212 615 194 621Q176 627 158.5 634.5Q141 642 123 648.5Q105 655 86 655Q64 655 47.5 645.5Q31 636 22 615L12 617Q14 642 22.5 664.5Q31 687 44.5 704.5Q58 722 76 732Q94 742 116 742Q135 742 152.5 735.5Q170 729 188 721.5Q206 714 223.5 708Q241 702 260 702Q280 702 297.5 711.5Q315 721 324 743Z" glyph-name="Itilde.smcp" horiz-adv-x="331" /><glyph d="M338 32Q338 -22 317 -68Q296 -114 260 -148Q224 -182 175 -201.5Q126 -221 71 -221Q38 -221 9.5 -213.5Q-19 -206 -39.5 -192.5Q-60 -179 -72 -159.5Q-84 -140 -84 -115Q-84 -80 -63 -61.5Q-42 -43 -14 -43Q12 -43 35 -60.5Q58 -78 58 -113Q58 -128 54.5 -142.5Q51 -157 51 -170Q51 -200 84 -200Q97 -200 111 -194Q125 -188 136.5 -175Q148 -162 155 -141Q162 -120 162 -89Q162 -50 156.5 6Q151 62 151 129V584Q151 614 144 633.5Q137 653 125.5 665Q114 677 99 682.5Q84 688 68 690V700H410V690Q396 688 383.5 682.5Q371 677 360.5 665Q350 653 344 633.5Q338 614 338 584Z" glyph-name="J" horiz-adv-x="430" unicode="J" /><glyph d="M60 -191Q-12 -191 -47.5 -164.5Q-83 -138 -83 -103Q-83 -71 -63 -53.5Q-43 -36 -15 -36Q11 -36 29.5 -51.5Q48 -67 48 -99Q48 -111 45 -124Q42 -137 42 -151Q42 -173 68 -173Q85 -173 102.5 -156Q120 -139 120 -104Q120 -78 114 -28.5Q108 21 108 82V440Q108 465 102.5 481.5Q97 498 87.5 507.5Q78 517 65.5 521.5Q53 526 40 527V537H339V527Q328 526 317 521.5Q306 517 297.5 507.5Q289 498 284 481.5Q279 465 279 440V11Q279 -39 258.5 -77Q238 -115 206.5 -140.5Q175 -166 136 -178.5Q97 -191 60 -191Z" glyph-name="J.smcp" horiz-adv-x="356" /><glyph d="M338 32Q338 -22 317 -68Q296 -114 260 -148Q224 -182 175 -201.5Q126 -221 71 -221Q38 -221 9.5 -213.5Q-19 -206 -39.5 -192.5Q-60 -179 -72 -159.5Q-84 -140 -84 -115Q-84 -80 -63 -61.5Q-42 -43 -14 -43Q12 -43 35 -60.5Q58 -78 58 -113Q58 -128 54.5 -142.5Q51 -157 51 -170Q51 -200 84 -200Q97 -200 111 -194Q125 -188 136.5 -175Q148 -162 155 -141Q162 -120 162 -89Q162 -50 156.5 6Q151 62 151 129V584Q151 614 144 633.5Q137 653 125.5 665Q114 677 99 682.5Q84 688 68 690V700H410V690Q396 688 383.5 682.5Q371 677 360.5 665Q350 653 344 633.5Q338 614 338 584ZM245 831 94 776H80L196 906H296L408 776H390Z" glyph-name="Jcircumflex" horiz-adv-x="430" unicode="&#308;" /><glyph d="M60 -191Q-12 -191 -47.5 -164.5Q-83 -138 -83 -103Q-83 -71 -63 -53.5Q-43 -36 -15 -36Q11 -36 29.5 -51.5Q48 -67 48 -99Q48 -111 45 -124Q42 -137 42 -151Q42 -173 68 -173Q85 -173 102.5 -156Q120 -139 120 -104Q120 -78 114 -28.5Q108 21 108 82V440Q108 465 102.5 481.5Q97 498 87.5 507.5Q78 517 65.5 521.5Q53 526 40 527V537H339V527Q328 526 317 521.5Q306 517 297.5 507.5Q289 498 284 481.5Q279 465 279 440V11Q279 -39 258.5 -77Q238 -115 206.5 -140.5Q175 -166 136 -178.5Q97 -191 60 -191ZM193 668 42 613H28L144 743H244L356 613H338Z" glyph-name="Jcircumflex.smcp" horiz-adv-x="356" /><glyph d="M507 0 315 301V316L490 534Q519 570 528.5 597.5Q538 625 533 644.5Q528 664 511.5 675.5Q495 687 473 690V700H743V690Q720 688 695 680Q670 672 643 654.5Q616 637 587 609Q558 581 525 540L447 442L634 146Q656 111 674.5 87Q693 63 709 47.5Q725 32 740 23Q755 14 769 10V0ZM367 690Q351 688 336 683Q321 678 309.5 666.5Q298 655 291 635.5Q284 616 284 586V114Q284 84 291 64.5Q298 45 309.5 33.5Q321 22 336 16.5Q351 11 367 10V0H20V10Q36 11 50.5 16.5Q65 22 75.5 33.5Q86 45 92 64.5Q98 84 98 114V586Q98 616 91.5 635.5Q85 655 74.5 666.5Q64 678 50 683Q36 688 20 690V700H367Z" glyph-name="K" horiz-adv-x="774" unicode="K" /><glyph d="M412 0 278 220V235L396 390Q421 423 429.5 448Q438 473 434 489.5Q430 506 417 515Q404 524 386 527V537H619V527Q572 522 524.5 493.5Q477 465 433 406L392 351L532 126Q550 96 564.5 76Q579 56 592 42.5Q605 29 617 21.5Q629 14 641 10V0ZM313 527Q301 526 289.5 522Q278 518 269.5 508.5Q261 499 255.5 483.5Q250 468 250 443V94Q250 69 256 53.5Q262 38 271.5 28.5Q281 19 293 15Q305 11 318 10V0H19V10Q31 11 42 15Q53 19 61.5 28.5Q70 38 75.5 53.5Q81 69 81 94V443Q81 468 75.5 483.5Q70 499 61.5 508.5Q53 518 42 522Q31 526 19 527V537H313Z" glyph-name="K.smcp" horiz-adv-x="645" /><glyph d="M415 -279Q415 -267 410 -260Q405 -253 396.5 -248.5Q388 -244 377.5 -240.5Q367 -237 357 -232Q336 -221 322 -203Q308 -185 308 -159Q308 -125 331 -100Q354 -75 396 -75Q433 -75 457 -100.5Q481 -126 481 -172Q481 -206 471 -239Q461 -272 442.5 -300Q424 -328 397.5 -348.5Q371 -369 338 -376L332 -361Q345 -358 360 -349.5Q375 -341 387 -329.5Q399 -318 407 -304.5Q415 -291 415 -279ZM507 0 315 301V316L490 534Q519 570 528.5 597.5Q538 625 533 644.5Q528 664 511.5 675.5Q495 687 473 690V700H743V690Q720 688 695 680Q670 672 643 654.5Q616 637 587 609Q558 581 525 540L447 442L634 146Q656 111 674.5 87Q693 63 709 47.5Q725 32 740 23Q755 14 769 10V0ZM367 690Q351 688 336 683Q321 678 309.5 666.5Q298 655 291 635.5Q284 616 284 586V114Q284 84 291 64.5Q298 45 309.5 33.5Q321 22 336 16.5Q351 11 367 10V0H20V10Q36 11 50.5 16.5Q65 22 75.5 33.5Q86 45 92 64.5Q98 84 98 114V586Q98 616 91.5 635.5Q85 655 74.5 666.5Q64 678 50 683Q36 688 20 690V700H367Z" glyph-name="Kcommaaccent" horiz-adv-x="774" unicode="&#310;" /><glyph d="M357 -279Q357 -267 352 -260Q347 -253 338.5 -248.5Q330 -244 319.5 -240.5Q309 -237 299 -232Q278 -221 264 -203Q250 -185 250 -159Q250 -125 273 -100Q296 -75 338 -75Q375 -75 399 -100.5Q423 -126 423 -172Q423 -206 413 -239Q403 -272 384.5 -300Q366 -328 339.5 -348.5Q313 -369 280 -376L274 -361Q287 -358 302 -349.5Q317 -341 329 -329.5Q341 -318 349 -304.5Q357 -291 357 -279ZM412 0 278 220V235L396 390Q421 423 429.5 448Q438 473 434 489.5Q430 506 417 515Q404 524 386 527V537H619V527Q572 522 524.5 493.5Q477 465 433 406L392 351L532 126Q550 96 564.5 76Q579 56 592 42.5Q605 29 617 21.5Q629 14 641 10V0ZM313 527Q301 526 289.5 522Q278 518 269.5 508.5Q261 499 255.5 483.5Q250 468 250 443V94Q250 69 256 53.5Q262 38 271.5 28.5Q281 19 293 15Q305 11 318 10V0H19V10Q31 11 42 15Q53 19 61.5 28.5Q70 38 75.5 53.5Q81 69 81 94V443Q81 468 75.5 483.5Q70 499 61.5 508.5Q53 518 42 522Q31 526 19 527V537H313Z" glyph-name="Kcommaaccent.smcp" horiz-adv-x="645" /><glyph d="M285 21H356Q391 21 431.5 35.5Q472 50 510 79.5Q548 109 580 152.5Q612 196 631 253H649L614 0H20V10Q35 11 49 16.5Q63 22 74 33Q85 44 91.5 63.5Q98 83 98 113V585Q98 615 91.5 634.5Q85 654 74 666Q63 678 49 683Q35 688 20 690V700H369V690Q353 688 338 683Q323 678 311 666Q299 654 292 634.5Q285 615 285 585Z" glyph-name="L" horiz-adv-x="670" unicode="L" /><glyph d="M250 18H296Q330 18 363.5 33.5Q397 49 427 75Q457 101 481.5 136Q506 171 521 210H535L505 0H19V10Q31 11 42 14.5Q53 18 62 27Q71 36 76 52Q81 68 81 93V441Q81 491 62 508Q43 525 19 527V537H317V527Q305 526 293 522Q281 518 271.5 508Q262 498 256 482Q250 466 250 441Z" glyph-name="L.smcp" horiz-adv-x="553" /><glyph d="M285 21H356Q391 21 431.5 35.5Q472 50 510 79.5Q548 109 580 152.5Q612 196 631 253H649L614 0H20V10Q35 11 49 16.5Q63 22 74 33Q85 44 91.5 63.5Q98 83 98 113V585Q98 615 91.5 634.5Q85 654 74 666Q63 678 49 683Q35 688 20 690V700H369V690Q353 688 338 683Q323 678 311 666Q299 654 292 634.5Q285 615 285 585ZM248 903Q270 925 294 925Q317 925 332.5 909.5Q348 894 348 871Q348 850 333.5 833.5Q319 817 294 811L136 770H125Z" glyph-name="Lacute" horiz-adv-x="670" unicode="&#313;" /><glyph d="M250 18H296Q330 18 363.5 33.5Q397 49 427 75Q457 101 481.5 136Q506 171 521 210H535L505 0H19V10Q31 11 42 14.5Q53 18 62 27Q71 36 76 52Q81 68 81 93V441Q81 491 62 508Q43 525 19 527V537H317V527Q305 526 293 522Q281 518 271.5 508Q262 498 256 482Q250 466 250 441ZM224 740Q246 762 270 762Q293 762 308.5 746.5Q324 731 324 708Q324 687 309.5 670.5Q295 654 270 648L112 607H101Z" glyph-name="Lacute.smcp" horiz-adv-x="553" /><glyph d="M285 21H356Q391 21 431.5 35.5Q472 50 510 79.5Q548 109 580 152.5Q612 196 631 253H649L614 0H20V10Q35 11 49 16.5Q63 22 74 33Q85 44 91.5 63.5Q98 83 98 113V585Q98 615 91.5 634.5Q85 654 74 666Q63 678 49 683Q35 688 20 690V700H369V690Q353 688 338 683Q323 678 311 666Q299 654 292 634.5Q285 615 285 585ZM440 455 437 655Q436 693 454.5 710Q473 727 497 727Q519 727 536.5 712Q554 697 554 668Q554 658 550.5 645.5Q547 633 539 616L449 455Z" glyph-name="Lcaron" horiz-adv-x="670" unicode="&#317;" /><glyph d="M250 18H296Q330 18 363.5 33.5Q397 49 427 75Q457 101 481.5 136Q506 171 521 210H535L505 0H19V10Q31 11 42 14.5Q53 18 62 27Q71 36 76 52Q81 68 81 93V441Q81 491 62 508Q43 525 19 527V537H317V527Q305 526 293 522Q281 518 271.5 508Q262 498 256 482Q250 466 250 441ZM380 291 377 491Q376 529 394.5 546Q413 563 437 563Q459 563 476.5 548Q494 533 494 504Q494 494 490.5 481.5Q487 469 479 452L389 291Z" glyph-name="Lcaron.smcp" horiz-adv-x="553" /><glyph d="M368 -279Q368 -267 363 -260Q358 -253 349.5 -248.5Q341 -244 330.5 -240.5Q320 -237 310 -232Q289 -221 275 -203Q261 -185 261 -159Q261 -125 284 -100Q307 -75 349 -75Q386 -75 410 -100.5Q434 -126 434 -172Q434 -206 424 -239Q414 -272 395.5 -300Q377 -328 350.5 -348.5Q324 -369 291 -376L285 -361Q298 -358 313 -349.5Q328 -341 340 -329.5Q352 -318 360 -304.5Q368 -291 368 -279ZM285 21H356Q391 21 431.5 35.5Q472 50 510 79.5Q548 109 580 152.5Q612 196 631 253H649L614 0H20V10Q35 11 49 16.5Q63 22 74 33Q85 44 91.5 63.5Q98 83 98 113V585Q98 615 91.5 634.5Q85 654 74 666Q63 678 49 683Q35 688 20 690V700H369V690Q353 688 338 683Q323 678 311 666Q299 654 292 634.5Q285 615 285 585Z" glyph-name="Lcommaaccent" horiz-adv-x="670" unicode="&#315;" /><glyph d="M312 -279Q312 -267 307 -260Q302 -253 293.5 -248.5Q285 -244 274.5 -240.5Q264 -237 254 -232Q233 -221 219 -203Q205 -185 205 -159Q205 -125 228 -100Q251 -75 293 -75Q330 -75 354 -100.5Q378 -126 378 -172Q378 -206 368 -239Q358 -272 339.5 -300Q321 -328 294.5 -348.5Q268 -369 235 -376L229 -361Q242 -358 257 -349.5Q272 -341 284 -329.5Q296 -318 304 -304.5Q312 -291 312 -279ZM250 18H296Q330 18 363.5 33.5Q397 49 427 75Q457 101 481.5 136Q506 171 521 210H535L505 0H19V10Q31 11 42 14.5Q53 18 62 27Q71 36 76 52Q81 68 81 93V441Q81 491 62 508Q43 525 19 527V537H317V527Q305 526 293 522Q281 518 271.5 508Q262 498 256 482Q250 466 250 441Z" glyph-name="Lcommaaccent.smcp" horiz-adv-x="553" /><glyph d="M429 388Q429 404 435.5 418.5Q442 433 453.5 444.5Q465 456 479.5 462.5Q494 469 511 469Q545 469 569.5 445Q594 421 594 388Q594 354 569.5 330Q545 306 511 306Q478 306 453.5 330Q429 354 429 388ZM285 21H356Q391 21 431.5 35.5Q472 50 510 79.5Q548 109 580 152.5Q612 196 631 253H649L614 0H20V10Q35 11 49 16.5Q63 22 74 33Q85 44 91.5 63.5Q98 83 98 113V585Q98 615 91.5 634.5Q85 654 74 666Q63 678 49 683Q35 688 20 690V700H369V690Q353 688 338 683Q323 678 311 666Q299 654 292 634.5Q285 615 285 585Z" glyph-name="Ldot" horiz-adv-x="670" unicode="&#319;" /><glyph d="M337 311Q337 327 343.5 341.5Q350 356 361.5 367.5Q373 379 387.5 385.5Q402 392 419 392Q453 392 477.5 368Q502 344 502 311Q502 277 477.5 253Q453 229 419 229Q386 229 361.5 253Q337 277 337 311ZM250 18H296Q330 18 363.5 33.5Q397 49 427 75Q457 101 481.5 136Q506 171 521 210H535L505 0H19V10Q31 11 42 14.5Q53 18 62 27Q71 36 76 52Q81 68 81 93V441Q81 491 62 508Q43 525 19 527V537H317V527Q305 526 293 522Q281 518 271.5 508Q262 498 256 482Q250 466 250 441Z" glyph-name="Ldot.smcp" horiz-adv-x="553" /><glyph d="M20 0V10Q35 11 49 16.5Q63 22 74 33Q85 44 91.5 63.5Q98 83 98 113V183L0 115V144L98 212V585Q98 615 91.5 634.5Q85 654 74 666Q63 678 49 683Q35 688 20 690V700H369V690Q353 688 338 683Q323 678 311 666Q299 654 292 634.5Q285 615 285 585V341L478 474V445L285 312V21H356Q391 21 431.5 35.5Q472 50 510 79.5Q548 109 580 152.5Q612 196 631 253H649L614 0Z" glyph-name="Lslash" horiz-adv-x="670" unicode="&#321;" /><glyph d="M19 0V10Q31 11 42 14.5Q53 18 62 27Q71 36 76 52Q81 68 81 93V132L2 79V102L81 155V441Q81 491 62 508Q43 525 19 527V537H317V527Q305 526 293 522Q281 518 271.5 508Q262 498 256 482Q250 466 250 441V269L399 369V344L250 245V18H296Q330 18 363.5 33.5Q397 49 427 75Q457 101 481.5 136Q506 171 521 210H535L505 0Z" glyph-name="Lslash.smcp" horiz-adv-x="550" /><glyph d="M650 578 453 -13H436L260 577L194 238Q174 133 195.5 73Q217 13 288 10V0H10V10Q39 11 62.5 25Q86 39 105.5 67Q125 95 141 138.5Q157 182 169 244L227 531Q234 564 230 592Q226 620 212.5 641.5Q199 663 176 675.5Q153 688 121 690V700H414L535 304L666 700H948V690Q916 688 894 675.5Q872 663 859 641.5Q846 620 842.5 592Q839 564 845 531L911 146Q922 78 956.5 45.5Q991 13 1038 10V0H642V10Q690 12 710.5 44.5Q731 77 720 144Z" glyph-name="M" horiz-adv-x="1043" unicode="M" /><glyph d="M516 439 370 -9H354L214 440L174 234Q153 123 170 68Q187 13 248 10V0H8V10Q33 11 53.5 23.5Q74 36 91.5 62Q109 88 123.5 130Q138 172 150 233L181 386Q192 444 170.5 484Q149 524 93 527V537H354L438 261L526 537H778V527Q722 524 702 483.5Q682 443 692 385L736 131Q747 69 776.5 41Q806 13 844 10V0H505V10Q585 14 566 130Z" glyph-name="M.smcp" horiz-adv-x="852" /><glyph d="M619 -13 153 549 155 229Q155 170 167 129Q179 88 198 62Q217 36 241.5 23.5Q266 11 292 10V0H10V10Q34 11 55 22.5Q76 34 91.5 57.5Q107 81 116.5 118.5Q126 156 126 209L128 513Q128 549 121.5 581Q115 613 100.5 636.5Q86 660 63.5 674Q41 688 10 690V700H277L631 272L628 495Q626 594 590.5 639.5Q555 685 500 690V700H767V690Q659 684 657 495L654 -13Z" glyph-name="N" horiz-adv-x="777" unicode="N" /><glyph d="M499 -9 139 399 138 164Q138 134 145 106.5Q152 79 166 58Q180 37 201 24Q222 11 249 10V0H7V10Q50 12 80 49Q110 86 112 170L115 369Q116 435 91.5 477.5Q67 520 14 527V537H249L509 243L508 367Q508 400 502.5 428.5Q497 457 485 478.5Q473 500 454 512.5Q435 525 407 527V537H633V527Q606 525 587 512.5Q568 500 557 479Q546 458 540.5 429.5Q535 401 535 368L532 -9Z" glyph-name="N.smcp" horiz-adv-x="645" /><glyph d="M619 -13 153 549 155 229Q155 170 167 129Q179 88 198 62Q217 36 241.5 23.5Q266 11 292 10V0H10V10Q34 11 55 22.5Q76 34 91.5 57.5Q107 81 116.5 118.5Q126 156 126 209L128 513Q128 549 121.5 581Q115 613 100.5 636.5Q86 660 63.5 674Q41 688 10 690V700H277L631 272L628 495Q626 594 590.5 639.5Q555 685 500 690V700H767V690Q659 684 657 495L654 -13ZM459 903Q481 925 505 925Q528 925 543.5 909.5Q559 894 559 871Q559 850 544.5 833.5Q530 817 505 811L347 770H336Z" glyph-name="Nacute" horiz-adv-x="777" unicode="&#323;" /><glyph d="M499 -9 139 399 138 164Q138 134 145 106.5Q152 79 166 58Q180 37 201 24Q222 11 249 10V0H7V10Q50 12 80 49Q110 86 112 170L115 369Q116 435 91.5 477.5Q67 520 14 527V537H249L509 243L508 367Q508 400 502.5 428.5Q497 457 485 478.5Q473 500 454 512.5Q435 525 407 527V537H633V527Q606 525 587 512.5Q568 500 557 479Q546 458 540.5 429.5Q535 401 535 368L532 -9ZM382 740Q404 762 428 762Q451 762 466.5 746.5Q482 731 482 708Q482 687 467.5 670.5Q453 654 428 648L270 607H259Z" glyph-name="Nacute.smcp" horiz-adv-x="645" /><glyph d="M619 -13 153 549 155 229Q155 170 167 129Q179 88 198 62Q217 36 241.5 23.5Q266 11 292 10V0H10V10Q34 11 55 22.5Q76 34 91.5 57.5Q107 81 116.5 118.5Q126 156 126 209L128 513Q128 549 121.5 581Q115 613 100.5 636.5Q86 660 63.5 674Q41 688 10 690V700H277L631 272L628 495Q626 594 590.5 639.5Q555 685 500 690V700H767V690Q659 684 657 495L654 -13ZM408 852 559 906H573L457 776H357L245 906H263Z" glyph-name="Ncaron" horiz-adv-x="777" unicode="&#327;" /><glyph d="M499 -9 139 399 138 164Q138 134 145 106.5Q152 79 166 58Q180 37 201 24Q222 11 249 10V0H7V10Q50 12 80 49Q110 86 112 170L115 369Q116 435 91.5 477.5Q67 520 14 527V537H249L509 243L508 367Q508 400 502.5 428.5Q497 457 485 478.5Q473 500 454 512.5Q435 525 407 527V537H633V527Q606 525 587 512.5Q568 500 557 479Q546 458 540.5 429.5Q535 401 535 368L532 -9ZM331 689 482 743H496L380 613H280L168 743H186Z" glyph-name="Ncaron.smcp" horiz-adv-x="645" /><glyph d="M402 -279Q402 -267 397 -260Q392 -253 383.5 -248.5Q375 -244 364.5 -240.5Q354 -237 344 -232Q323 -221 309 -203Q295 -185 295 -159Q295 -125 318 -100Q341 -75 383 -75Q420 -75 444 -100.5Q468 -126 468 -172Q468 -206 458 -239Q448 -272 429.5 -300Q411 -328 384.5 -348.5Q358 -369 325 -376L319 -361Q332 -358 347 -349.5Q362 -341 374 -329.5Q386 -318 394 -304.5Q402 -291 402 -279ZM619 -13 153 549 155 229Q155 170 167 129Q179 88 198 62Q217 36 241.5 23.5Q266 11 292 10V0H10V10Q34 11 55 22.5Q76 34 91.5 57.5Q107 81 116.5 118.5Q126 156 126 209L128 513Q128 549 121.5 581Q115 613 100.5 636.5Q86 660 63.5 674Q41 688 10 690V700H277L631 272L628 495Q626 594 590.5 639.5Q555 685 500 690V700H767V690Q659 684 657 495L654 -13Z" glyph-name="Ncommaaccent" horiz-adv-x="777" unicode="&#325;" /><glyph d="M334 -279Q334 -267 329 -260Q324 -253 315.5 -248.5Q307 -244 296.5 -240.5Q286 -237 276 -232Q255 -221 241 -203Q227 -185 227 -159Q227 -125 250 -100Q273 -75 315 -75Q352 -75 376 -100.5Q400 -126 400 -172Q400 -206 390 -239Q380 -272 361.5 -300Q343 -328 316.5 -348.5Q290 -369 257 -376L251 -361Q264 -358 279 -349.5Q294 -341 306 -329.5Q318 -318 326 -304.5Q334 -291 334 -279ZM499 -9 139 399 138 164Q138 134 145 106.5Q152 79 166 58Q180 37 201 24Q222 11 249 10V0H7V10Q50 12 80 49Q110 86 112 170L115 369Q116 435 91.5 477.5Q67 520 14 527V537H249L509 243L508 367Q508 400 502.5 428.5Q497 457 485 478.5Q473 500 454 512.5Q435 525 407 527V537H633V527Q606 525 587 512.5Q568 500 557 479Q546 458 540.5 429.5Q535 401 535 368L532 -9Z" glyph-name="Ncommaaccent.smcp" horiz-adv-x="645" /><glyph d="M619 -13 153 549 155 229Q155 170 167 129Q179 88 198 62Q217 36 241.5 23.5Q266 11 292 10V0H10V10Q34 11 55 22.5Q76 34 91.5 57.5Q107 81 116.5 118.5Q126 156 126 209L128 513Q128 549 121.5 581Q115 613 100.5 636.5Q86 660 63.5 674Q41 688 10 690V700H277L631 272L628 495Q626 594 590.5 639.5Q555 685 500 690V700H767V690Q659 684 657 495L654 -13ZM572 904Q570 878 562 855.5Q554 833 540.5 815.5Q527 798 509 788Q491 778 469 778Q450 778 432 784Q414 790 396.5 797.5Q379 805 361 811.5Q343 818 324 818Q302 818 285.5 808.5Q269 799 260 778L250 780Q252 805 260.5 827.5Q269 850 282.5 867.5Q296 885 314 895Q332 905 354 905Q373 905 390.5 898.5Q408 892 426 884.5Q444 877 461.5 871Q479 865 498 865Q518 865 535.5 874.5Q553 884 562 906Z" glyph-name="Ntilde" horiz-adv-x="777" unicode="&#209;" /><glyph d="M499 -9 139 399 138 164Q138 134 145 106.5Q152 79 166 58Q180 37 201 24Q222 11 249 10V0H7V10Q50 12 80 49Q110 86 112 170L115 369Q116 435 91.5 477.5Q67 520 14 527V537H249L509 243L508 367Q508 400 502.5 428.5Q497 457 485 478.5Q473 500 454 512.5Q435 525 407 527V537H633V527Q606 525 587 512.5Q568 500 557 479Q546 458 540.5 429.5Q535 401 535 368L532 -9ZM495 741Q493 715 485 692.5Q477 670 463.5 652.5Q450 635 432 625Q414 615 392 615Q373 615 355 621Q337 627 319.5 634.5Q302 642 284 648.5Q266 655 247 655Q225 655 208.5 645.5Q192 636 183 615L173 617Q175 642 183.5 664.5Q192 687 205.5 704.5Q219 722 237 732Q255 742 277 742Q296 742 313.5 735.5Q331 729 349 721.5Q367 714 384.5 708Q402 702 421 702Q441 702 458.5 711.5Q476 721 485 743Z" glyph-name="Ntilde.smcp" horiz-adv-x="645" /><glyph d="M413 1Q450 1 481 24Q512 47 535 91Q558 135 571 199.5Q584 264 584 347Q584 437 569 503.5Q554 570 529.5 613Q505 656 472.5 677Q440 698 406 698Q370 698 338.5 675Q307 652 283.5 607.5Q260 563 247 498.5Q234 434 234 352Q234 262 249 196Q264 130 289 86.5Q314 43 346.5 22Q379 1 413 1ZM407 -21Q329 -21 260 7.5Q191 36 140 86Q89 136 59.5 203.5Q30 271 30 348Q30 426 60.5 494Q91 562 143.5 612.5Q196 663 265.5 691.5Q335 720 413 720Q491 720 559.5 691.5Q628 663 679 613Q730 563 760 495.5Q790 428 790 351Q790 273 759.5 205Q729 137 676.5 86.5Q624 36 554.5 7.5Q485 -21 407 -21Z" glyph-name="O" horiz-adv-x="820" unicode="O" /><glyph d="M336 2Q363 2 384.5 20Q406 38 421.5 72.5Q437 107 445.5 156Q454 205 454 267Q454 399 418 466.5Q382 534 331 534Q276 534 243.5 463Q211 392 211 269Q211 138 247.5 70Q284 2 336 2ZM330 -17Q268 -17 213 5Q158 27 116.5 65Q75 103 51 155Q27 207 27 266Q27 327 52 379.5Q77 432 119.5 470.5Q162 509 218 531Q274 553 336 553Q397 553 452 531Q507 509 548.5 470.5Q590 432 614.5 380.5Q639 329 639 270Q639 209 614 156.5Q589 104 546.5 65.5Q504 27 448 5Q392 -17 330 -17Z" glyph-name="O.smcp" horiz-adv-x="667" /><glyph d="M515 0Q487 -8 460 -11Q433 -14 407 -14Q329 -14 260 14Q191 42 140 91Q89 140 59.5 206Q30 272 30 348Q30 424 60.5 490.5Q91 557 143.5 606Q196 655 265.5 683Q335 711 413 711Q457 711 504 700H1029L1059 513H1044Q1019 550 988.5 580.5Q958 611 923.5 633Q889 655 851.5 667Q814 679 776 679H730V380H770Q801 380 830 390.5Q859 401 881.5 418.5Q904 436 919 459Q934 482 938 508H952V228H938Q933 255 917.5 279Q902 303 879 321Q856 339 828 349Q800 359 770 359H730V21H796Q841 21 883 37Q925 53 961 80.5Q997 108 1024.5 144.5Q1052 181 1067 221H1084L1060 0ZM413 8Q437 8 460.5 17Q484 26 502.5 44.5Q521 63 532.5 91.5Q544 120 544 158V539Q544 581 532 610Q520 639 500.5 656.5Q481 674 456 681.5Q431 689 406 689Q370 689 338.5 666.5Q307 644 283.5 601Q260 558 247 495Q234 432 234 352Q234 264 249 199Q264 134 289 91.5Q314 49 346.5 28.5Q379 8 413 8Z" glyph-name="OE" horiz-adv-x="1120" unicode="&#338;" /><glyph d="M403 0Q385 -5 365.5 -7.5Q346 -10 325 -10Q259 -10 204.5 12.5Q150 35 110.5 73Q71 111 49 161Q27 211 27 267Q27 323 49 373Q71 423 111 461Q151 499 207 521.5Q263 544 330 544Q347 544 362 542Q377 540 391 537H847L867 388H856Q839 412 813.5 435.5Q788 459 758 477.5Q728 496 695 507.5Q662 519 629 519H605V294H631Q653 294 674.5 302.5Q696 311 713.5 325.5Q731 340 743.5 358Q756 376 760 396H772V170H760Q757 188 745 207Q733 226 715.5 241Q698 256 676.5 266Q655 276 631 276H605V18H635Q672 18 708.5 32Q745 46 776.5 68.5Q808 91 832.5 119Q857 147 871 175H886L860 0ZM339 8Q354 8 371 14Q388 20 402.5 34Q417 48 426.5 72.5Q436 97 436 135V395Q436 440 424.5 466Q413 492 396.5 505.5Q380 519 363 523Q346 527 334 527Q307 527 284.5 512.5Q262 498 245.5 467Q229 436 220 386.5Q211 337 211 267Q211 198 222 149Q233 100 251 68.5Q269 37 292 22.5Q315 8 339 8Z" glyph-name="OE.smcp" horiz-adv-x="903" /><glyph d="M413 1Q450 1 481 24Q512 47 535 91Q558 135 571 199.5Q584 264 584 347Q584 437 569 503.5Q554 570 529.5 613Q505 656 472.5 677Q440 698 406 698Q370 698 338.5 675Q307 652 283.5 607.5Q260 563 247 498.5Q234 434 234 352Q234 262 249 196Q264 130 289 86.5Q314 43 346.5 22Q379 1 413 1ZM407 -21Q329 -21 260 7.5Q191 36 140 86Q89 136 59.5 203.5Q30 271 30 348Q30 426 60.5 494Q91 562 143.5 612.5Q196 663 265.5 691.5Q335 720 413 720Q491 720 559.5 691.5Q628 663 679 613Q730 563 760 495.5Q790 428 790 351Q790 273 759.5 205Q729 137 676.5 86.5Q624 36 554.5 7.5Q485 -21 407 -21ZM462 903Q484 925 508 925Q531 925 546.5 909.5Q562 894 562 871Q562 850 547.5 833.5Q533 817 508 811L350 770H339Z" glyph-name="Oacute" horiz-adv-x="820" unicode="&#211;" /><glyph d="M336 2Q363 2 384.5 20Q406 38 421.5 72.5Q437 107 445.5 156Q454 205 454 267Q454 399 418 466.5Q382 534 331 534Q276 534 243.5 463Q211 392 211 269Q211 138 247.5 70Q284 2 336 2ZM330 -17Q268 -17 213 5Q158 27 116.5 65Q75 103 51 155Q27 207 27 266Q27 327 52 379.5Q77 432 119.5 470.5Q162 509 218 531Q274 553 336 553Q397 553 452 531Q507 509 548.5 470.5Q590 432 614.5 380.5Q639 329 639 270Q639 209 614 156.5Q589 104 546.5 65.5Q504 27 448 5Q392 -17 330 -17ZM385 740Q407 762 431 762Q454 762 469.5 746.5Q485 731 485 708Q485 687 470.5 670.5Q456 654 431 648L273 607H262Z" glyph-name="Oacute.smcp" horiz-adv-x="667" /><glyph d="M413 1Q450 1 481 24Q512 47 535 91Q558 135 571 199.5Q584 264 584 347Q584 437 569 503.5Q554 570 529.5 613Q505 656 472.5 677Q440 698 406 698Q370 698 338.5 675Q307 652 283.5 607.5Q260 563 247 498.5Q234 434 234 352Q234 262 249 196Q264 130 289 86.5Q314 43 346.5 22Q379 1 413 1ZM407 -21Q329 -21 260 7.5Q191 36 140 86Q89 136 59.5 203.5Q30 271 30 348Q30 426 60.5 494Q91 562 143.5 612.5Q196 663 265.5 691.5Q335 720 413 720Q491 720 559.5 691.5Q628 663 679 613Q730 563 760 495.5Q790 428 790 351Q790 273 759.5 205Q729 137 676.5 86.5Q624 36 554.5 7.5Q485 -21 407 -21ZM410 779Q379 779 352 788Q325 797 305.5 814Q286 831 275 856.5Q264 882 264 915H280Q285 887 319 872Q353 857 410 857Q467 857 501.5 872Q536 887 541 915H557Q557 882 545.5 856.5Q534 831 514.5 814Q495 797 468 788Q441 779 410 779Z" glyph-name="Obreve" horiz-adv-x="820" unicode="&#334;" /><glyph d="M336 2Q363 2 384.5 20Q406 38 421.5 72.5Q437 107 445.5 156Q454 205 454 267Q454 399 418 466.5Q382 534 331 534Q276 534 243.5 463Q211 392 211 269Q211 138 247.5 70Q284 2 336 2ZM330 -17Q268 -17 213 5Q158 27 116.5 65Q75 103 51 155Q27 207 27 266Q27 327 52 379.5Q77 432 119.5 470.5Q162 509 218 531Q274 553 336 553Q397 553 452 531Q507 509 548.5 470.5Q590 432 614.5 380.5Q639 329 639 270Q639 209 614 156.5Q589 104 546.5 65.5Q504 27 448 5Q392 -17 330 -17ZM334 616Q303 616 276 625Q249 634 229.5 651Q210 668 199 693.5Q188 719 188 752H204Q209 724 243 709Q277 694 334 694Q391 694 425.5 709Q460 724 465 752H481Q481 719 469.5 693.5Q458 668 438.5 651Q419 634 392 625Q365 616 334 616Z" glyph-name="Obreve.smcp" horiz-adv-x="667" /><glyph d="M413 1Q450 1 481 24Q512 47 535 91Q558 135 571 199.5Q584 264 584 347Q584 437 569 503.5Q554 570 529.5 613Q505 656 472.5 677Q440 698 406 698Q370 698 338.5 675Q307 652 283.5 607.5Q260 563 247 498.5Q234 434 234 352Q234 262 249 196Q264 130 289 86.5Q314 43 346.5 22Q379 1 413 1ZM407 -21Q329 -21 260 7.5Q191 36 140 86Q89 136 59.5 203.5Q30 271 30 348Q30 426 60.5 494Q91 562 143.5 612.5Q196 663 265.5 691.5Q335 720 413 720Q491 720 559.5 691.5Q628 663 679 613Q730 563 760 495.5Q790 428 790 351Q790 273 759.5 205Q729 137 676.5 86.5Q624 36 554.5 7.5Q485 -21 407 -21ZM412 831 261 776H247L363 906H463L575 776H557Z" glyph-name="Ocircumflex" horiz-adv-x="820" unicode="&#212;" /><glyph d="M336 2Q363 2 384.5 20Q406 38 421.5 72.5Q437 107 445.5 156Q454 205 454 267Q454 399 418 466.5Q382 534 331 534Q276 534 243.5 463Q211 392 211 269Q211 138 247.5 70Q284 2 336 2ZM330 -17Q268 -17 213 5Q158 27 116.5 65Q75 103 51 155Q27 207 27 266Q27 327 52 379.5Q77 432 119.5 470.5Q162 509 218 531Q274 553 336 553Q397 553 452 531Q507 509 548.5 470.5Q590 432 614.5 380.5Q639 329 639 270Q639 209 614 156.5Q589 104 546.5 65.5Q504 27 448 5Q392 -17 330 -17ZM336 668 185 613H171L287 743H387L499 613H481Z" glyph-name="Ocircumflex.smcp" horiz-adv-x="667" /><glyph d="M413 1Q450 1 481 24Q512 47 535 91Q558 135 571 199.5Q584 264 584 347Q584 437 569 503.5Q554 570 529.5 613Q505 656 472.5 677Q440 698 406 698Q370 698 338.5 675Q307 652 283.5 607.5Q260 563 247 498.5Q234 434 234 352Q234 262 249 196Q264 130 289 86.5Q314 43 346.5 22Q379 1 413 1ZM407 -21Q329 -21 260 7.5Q191 36 140 86Q89 136 59.5 203.5Q30 271 30 348Q30 426 60.5 494Q91 562 143.5 612.5Q196 663 265.5 691.5Q335 720 413 720Q491 720 559.5 691.5Q628 663 679 613Q730 563 760 495.5Q790 428 790 351Q790 273 759.5 205Q729 137 676.5 86.5Q624 36 554.5 7.5Q485 -21 407 -21ZM514 777Q480 777 456 801Q432 825 432 859Q432 875 438.5 889.5Q445 904 456 915.5Q467 927 482 933.5Q497 940 514 940Q548 940 572.5 916Q597 892 597 859Q597 825 572.5 801Q548 777 514 777ZM304 777Q271 777 246.5 801Q222 825 222 859Q222 875 228.5 889.5Q235 904 246.5 915.5Q258 927 272.5 933.5Q287 940 304 940Q339 940 363 916Q387 892 387 859Q387 825 363 801Q339 777 304 777Z" glyph-name="Odieresis" horiz-adv-x="820" unicode="&#214;" /><glyph d="M336 2Q363 2 384.5 20Q406 38 421.5 72.5Q437 107 445.5 156Q454 205 454 267Q454 399 418 466.5Q382 534 331 534Q276 534 243.5 463Q211 392 211 269Q211 138 247.5 70Q284 2 336 2ZM330 -17Q268 -17 213 5Q158 27 116.5 65Q75 103 51 155Q27 207 27 266Q27 327 52 379.5Q77 432 119.5 470.5Q162 509 218 531Q274 553 336 553Q397 553 452 531Q507 509 548.5 470.5Q590 432 614.5 380.5Q639 329 639 270Q639 209 614 156.5Q589 104 546.5 65.5Q504 27 448 5Q392 -17 330 -17ZM438 614Q404 614 380 638Q356 662 356 696Q356 712 362.5 726.5Q369 741 380 752.5Q391 764 406 770.5Q421 777 438 777Q472 777 496.5 753Q521 729 521 696Q521 662 496.5 638Q472 614 438 614ZM228 614Q195 614 170.5 638Q146 662 146 696Q146 712 152.5 726.5Q159 741 170.5 752.5Q182 764 196.5 770.5Q211 777 228 777Q263 777 287 753Q311 729 311 696Q311 662 287 638Q263 614 228 614Z" glyph-name="Odieresis.smcp" horiz-adv-x="667" /><glyph d="M413 1Q450 1 481 24Q512 47 535 91Q558 135 571 199.5Q584 264 584 347Q584 437 569 503.5Q554 570 529.5 613Q505 656 472.5 677Q440 698 406 698Q370 698 338.5 675Q307 652 283.5 607.5Q260 563 247 498.5Q234 434 234 352Q234 262 249 196Q264 130 289 86.5Q314 43 346.5 22Q379 1 413 1ZM407 -21Q329 -21 260 7.5Q191 36 140 86Q89 136 59.5 203.5Q30 271 30 348Q30 426 60.5 494Q91 562 143.5 612.5Q196 663 265.5 691.5Q335 720 413 720Q491 720 559.5 691.5Q628 663 679 613Q730 563 760 495.5Q790 428 790 351Q790 273 759.5 205Q729 137 676.5 86.5Q624 36 554.5 7.5Q485 -21 407 -21ZM464 770 306 811Q281 817 266.5 833.5Q252 850 252 871Q252 894 267.5 909.5Q283 925 306 925Q330 925 352 903L475 770Z" glyph-name="Ograve" horiz-adv-x="820" unicode="&#210;" /><glyph d="M336 2Q363 2 384.5 20Q406 38 421.5 72.5Q437 107 445.5 156Q454 205 454 267Q454 399 418 466.5Q382 534 331 534Q276 534 243.5 463Q211 392 211 269Q211 138 247.5 70Q284 2 336 2ZM330 -17Q268 -17 213 5Q158 27 116.5 65Q75 103 51 155Q27 207 27 266Q27 327 52 379.5Q77 432 119.5 470.5Q162 509 218 531Q274 553 336 553Q397 553 452 531Q507 509 548.5 470.5Q590 432 614.5 380.5Q639 329 639 270Q639 209 614 156.5Q589 104 546.5 65.5Q504 27 448 5Q392 -17 330 -17ZM387 607 229 648Q204 654 189.5 670.5Q175 687 175 708Q175 731 190.5 746.5Q206 762 229 762Q253 762 275 740L398 607Z" glyph-name="Ograve.smcp" horiz-adv-x="667" /><glyph d="M413 1Q450 1 481 24Q512 47 535 91Q558 135 571 199.5Q584 264 584 347Q584 437 569 503.5Q554 570 529.5 613Q505 656 472.5 677Q440 698 406 698Q370 698 338.5 675Q307 652 283.5 607.5Q260 563 247 498.5Q234 434 234 352Q234 262 249 196Q264 130 289 86.5Q314 43 346.5 22Q379 1 413 1ZM407 -21Q329 -21 260 7.5Q191 36 140 86Q89 136 59.5 203.5Q30 271 30 348Q30 426 60.5 494Q91 562 143.5 612.5Q196 663 265.5 691.5Q335 720 413 720Q491 720 559.5 691.5Q628 663 679 613Q730 563 760 495.5Q790 428 790 351Q790 273 759.5 205Q729 137 676.5 86.5Q624 36 554.5 7.5Q485 -21 407 -21ZM342 886Q353 903 367 911Q381 919 395 919Q413 919 425.5 906.5Q438 894 438 877Q438 861 426 846Q414 831 389 820L283 775H273ZM513 886Q523 903 537 911Q551 919 565 919Q584 919 596 906.5Q608 894 608 877Q608 861 596.5 846Q585 831 559 820L453 775H443Z" glyph-name="Ohungarumlaut" horiz-adv-x="820" unicode="&#336;" /><glyph d="M336 2Q363 2 384.5 20Q406 38 421.5 72.5Q437 107 445.5 156Q454 205 454 267Q454 399 418 466.5Q382 534 331 534Q276 534 243.5 463Q211 392 211 269Q211 138 247.5 70Q284 2 336 2ZM330 -17Q268 -17 213 5Q158 27 116.5 65Q75 103 51 155Q27 207 27 266Q27 327 52 379.5Q77 432 119.5 470.5Q162 509 218 531Q274 553 336 553Q397 553 452 531Q507 509 548.5 470.5Q590 432 614.5 380.5Q639 329 639 270Q639 209 614 156.5Q589 104 546.5 65.5Q504 27 448 5Q392 -17 330 -17ZM284 723Q295 740 309 748Q323 756 337 756Q355 756 367.5 743.5Q380 731 380 714Q380 698 368 683Q356 668 331 657L225 612H215ZM455 723Q465 740 479 748Q493 756 507 756Q526 756 538 743.5Q550 731 550 714Q550 698 538.5 683Q527 668 501 657L395 612H385Z" glyph-name="Ohungarumlaut.smcp" horiz-adv-x="667" /><glyph d="M413 1Q450 1 481 24Q512 47 535 91Q558 135 571 199.5Q584 264 584 347Q584 437 569 503.5Q554 570 529.5 613Q505 656 472.5 677Q440 698 406 698Q370 698 338.5 675Q307 652 283.5 607.5Q260 563 247 498.5Q234 434 234 352Q234 262 249 196Q264 130 289 86.5Q314 43 346.5 22Q379 1 413 1ZM407 -21Q329 -21 260 7.5Q191 36 140 86Q89 136 59.5 203.5Q30 271 30 348Q30 426 60.5 494Q91 562 143.5 612.5Q196 663 265.5 691.5Q335 720 413 720Q491 720 559.5 691.5Q628 663 679 613Q730 563 760 495.5Q790 428 790 351Q790 273 759.5 205Q729 137 676.5 86.5Q624 36 554.5 7.5Q485 -21 407 -21ZM553 845V814H272V845Z" glyph-name="Omacron" horiz-adv-x="820" unicode="&#332;" /><glyph d="M336 2Q363 2 384.5 20Q406 38 421.5 72.5Q437 107 445.5 156Q454 205 454 267Q454 399 418 466.5Q382 534 331 534Q276 534 243.5 463Q211 392 211 269Q211 138 247.5 70Q284 2 336 2ZM330 -17Q268 -17 213 5Q158 27 116.5 65Q75 103 51 155Q27 207 27 266Q27 327 52 379.5Q77 432 119.5 470.5Q162 509 218 531Q274 553 336 553Q397 553 452 531Q507 509 548.5 470.5Q590 432 614.5 380.5Q639 329 639 270Q639 209 614 156.5Q589 104 546.5 65.5Q504 27 448 5Q392 -17 330 -17ZM477 682V651H196V682Z" glyph-name="Omacron.smcp" horiz-adv-x="667" /><glyph d="M413 1Q450 1 481 24Q512 47 535 91Q558 135 571 199.5Q584 264 584 347Q584 442 567 513L259 158Q283 78 325 39.5Q367 1 413 1ZM234 352Q234 255 252 186L560 540Q536 621 494.5 659.5Q453 698 406 698Q370 698 338.5 675Q307 652 283.5 607.5Q260 563 247 498.5Q234 434 234 352ZM407 -21Q340 -21 280 0Q220 21 172 58L117 -5H86L154 73Q97 124 63.5 194.5Q30 265 30 348Q30 426 60.5 494Q91 562 143.5 612.5Q196 663 265.5 691.5Q335 720 413 720Q479 720 539 699Q599 678 647 641L703 705H734L665 626Q723 575 756.5 504.5Q790 434 790 351Q790 273 759.5 205Q729 137 676.5 86.5Q624 36 554.5 7.5Q485 -21 407 -21Z" glyph-name="Oslash" horiz-adv-x="820" unicode="&#216;" /><glyph d="M336 2Q363 2 384.5 20Q406 38 421.5 72.5Q437 107 445.5 156Q454 205 454 267Q454 330 445 380L226 129Q243 66 272 34Q301 2 336 2ZM211 269Q211 204 220 156L439 407Q423 470 394.5 502Q366 534 331 534Q276 534 243.5 463Q211 392 211 269ZM330 -17Q279 -17 233 -2Q187 13 149 39L110 -5H81L131 53Q83 91 55 146Q27 201 27 266Q27 327 52 379.5Q77 432 119.5 470.5Q162 509 218 531Q274 553 336 553Q387 553 433 538Q479 523 517 497L556 542H586L535 483Q583 444 611 389Q639 334 639 270Q639 209 614 156.5Q589 104 546.5 65.5Q504 27 448 5Q392 -17 330 -17Z" glyph-name="Oslash.smcp" horiz-adv-x="666" /><glyph d="M413 1Q450 1 481 24Q512 47 535 91Q558 135 571 199.5Q584 264 584 347Q584 437 569 503.5Q554 570 529.5 613Q505 656 472.5 677Q440 698 406 698Q370 698 338.5 675Q307 652 283.5 607.5Q260 563 247 498.5Q234 434 234 352Q234 262 249 196Q264 130 289 86.5Q314 43 346.5 22Q379 1 413 1ZM407 -21Q329 -21 260 7.5Q191 36 140 86Q89 136 59.5 203.5Q30 271 30 348Q30 426 60.5 494Q91 562 143.5 612.5Q196 663 265.5 691.5Q335 720 413 720Q491 720 559.5 691.5Q628 663 679 613Q730 563 760 495.5Q790 428 790 351Q790 273 759.5 205Q729 137 676.5 86.5Q624 36 554.5 7.5Q485 -21 407 -21ZM574 904Q572 878 564 855.5Q556 833 542.5 815.5Q529 798 511 788Q493 778 471 778Q452 778 434 784Q416 790 398.5 797.5Q381 805 363 811.5Q345 818 326 818Q304 818 287.5 808.5Q271 799 262 778L252 780Q254 805 262.5 827.5Q271 850 284.5 867.5Q298 885 316 895Q334 905 356 905Q375 905 392.5 898.5Q410 892 428 884.5Q446 877 463.5 871Q481 865 500 865Q520 865 537.5 874.5Q555 884 564 906Z" glyph-name="Otilde" horiz-adv-x="820" unicode="&#213;" /><glyph d="M336 2Q363 2 384.5 20Q406 38 421.5 72.5Q437 107 445.5 156Q454 205 454 267Q454 399 418 466.5Q382 534 331 534Q276 534 243.5 463Q211 392 211 269Q211 138 247.5 70Q284 2 336 2ZM330 -17Q268 -17 213 5Q158 27 116.5 65Q75 103 51 155Q27 207 27 266Q27 327 52 379.5Q77 432 119.5 470.5Q162 509 218 531Q274 553 336 553Q397 553 452 531Q507 509 548.5 470.5Q590 432 614.5 380.5Q639 329 639 270Q639 209 614 156.5Q589 104 546.5 65.5Q504 27 448 5Q392 -17 330 -17ZM498 741Q496 715 488 692.5Q480 670 466.5 652.5Q453 635 435 625Q417 615 395 615Q376 615 358 621Q340 627 322.5 634.5Q305 642 287 648.5Q269 655 250 655Q228 655 211.5 645.5Q195 636 186 615L176 617Q178 642 186.5 664.5Q195 687 208.5 704.5Q222 722 240 732Q258 742 280 742Q299 742 316.5 735.5Q334 729 352 721.5Q370 714 387.5 708Q405 702 424 702Q444 702 461.5 711.5Q479 721 488 743Z" glyph-name="Otilde.smcp" horiz-adv-x="667" /><glyph d="M284 284H313Q391 284 428.5 337.5Q466 391 466 486Q466 679 324 679H284ZM367 0H20V10Q35 11 49 16.5Q63 22 74 33.5Q85 45 91.5 64.5Q98 84 98 114V590Q98 620 91.5 639Q85 658 74 668.5Q63 679 49 683.5Q35 688 20 690V700H356Q431 700 487 683.5Q543 667 580 638.5Q617 610 635.5 570.5Q654 531 654 486Q654 438 633 397Q612 356 573 325.5Q534 295 477.5 277.5Q421 260 349 260H284V114Q284 84 291 64.5Q298 45 309.5 33.5Q321 22 336 16.5Q351 11 367 10Z" glyph-name="P" horiz-adv-x="673" unicode="P" /><glyph d="M250 214H260Q317 214 344.5 255.5Q372 297 372 371Q372 446 344.5 482Q317 518 269 518H250ZM318 0H19V10Q44 12 62.5 29Q81 46 81 94V447Q81 471 76 486.5Q71 502 62.5 510.5Q54 519 42.5 522.5Q31 526 19 527V537H294Q355 537 401 524.5Q447 512 478 489.5Q509 467 524 436Q539 405 539 369Q539 332 522 300Q505 268 473 244Q441 220 394.5 206.5Q348 193 288 193H250V96Q250 71 255.5 55Q261 39 270.5 29.5Q280 20 292.5 15.5Q305 11 318 10Z" glyph-name="P.smcp" horiz-adv-x="566" /><glyph d="M234 352Q234 262 249 196Q264 130 289 86.5Q314 43 346.5 22Q379 1 413 1Q450 1 481 24Q512 47 535 91Q558 135 571 199.5Q584 264 584 347Q584 437 569 503.5Q554 570 529 613Q504 656 472 677Q440 698 406 698Q370 698 338.5 675Q307 652 283.5 607.5Q260 563 247 498.5Q234 434 234 352ZM530 -292Q483 -292 444 -278.5Q405 -265 369 -249.5Q333 -234 297.5 -220.5Q262 -207 223 -207Q197 -207 177.5 -214Q158 -221 143 -233L132 -228Q154 -186 183.5 -151.5Q213 -117 247 -90.5Q281 -64 316 -46Q351 -28 384 -20Q310 -16 245.5 14Q181 44 133 93.5Q85 143 57.5 208.5Q30 274 30 348Q30 426 61 494Q92 562 144.5 612.5Q197 663 266.5 691.5Q336 720 413 720Q491 720 559.5 691.5Q628 663 679 613Q730 563 760 495.5Q790 428 790 351Q790 288 770 231.5Q750 175 713.5 128Q677 81 625 46.5Q573 12 510 -7Q475 -18 444.5 -25.5Q414 -33 385.5 -42Q357 -51 330 -63.5Q303 -76 274 -96Q324 -83 362.5 -93.5Q401 -104 436.5 -121.5Q472 -139 509.5 -155.5Q547 -172 596 -172Q635 -172 663 -154Q691 -136 710 -84L725 -87Q716 -129 700.5 -166.5Q685 -204 662 -231.5Q639 -259 606 -275.5Q573 -292 530 -292Z" glyph-name="Q" horiz-adv-x="820" unicode="Q" /><glyph d="M454 267Q454 399 418 466.5Q382 534 331 534Q276 534 243.5 463Q211 392 211 269Q211 138 247.5 70Q284 2 336 2Q363 2 384.5 20Q406 38 421.5 72.5Q437 107 445.5 156Q454 205 454 267ZM423 -238Q387 -238 357.5 -228Q328 -218 300.5 -205.5Q273 -193 246 -183Q219 -173 188 -173Q146 -173 124 -195L114 -187Q129 -158 150.5 -131Q172 -104 197.5 -81.5Q223 -59 252 -42Q281 -25 310 -17Q254 -15 202.5 8.5Q151 32 112 70.5Q73 109 50 159.5Q27 210 27 266Q27 327 52 379.5Q77 432 120 470.5Q163 509 218.5 531Q274 553 336 553Q397 553 452 531Q507 509 548.5 470.5Q590 432 614.5 380.5Q639 329 639 270Q639 215 619 168.5Q599 122 565 86Q531 50 487.5 25Q444 0 396 -10Q346 -21 304.5 -38.5Q263 -56 236 -77Q275 -70 303.5 -78.5Q332 -87 357.5 -100Q383 -113 410 -125Q437 -137 473 -137Q503 -137 530.5 -123.5Q558 -110 573 -75L588 -78Q577 -110 563.5 -138.5Q550 -167 530.5 -189.5Q511 -212 485 -225Q459 -238 423 -238Z" glyph-name="Q.smcp" horiz-adv-x="667" /><glyph d="M358 0H20V10Q35 11 49 16.5Q63 22 74 34Q85 46 91.5 66Q98 86 98 116V585Q98 615 91.5 634.5Q85 654 74 666Q63 678 49 683Q35 688 20 690V700H370Q439 700 492 684.5Q545 669 580.5 642Q616 615 634 579Q652 543 652 501Q652 442 617.5 395Q583 348 520 321L621 129Q637 96 651.5 75Q666 54 679.5 41Q693 28 706 21Q719 14 734 10V0H483L337 290H284V116Q284 86 290 66Q296 46 306.5 34Q317 22 330.5 16.5Q344 11 358 10ZM284 313H320Q392 313 428 363Q464 413 464 501Q464 679 331 679H284Z" glyph-name="R" horiz-adv-x="744" unicode="R" /><glyph d="M307 0H19V10Q31 11 42 15.5Q53 20 62 30Q71 40 76 56.5Q81 73 81 97V441Q81 465 76 481Q71 497 62 507Q53 517 42 521.5Q31 526 19 527V537H314Q371 537 414 525Q457 513 486 492Q515 471 529.5 443Q544 415 544 383Q544 339 517.5 303.5Q491 268 443 246L522 95Q543 55 560.5 36Q578 17 602 8V0H393L284 218H250V97Q250 73 255 56.5Q260 40 268 30Q276 20 286 15.5Q296 11 307 10ZM250 239H272Q323 239 349.5 278.5Q376 318 376 385Q376 454 350 486.5Q324 519 276 519H250Z" glyph-name="R.smcp" horiz-adv-x="609" /><glyph d="M358 0H20V10Q35 11 49 16.5Q63 22 74 34Q85 46 91.5 66Q98 86 98 116V585Q98 615 91.5 634.5Q85 654 74 666Q63 678 49 683Q35 688 20 690V700H370Q439 700 492 684.5Q545 669 580.5 642Q616 615 634 579Q652 543 652 501Q652 442 617.5 395Q583 348 520 321L621 129Q637 96 651.5 75Q666 54 679.5 41Q693 28 706 21Q719 14 734 10V0H483L337 290H284V116Q284 86 290 66Q296 46 306.5 34Q317 22 330.5 16.5Q344 11 358 10ZM284 313H320Q392 313 428 363Q464 413 464 501Q464 679 331 679H284ZM410 903Q432 925 456 925Q479 925 494.5 909.5Q510 894 510 871Q510 850 495.5 833.5Q481 817 456 811L298 770H287Z" glyph-name="Racute" horiz-adv-x="744" unicode="&#340;" /><glyph d="M307 0H19V10Q31 11 42 15.5Q53 20 62 30Q71 40 76 56.5Q81 73 81 97V441Q81 465 76 481Q71 497 62 507Q53 517 42 521.5Q31 526 19 527V537H314Q371 537 414 525Q457 513 486 492Q515 471 529.5 443Q544 415 544 383Q544 339 517.5 303.5Q491 268 443 246L522 95Q543 55 560.5 36Q578 17 602 8V0H393L284 218H250V97Q250 73 255 56.5Q260 40 268 30Q276 20 286 15.5Q296 11 307 10ZM250 239H272Q323 239 349.5 278.5Q376 318 376 385Q376 454 350 486.5Q324 519 276 519H250ZM353 740Q375 762 399 762Q422 762 437.5 746.5Q453 731 453 708Q453 687 438.5 670.5Q424 654 399 648L241 607H230Z" glyph-name="Racute.smcp" horiz-adv-x="609" /><glyph d="M358 0H20V10Q35 11 49 16.5Q63 22 74 34Q85 46 91.5 66Q98 86 98 116V585Q98 615 91.5 634.5Q85 654 74 666Q63 678 49 683Q35 688 20 690V700H370Q439 700 492 684.5Q545 669 580.5 642Q616 615 634 579Q652 543 652 501Q652 442 617.5 395Q583 348 520 321L621 129Q637 96 651.5 75Q666 54 679.5 41Q693 28 706 21Q719 14 734 10V0H483L337 290H284V116Q284 86 290 66Q296 46 306.5 34Q317 22 330.5 16.5Q344 11 358 10ZM284 313H320Q392 313 428 363Q464 413 464 501Q464 679 331 679H284ZM359 852 510 906H524L408 776H308L196 906H214Z" glyph-name="Rcaron" horiz-adv-x="744" unicode="&#344;" /><glyph d="M307 0H19V10Q31 11 42 15.5Q53 20 62 30Q71 40 76 56.5Q81 73 81 97V441Q81 465 76 481Q71 497 62 507Q53 517 42 521.5Q31 526 19 527V537H314Q371 537 414 525Q457 513 486 492Q515 471 529.5 443Q544 415 544 383Q544 339 517.5 303.5Q491 268 443 246L522 95Q543 55 560.5 36Q578 17 602 8V0H393L284 218H250V97Q250 73 255 56.5Q260 40 268 30Q276 20 286 15.5Q296 11 307 10ZM250 239H272Q323 239 349.5 278.5Q376 318 376 385Q376 454 350 486.5Q324 519 276 519H250ZM302 689 453 743H467L351 613H251L139 743H157Z" glyph-name="Rcaron.smcp" horiz-adv-x="609" /><glyph d="M399 -279Q399 -267 394 -260Q389 -253 380.5 -248.5Q372 -244 361.5 -240.5Q351 -237 341 -232Q320 -221 306 -203Q292 -185 292 -159Q292 -125 315 -100Q338 -75 380 -75Q417 -75 441 -100.5Q465 -126 465 -172Q465 -206 455 -239Q445 -272 426.5 -300Q408 -328 381.5 -348.5Q355 -369 322 -376L316 -361Q329 -358 344 -349.5Q359 -341 371 -329.5Q383 -318 391 -304.5Q399 -291 399 -279ZM358 0H20V10Q35 11 49 16.5Q63 22 74 34Q85 46 91.5 66Q98 86 98 116V585Q98 615 91.5 634.5Q85 654 74 666Q63 678 49 683Q35 688 20 690V700H370Q439 700 492 684.5Q545 669 580.5 642Q616 615 634 579Q652 543 652 501Q652 442 617.5 395Q583 348 520 321L621 129Q637 96 651.5 75Q666 54 679.5 41Q693 28 706 21Q719 14 734 10V0H483L337 290H284V116Q284 86 290 66Q296 46 306.5 34Q317 22 330.5 16.5Q344 11 358 10ZM284 313H320Q392 313 428 363Q464 413 464 501Q464 679 331 679H284Z" glyph-name="Rcommaaccent" horiz-adv-x="744" unicode="&#342;" /><glyph d="M345 -279Q345 -267 340 -260Q335 -253 326.5 -248.5Q318 -244 307.5 -240.5Q297 -237 287 -232Q266 -221 252 -203Q238 -185 238 -159Q238 -125 261 -100Q284 -75 326 -75Q363 -75 387 -100.5Q411 -126 411 -172Q411 -206 401 -239Q391 -272 372.5 -300Q354 -328 327.5 -348.5Q301 -369 268 -376L262 -361Q275 -358 290 -349.5Q305 -341 317 -329.5Q329 -318 337 -304.5Q345 -291 345 -279ZM307 0H19V10Q31 11 42 15.5Q53 20 62 30Q71 40 76 56.5Q81 73 81 97V441Q81 465 76 481Q71 497 62 507Q53 517 42 521.5Q31 526 19 527V537H314Q371 537 414 525Q457 513 486 492Q515 471 529.5 443Q544 415 544 383Q544 339 517.5 303.5Q491 268 443 246L522 95Q543 55 560.5 36Q578 17 602 8V0H393L284 218H250V97Q250 73 255 56.5Q260 40 268 30Q276 20 286 15.5Q296 11 307 10ZM250 239H272Q323 239 349.5 278.5Q376 318 376 385Q376 454 350 486.5Q324 519 276 519H250Z" glyph-name="Rcommaaccent.smcp" horiz-adv-x="609" /><glyph d="M565 211Q565 164 545 122Q525 80 487.5 48Q450 16 397.5 -2.5Q345 -21 281 -21Q244 -21 207 -16.5Q170 -12 136.5 -5Q103 2 75.5 11.5Q48 21 32 30L76 236L93 234Q108 166 129 120.5Q150 75 176.5 48Q203 21 232.5 10Q262 -1 293 -1Q353 -1 388.5 28Q424 57 424 104Q424 147 396 176Q368 205 325.5 228Q283 251 234 273Q185 295 142.5 324Q100 353 72 393.5Q44 434 44 494Q44 540 63.5 581.5Q83 623 118 653.5Q153 684 201.5 702Q250 720 309 720Q372 720 429 707.5Q486 695 531 673L482 492L464 494Q447 597 407.5 648.5Q368 700 299 700Q275 700 252 694Q229 688 211 675.5Q193 663 182 643.5Q171 624 171 598Q171 554 200 526Q229 498 273 476Q317 454 368 433.5Q419 413 463 384.5Q507 356 536 315Q565 274 565 211Z" glyph-name="S" horiz-adv-x="604" unicode="S" /><glyph d="M72 183Q82 134 98 99Q114 64 134.5 42Q155 20 179 9.5Q203 -1 229 -1Q249 -1 267 5Q285 11 299 21.5Q313 32 321.5 46.5Q330 61 330 78Q330 107 308 127Q286 147 253.5 163.5Q221 180 182.5 196.5Q144 213 111.5 236Q79 259 57 291.5Q35 324 35 373Q35 412 50 445.5Q65 479 93.5 503Q122 527 163 540.5Q204 554 256 554Q309 554 357 544.5Q405 535 435 518L391 376L377 378Q364 457 327 496.5Q290 536 236 536Q197 536 172.5 518Q148 500 148 467Q148 435 170.5 414.5Q193 394 227 377.5Q261 361 300.5 345Q340 329 374 306.5Q408 284 430.5 252Q453 220 453 172Q453 128 435 92.5Q417 57 385.5 32.5Q354 8 311.5 -5.5Q269 -19 220 -19Q191 -19 162 -16Q133 -13 107 -7.5Q81 -2 59 5.5Q37 13 21 22L56 184Z" glyph-name="S.smcp" horiz-adv-x="487" /><glyph d="M565 211Q565 164 545 122Q525 80 487.5 48Q450 16 397.5 -2.5Q345 -21 281 -21Q244 -21 207 -16.5Q170 -12 136.5 -5Q103 2 75.5 11.5Q48 21 32 30L76 236L93 234Q108 166 129 120.5Q150 75 176.5 48Q203 21 232.5 10Q262 -1 293 -1Q353 -1 388.5 28Q424 57 424 104Q424 147 396 176Q368 205 325.5 228Q283 251 234 273Q185 295 142.5 324Q100 353 72 393.5Q44 434 44 494Q44 540 63.5 581.5Q83 623 118 653.5Q153 684 201.5 702Q250 720 309 720Q372 720 429 707.5Q486 695 531 673L482 492L464 494Q447 597 407.5 648.5Q368 700 299 700Q275 700 252 694Q229 688 211 675.5Q193 663 182 643.5Q171 624 171 598Q171 554 200 526Q229 498 273 476Q317 454 368 433.5Q419 413 463 384.5Q507 356 536 315Q565 274 565 211ZM361 903Q383 925 407 925Q430 925 445.5 909.5Q461 894 461 871Q461 850 446.5 833.5Q432 817 407 811L249 770H238Z" glyph-name="Sacute" horiz-adv-x="604" unicode="&#346;" /><glyph d="M72 183Q82 134 98 99Q114 64 134.5 42Q155 20 179 9.5Q203 -1 229 -1Q249 -1 267 5Q285 11 299 21.5Q313 32 321.5 46.5Q330 61 330 78Q330 107 308 127Q286 147 253.5 163.5Q221 180 182.5 196.5Q144 213 111.5 236Q79 259 57 291.5Q35 324 35 373Q35 412 50 445.5Q65 479 93.5 503Q122 527 163 540.5Q204 554 256 554Q309 554 357 544.5Q405 535 435 518L391 376L377 378Q364 457 327 496.5Q290 536 236 536Q197 536 172.5 518Q148 500 148 467Q148 435 170.5 414.5Q193 394 227 377.5Q261 361 300.5 345Q340 329 374 306.5Q408 284 430.5 252Q453 220 453 172Q453 128 435 92.5Q417 57 385.5 32.5Q354 8 311.5 -5.5Q269 -19 220 -19Q191 -19 162 -16Q133 -13 107 -7.5Q81 -2 59 5.5Q37 13 21 22L56 184ZM294 740Q316 762 340 762Q363 762 378.5 746.5Q394 731 394 708Q394 687 379.5 670.5Q365 654 340 648L182 607H171Z" glyph-name="Sacute.smcp" horiz-adv-x="487" /><glyph d="M565 211Q565 164 545 122Q525 80 487.5 48Q450 16 397.5 -2.5Q345 -21 281 -21Q244 -21 207 -16.5Q170 -12 136.5 -5Q103 2 75.5 11.5Q48 21 32 30L76 236L93 234Q108 166 129 120.5Q150 75 176.5 48Q203 21 232.5 10Q262 -1 293 -1Q353 -1 388.5 28Q424 57 424 104Q424 147 396 176Q368 205 325.5 228Q283 251 234 273Q185 295 142.5 324Q100 353 72 393.5Q44 434 44 494Q44 540 63.5 581.5Q83 623 118 653.5Q153 684 201.5 702Q250 720 309 720Q372 720 429 707.5Q486 695 531 673L482 492L464 494Q447 597 407.5 648.5Q368 700 299 700Q275 700 252 694Q229 688 211 675.5Q193 663 182 643.5Q171 624 171 598Q171 554 200 526Q229 498 273 476Q317 454 368 433.5Q419 413 463 384.5Q507 356 536 315Q565 274 565 211ZM310 852 461 906H475L359 776H259L147 906H165Z" glyph-name="Scaron" horiz-adv-x="604" unicode="&#352;" /><glyph d="M72 183Q82 134 98 99Q114 64 134.5 42Q155 20 179 9.5Q203 -1 229 -1Q249 -1 267 5Q285 11 299 21.5Q313 32 321.5 46.5Q330 61 330 78Q330 107 308 127Q286 147 253.5 163.5Q221 180 182.5 196.5Q144 213 111.5 236Q79 259 57 291.5Q35 324 35 373Q35 412 50 445.5Q65 479 93.5 503Q122 527 163 540.5Q204 554 256 554Q309 554 357 544.5Q405 535 435 518L391 376L377 378Q364 457 327 496.5Q290 536 236 536Q197 536 172.5 518Q148 500 148 467Q148 435 170.5 414.5Q193 394 227 377.5Q261 361 300.5 345Q340 329 374 306.5Q408 284 430.5 252Q453 220 453 172Q453 128 435 92.5Q417 57 385.5 32.5Q354 8 311.5 -5.5Q269 -19 220 -19Q191 -19 162 -16Q133 -13 107 -7.5Q81 -2 59 5.5Q37 13 21 22L56 184ZM243 689 394 743H408L292 613H192L80 743H98Z" glyph-name="Scaron.smcp" horiz-adv-x="487" /><glyph d="M278 -280Q237 -280 207.5 -270Q178 -260 155 -243L161 -229Q203 -256 250 -256Q268 -256 284.5 -252.5Q301 -249 313.5 -240Q326 -231 334 -217Q342 -203 342 -182Q342 -148 317 -132.5Q292 -117 227 -124L224 -120L279 -21Q242 -21 205 -16.5Q168 -12 135 -5Q102 2 75 11.5Q48 21 32 30L76 236L93 234Q108 166 129 120.5Q150 75 176.5 48Q203 21 232.5 10Q262 -1 293 -1Q353 -1 388.5 28Q424 57 424 104Q424 147 396 176Q368 205 325.5 228Q283 251 234 273Q185 295 142.5 324Q100 353 72 393.5Q44 434 44 494Q44 540 63.5 581.5Q83 623 118 653.5Q153 684 201.5 702Q250 720 309 720Q372 720 429 707.5Q486 695 531 673L482 492L464 494Q447 597 407.5 648.5Q368 700 299 700Q275 700 252 694Q229 688 211 675.5Q193 663 182 643.5Q171 624 171 598Q171 554 200 526Q229 498 273 476Q317 454 368 433.5Q419 413 463 384.5Q507 356 536 315Q565 274 565 211Q565 166 546.5 125.5Q528 85 493.5 53.5Q459 22 410.5 2.5Q362 -17 302 -20L277 -67Q300 -62 319 -62Q371 -62 404.5 -88Q438 -114 438 -162Q438 -186 427.5 -207Q417 -228 396.5 -244.5Q376 -261 346.5 -270.5Q317 -280 278 -280Z" glyph-name="Scedilla" horiz-adv-x="604" unicode="&#350;" /><glyph d="M207 -280Q166 -280 136.5 -270Q107 -260 84 -243L90 -229Q132 -256 179 -256Q197 -256 213.5 -252.5Q230 -249 242.5 -240Q255 -231 263 -217Q271 -203 271 -182Q271 -148 246 -132.5Q221 -117 156 -124L153 -120L209 -19Q153 -17 102.5 -6Q52 5 21 22L56 184L72 183Q82 134 98 99Q114 64 134.5 42Q155 20 179 9.5Q203 -1 229 -1Q249 -1 267 5Q285 11 299 21.5Q313 32 321.5 46.5Q330 61 330 78Q330 107 308 127Q286 147 253.5 163.5Q221 180 182.5 196.5Q144 213 111.5 236Q79 259 57 291.5Q35 324 35 373Q35 412 50 445.5Q65 479 93.5 503Q122 527 163 540.5Q204 554 256 554Q309 554 357 544.5Q405 535 435 518L391 376L377 378Q364 457 327 496.5Q290 536 236 536Q197 536 172.5 518Q148 500 148 467Q148 435 170.5 414.5Q193 394 227 377.5Q261 361 300.5 345Q340 329 374 306.5Q408 284 430.5 252Q453 220 453 172Q453 130 436 95.5Q419 61 389 36Q359 11 318.5 -3Q278 -17 232 -19L206 -67Q229 -62 248 -62Q300 -62 333.5 -88Q367 -114 367 -162Q367 -186 356.5 -207Q346 -228 325.5 -244.5Q305 -261 275.5 -270.5Q246 -280 207 -280Z" glyph-name="Scedilla.smcp" horiz-adv-x="487" /><glyph d="M565 211Q565 164 545 122Q525 80 487.5 48Q450 16 397.5 -2.5Q345 -21 281 -21Q244 -21 207 -16.5Q170 -12 136.5 -5Q103 2 75.5 11.5Q48 21 32 30L76 236L93 234Q108 166 129 120.5Q150 75 176.5 48Q203 21 232.5 10Q262 -1 293 -1Q353 -1 388.5 28Q424 57 424 104Q424 147 396 176Q368 205 325.5 228Q283 251 234 273Q185 295 142.5 324Q100 353 72 393.5Q44 434 44 494Q44 540 63.5 581.5Q83 623 118 653.5Q153 684 201.5 702Q250 720 309 720Q372 720 429 707.5Q486 695 531 673L482 492L464 494Q447 597 407.5 648.5Q368 700 299 700Q275 700 252 694Q229 688 211 675.5Q193 663 182 643.5Q171 624 171 598Q171 554 200 526Q229 498 273 476Q317 454 368 433.5Q419 413 463 384.5Q507 356 536 315Q565 274 565 211ZM312 831 161 776H147L263 906H363L475 776H457Z" glyph-name="Scircumflex" horiz-adv-x="604" unicode="&#348;" /><glyph d="M72 183Q82 134 98 99Q114 64 134.5 42Q155 20 179 9.5Q203 -1 229 -1Q249 -1 267 5Q285 11 299 21.5Q313 32 321.5 46.5Q330 61 330 78Q330 107 308 127Q286 147 253.5 163.5Q221 180 182.5 196.5Q144 213 111.5 236Q79 259 57 291.5Q35 324 35 373Q35 412 50 445.5Q65 479 93.5 503Q122 527 163 540.5Q204 554 256 554Q309 554 357 544.5Q405 535 435 518L391 376L377 378Q364 457 327 496.5Q290 536 236 536Q197 536 172.5 518Q148 500 148 467Q148 435 170.5 414.5Q193 394 227 377.5Q261 361 300.5 345Q340 329 374 306.5Q408 284 430.5 252Q453 220 453 172Q453 128 435 92.5Q417 57 385.5 32.5Q354 8 311.5 -5.5Q269 -19 220 -19Q191 -19 162 -16Q133 -13 107 -7.5Q81 -2 59 5.5Q37 13 21 22L56 184ZM245 668 94 613H80L196 743H296L408 613H390Z" glyph-name="Scircumflex.smcp" horiz-adv-x="487" /><glyph d="M311 -279Q311 -267 306 -260Q301 -253 292.5 -248.5Q284 -244 273.5 -240.5Q263 -237 253 -232Q232 -221 218 -203Q204 -185 204 -159Q204 -125 227 -100Q250 -75 292 -75Q329 -75 353 -100.5Q377 -126 377 -172Q377 -206 367 -239Q357 -272 338.5 -300Q320 -328 293.5 -348.5Q267 -369 234 -376L228 -361Q241 -358 256 -349.5Q271 -341 283 -329.5Q295 -318 303 -304.5Q311 -291 311 -279ZM565 211Q565 164 545 122Q525 80 487.5 48Q450 16 397.5 -2.5Q345 -21 281 -21Q244 -21 207 -16.5Q170 -12 136.5 -5Q103 2 75.5 11.5Q48 21 32 30L76 236L93 234Q108 166 129 120.5Q150 75 176.5 48Q203 21 232.5 10Q262 -1 293 -1Q353 -1 388.5 28Q424 57 424 104Q424 147 396 176Q368 205 325.5 228Q283 251 234 273Q185 295 142.5 324Q100 353 72 393.5Q44 434 44 494Q44 540 63.5 581.5Q83 623 118 653.5Q153 684 201.5 702Q250 720 309 720Q372 720 429 707.5Q486 695 531 673L482 492L464 494Q447 597 407.5 648.5Q368 700 299 700Q275 700 252 694Q229 688 211 675.5Q193 663 182 643.5Q171 624 171 598Q171 554 200 526Q229 498 273 476Q317 454 368 433.5Q419 413 463 384.5Q507 356 536 315Q565 274 565 211Z" glyph-name="Scommaaccent" horiz-adv-x="604" unicode="&#536;" /><glyph d="M250 -279Q250 -267 245 -260Q240 -253 231.5 -248.5Q223 -244 212.5 -240.5Q202 -237 192 -232Q171 -221 157 -203Q143 -185 143 -159Q143 -125 166 -100Q189 -75 231 -75Q268 -75 292 -100.5Q316 -126 316 -172Q316 -206 306 -239Q296 -272 277.5 -300Q259 -328 232.5 -348.5Q206 -369 173 -376L167 -361Q180 -358 195 -349.5Q210 -341 222 -329.5Q234 -318 242 -304.5Q250 -291 250 -279ZM72 183Q82 134 98 99Q114 64 134.5 42Q155 20 179 9.5Q203 -1 229 -1Q249 -1 267 5Q285 11 299 21.5Q313 32 321.5 46.5Q330 61 330 78Q330 107 308 127Q286 147 253.5 163.5Q221 180 182.5 196.5Q144 213 111.5 236Q79 259 57 291.5Q35 324 35 373Q35 412 50 445.5Q65 479 93.5 503Q122 527 163 540.5Q204 554 256 554Q309 554 357 544.5Q405 535 435 518L391 376L377 378Q364 457 327 496.5Q290 536 236 536Q197 536 172.5 518Q148 500 148 467Q148 435 170.5 414.5Q193 394 227 377.5Q261 361 300.5 345Q340 329 374 306.5Q408 284 430.5 252Q453 220 453 172Q453 128 435 92.5Q417 57 385.5 32.5Q354 8 311.5 -5.5Q269 -19 220 -19Q191 -19 162 -16Q133 -13 107 -7.5Q81 -2 59 5.5Q37 13 21 22L56 184Z" glyph-name="Scommaaccent.smcp" horiz-adv-x="487" /><glyph d="M638 700 663 481H650L621 534Q598 576 577 603.5Q556 631 536 648Q516 665 495.5 672Q475 679 453 679H430V112Q430 82 437 62.5Q444 43 455.5 32Q467 21 482 16Q497 11 513 10V0H160V10Q176 11 191 16Q206 21 217.5 32Q229 43 236 62.5Q243 82 243 112V679H222Q197 679 174.5 671.5Q152 664 130.5 646Q109 628 88 599Q67 570 45 528L20 481H8L34 700Z" glyph-name="T" horiz-adv-x="671" unicode="T" /><glyph d="M520 537 540 365H528L506 405Q487 439 470 461Q453 483 437.5 496Q422 509 407.5 514Q393 519 380 519H358V89Q358 65 364 50.5Q370 36 379.5 27Q389 18 401 14.5Q413 11 426 10V0H122V10Q135 11 147 14.5Q159 18 168.5 27Q178 36 183.5 50.5Q189 65 189 89V519H169Q153 519 137.5 513.5Q122 508 105.5 494Q89 480 72 456.5Q55 433 36 397L18 365H7L28 537Z" glyph-name="T.smcp" horiz-adv-x="547" /><glyph d="M513 0H160V10Q176 11 191 16Q206 21 217.5 32Q229 43 236 62.5Q243 82 243 112V365H81V386H243V679H222Q197 679 174.5 671.5Q152 664 130.5 646Q109 628 88 599Q67 570 45 528L20 481H8L34 700H638L663 481H650L621 534Q598 576 577 603.5Q556 631 536 648Q516 665 495.5 672Q475 679 453 679H430V386H590V365H430V112Q430 82 437 62.5Q444 43 455.5 32Q467 21 482 16Q497 11 513 10Z" glyph-name="Tbar" horiz-adv-x="671" unicode="&#358;" /><glyph d="M426 0H122V10Q135 11 147 14.5Q159 18 168.5 27Q178 36 183.5 50.5Q189 65 189 89V278H63V297H189V519H169Q153 519 137.5 513.5Q122 508 105.5 494Q89 480 72 456.5Q55 433 36 397L18 365H7L28 537H520L540 365H528L506 405Q487 439 470 461Q453 483 437.5 496Q422 509 407.5 514Q393 519 380 519H358V297H486V278H358V89Q358 65 364 50.5Q370 36 379.5 27Q389 18 401 14.5Q413 11 426 10Z" glyph-name="Tbar.smcp" horiz-adv-x="547" /><glyph d="M638 700 663 481H650L621 534Q598 576 577 603.5Q556 631 536 648Q516 665 495.5 672Q475 679 453 679H430V112Q430 82 437 62.5Q444 43 455.5 32Q467 21 482 16Q497 11 513 10V0H160V10Q176 11 191 16Q206 21 217.5 32Q229 43 236 62.5Q243 82 243 112V679H222Q197 679 174.5 671.5Q152 664 130.5 646Q109 628 88 599Q67 570 45 528L20 481H8L34 700ZM335 852 486 906H500L384 776H284L172 906H190Z" glyph-name="Tcaron" horiz-adv-x="671" unicode="&#356;" /><glyph d="M520 537 540 365H528L506 405Q487 439 470 461Q453 483 437.5 496Q422 509 407.5 514Q393 519 380 519H358V89Q358 65 364 50.5Q370 36 379.5 27Q389 18 401 14.5Q413 11 426 10V0H122V10Q135 11 147 14.5Q159 18 168.5 27Q178 36 183.5 50.5Q189 65 189 89V519H169Q153 519 137.5 513.5Q122 508 105.5 494Q89 480 72 456.5Q55 433 36 397L18 365H7L28 537ZM273 693 424 747H438L322 617H222L110 747H128Z" glyph-name="Tcaron.smcp" horiz-adv-x="547" /><glyph d="M350 -279Q350 -267 345 -260Q340 -253 331.5 -248.5Q323 -244 312.5 -240.5Q302 -237 292 -232Q271 -221 257 -203Q243 -185 243 -159Q243 -125 266 -100Q289 -75 331 -75Q368 -75 392 -100.5Q416 -126 416 -172Q416 -206 406 -239Q396 -272 377.5 -300Q359 -328 332.5 -348.5Q306 -369 273 -376L267 -361Q280 -358 295 -349.5Q310 -341 322 -329.5Q334 -318 342 -304.5Q350 -291 350 -279ZM638 700 663 481H650L621 534Q598 576 577 603.5Q556 631 536 648Q516 665 495.5 672Q475 679 453 679H430V112Q430 82 437 62.5Q444 43 455.5 32Q467 21 482 16Q497 11 513 10V0H160V10Q176 11 191 16Q206 21 217.5 32Q229 43 236 62.5Q243 82 243 112V679H222Q197 679 174.5 671.5Q152 664 130.5 646Q109 628 88 599Q67 570 45 528L20 481H8L34 700Z" glyph-name="Tcommaaccent" horiz-adv-x="671" unicode="&#354;" /><glyph d="M288 -274Q288 -262 283 -255Q278 -248 269.5 -243.5Q261 -239 250.5 -235.5Q240 -232 230 -227Q209 -216 195 -198Q181 -180 181 -154Q181 -120 204 -95Q227 -70 269 -70Q306 -70 330 -95.5Q354 -121 354 -167Q354 -201 344 -234Q334 -267 315.5 -295Q297 -323 270.5 -343.5Q244 -364 211 -371L205 -356Q218 -353 233 -344.5Q248 -336 260 -324.5Q272 -313 280 -299.5Q288 -286 288 -274ZM520 537 540 365H528L506 405Q487 439 470 461Q453 483 437.5 496Q422 509 407.5 514Q393 519 380 519H358V89Q358 65 364 50.5Q370 36 379.5 27Q389 18 401 14.5Q413 11 426 10V0H122V10Q135 11 147 14.5Q159 18 168.5 27Q178 36 183.5 50.5Q189 65 189 89V519H169Q153 519 137.5 513.5Q122 508 105.5 494Q89 480 72 456.5Q55 433 36 397L18 365H7L28 537Z" glyph-name="Tcommaaccent.smcp" horiz-adv-x="547" /><glyph d="M284 545V171H304Q381 171 418.5 222.5Q456 274 456 362Q456 545 315 545ZM362 0H20V10Q35 11 49 16.5Q63 22 74 33.5Q85 45 91.5 64.5Q98 84 98 114V586Q98 616 91.5 635.5Q85 655 74 666.5Q63 678 49 683Q35 688 20 690V700H362V690Q347 688 333 683Q319 678 308 666.5Q297 655 290.5 635.5Q284 616 284 586V567H347Q421 567 476.5 551.5Q532 536 569 508.5Q606 481 624.5 444Q643 407 643 365Q643 319 622.5 279Q602 239 563 210Q524 181 467.5 164Q411 147 340 147H284V114Q284 84 290.5 64.5Q297 45 308 33.5Q319 22 333 16.5Q347 11 362 10Z" glyph-name="Thorn" horiz-adv-x="672" unicode="&#222;" /><glyph d="M250 420V133H262Q314 133 340.5 173.5Q367 214 367 282Q367 354 340.5 387Q314 420 265 420ZM318 0H19V10Q31 11 42 15Q53 19 61.5 28.5Q70 38 75.5 53.5Q81 69 81 94V442Q81 467 75.5 483Q70 499 61.5 508.5Q53 518 42 522Q31 526 19 527V537H318V527Q305 526 293 522Q281 518 271.5 508.5Q262 499 256 483.5Q250 468 250 443V439H305Q362 439 405 427Q448 415 477 393.5Q506 372 521 343.5Q536 315 536 282Q536 246 518.5 215Q501 184 469 160.5Q437 137 392 124Q347 111 291 111H250V94Q250 69 256 53.5Q262 38 271.5 28.5Q281 19 293 15Q305 11 318 10Z" glyph-name="Thorn.smcp" horiz-adv-x="559" /><glyph d="M636 268Q634 130 570 54.5Q506 -21 373 -21Q302 -21 249.5 -2Q197 17 162.5 51.5Q128 86 111 135Q94 184 94 243V586Q94 616 87 635.5Q80 655 68 666.5Q56 678 41 683Q26 688 11 690V700H363V690Q348 688 333 683Q318 678 306 666.5Q294 655 287 635.5Q280 616 280 586V203Q280 130 319.5 84Q359 38 435 38Q474 38 506.5 51.5Q539 65 562 94.5Q585 124 598 170.5Q611 217 611 282V465Q611 514 603.5 555Q596 596 581 625.5Q566 655 543 671.5Q520 688 488 690V700H739V690Q709 688 690 671Q671 654 659.5 624Q648 594 643 552.5Q638 511 638 460Z" glyph-name="U" horiz-adv-x="748" unicode="U" /><glyph d="M522 222Q520 98 463 40Q406 -18 301 -18Q190 -18 133.5 37.5Q77 93 77 195V443Q77 467 71.5 483Q66 499 56.5 508.5Q47 518 35 522Q23 526 10 527V537H312V527Q300 526 288 522Q276 518 266.5 508.5Q257 499 251.5 483Q246 467 246 443V160Q246 105 277.5 67.5Q309 30 367 30Q426 30 462.5 78Q499 126 499 233V349Q499 387 493 419Q487 451 474.5 474.5Q462 498 443 512Q424 526 399 527V537H607V527Q582 526 566.5 512Q551 498 541.5 474Q532 450 528.5 416Q525 382 524 342Z" glyph-name="U.smcp" horiz-adv-x="616" /><glyph d="M636 268Q634 130 570 54.5Q506 -21 373 -21Q302 -21 249.5 -2Q197 17 162.5 51.5Q128 86 111 135Q94 184 94 243V586Q94 616 87 635.5Q80 655 68 666.5Q56 678 41 683Q26 688 11 690V700H363V690Q348 688 333 683Q318 678 306 666.5Q294 655 287 635.5Q280 616 280 586V203Q280 130 319.5 84Q359 38 435 38Q474 38 506.5 51.5Q539 65 562 94.5Q585 124 598 170.5Q611 217 611 282V465Q611 514 603.5 555Q596 596 581 625.5Q566 655 543 671.5Q520 688 488 690V700H739V690Q709 688 690 671Q671 654 659.5 624Q648 594 643 552.5Q638 511 638 460ZM466 903Q488 925 512 925Q535 925 550.5 909.5Q566 894 566 871Q566 850 551.5 833.5Q537 817 512 811L354 770H343Z" glyph-name="Uacute" horiz-adv-x="748" unicode="&#218;" /><glyph d="M522 222Q520 98 463 40Q406 -18 301 -18Q190 -18 133.5 37.5Q77 93 77 195V443Q77 467 71.5 483Q66 499 56.5 508.5Q47 518 35 522Q23 526 10 527V537H312V527Q300 526 288 522Q276 518 266.5 508.5Q257 499 251.5 483Q246 467 246 443V160Q246 105 277.5 67.5Q309 30 367 30Q426 30 462.5 78Q499 126 499 233V349Q499 387 493 419Q487 451 474.5 474.5Q462 498 443 512Q424 526 399 527V537H607V527Q582 526 566.5 512Q551 498 541.5 474Q532 450 528.5 416Q525 382 524 342ZM399 740Q421 762 445 762Q468 762 483.5 746.5Q499 731 499 708Q499 687 484.5 670.5Q470 654 445 648L287 607H276Z" glyph-name="Uacute.smcp" horiz-adv-x="616" /><glyph d="M636 268Q634 130 570 54.5Q506 -21 373 -21Q302 -21 249.5 -2Q197 17 162.5 51.5Q128 86 111 135Q94 184 94 243V586Q94 616 87 635.5Q80 655 68 666.5Q56 678 41 683Q26 688 11 690V700H363V690Q348 688 333 683Q318 678 306 666.5Q294 655 287 635.5Q280 616 280 586V203Q280 130 319.5 84Q359 38 435 38Q474 38 506.5 51.5Q539 65 562 94.5Q585 124 598 170.5Q611 217 611 282V465Q611 514 603.5 555Q596 596 581 625.5Q566 655 543 671.5Q520 688 488 690V700H739V690Q709 688 690 671Q671 654 659.5 624Q648 594 643 552.5Q638 511 638 460ZM415 779Q384 779 357 788Q330 797 310.5 814Q291 831 280 856.5Q269 882 269 915H285Q290 887 324 872Q358 857 415 857Q472 857 506.5 872Q541 887 546 915H562Q562 882 550.5 856.5Q539 831 519.5 814Q500 797 473 788Q446 779 415 779Z" glyph-name="Ubreve" horiz-adv-x="748" unicode="&#364;" /><glyph d="M522 222Q520 98 463 40Q406 -18 301 -18Q190 -18 133.5 37.5Q77 93 77 195V443Q77 467 71.5 483Q66 499 56.5 508.5Q47 518 35 522Q23 526 10 527V537H312V527Q300 526 288 522Q276 518 266.5 508.5Q257 499 251.5 483Q246 467 246 443V160Q246 105 277.5 67.5Q309 30 367 30Q426 30 462.5 78Q499 126 499 233V349Q499 387 493 419Q487 451 474.5 474.5Q462 498 443 512Q424 526 399 527V537H607V527Q582 526 566.5 512Q551 498 541.5 474Q532 450 528.5 416Q525 382 524 342ZM348 616Q317 616 290 625Q263 634 243.5 651Q224 668 213 693.5Q202 719 202 752H218Q223 724 257 709Q291 694 348 694Q405 694 439.5 709Q474 724 479 752H495Q495 719 483.5 693.5Q472 668 452.5 651Q433 634 406 625Q379 616 348 616Z" glyph-name="Ubreve.smcp" horiz-adv-x="616" /><glyph d="M636 268Q634 130 570 54.5Q506 -21 373 -21Q302 -21 249.5 -2Q197 17 162.5 51.5Q128 86 111 135Q94 184 94 243V586Q94 616 87 635.5Q80 655 68 666.5Q56 678 41 683Q26 688 11 690V700H363V690Q348 688 333 683Q318 678 306 666.5Q294 655 287 635.5Q280 616 280 586V203Q280 130 319.5 84Q359 38 435 38Q474 38 506.5 51.5Q539 65 562 94.5Q585 124 598 170.5Q611 217 611 282V465Q611 514 603.5 555Q596 596 581 625.5Q566 655 543 671.5Q520 688 488 690V700H739V690Q709 688 690 671Q671 654 659.5 624Q648 594 643 552.5Q638 511 638 460ZM417 831 266 776H252L368 906H468L580 776H562Z" glyph-name="Ucircumflex" horiz-adv-x="748" unicode="&#219;" /><glyph d="M522 222Q520 98 463 40Q406 -18 301 -18Q190 -18 133.5 37.5Q77 93 77 195V443Q77 467 71.5 483Q66 499 56.5 508.5Q47 518 35 522Q23 526 10 527V537H312V527Q300 526 288 522Q276 518 266.5 508.5Q257 499 251.5 483Q246 467 246 443V160Q246 105 277.5 67.5Q309 30 367 30Q426 30 462.5 78Q499 126 499 233V349Q499 387 493 419Q487 451 474.5 474.5Q462 498 443 512Q424 526 399 527V537H607V527Q582 526 566.5 512Q551 498 541.5 474Q532 450 528.5 416Q525 382 524 342ZM350 668 199 613H185L301 743H401L513 613H495Z" glyph-name="Ucircumflex.smcp" horiz-adv-x="616" /><glyph d="M636 268Q634 130 570 54.5Q506 -21 373 -21Q302 -21 249.5 -2Q197 17 162.5 51.5Q128 86 111 135Q94 184 94 243V586Q94 616 87 635.5Q80 655 68 666.5Q56 678 41 683Q26 688 11 690V700H363V690Q348 688 333 683Q318 678 306 666.5Q294 655 287 635.5Q280 616 280 586V203Q280 130 319.5 84Q359 38 435 38Q474 38 506.5 51.5Q539 65 562 94.5Q585 124 598 170.5Q611 217 611 282V465Q611 514 603.5 555Q596 596 581 625.5Q566 655 543 671.5Q520 688 488 690V700H739V690Q709 688 690 671Q671 654 659.5 624Q648 594 643 552.5Q638 511 638 460ZM519 777Q485 777 461 801Q437 825 437 859Q437 875 443.5 889.5Q450 904 461 915.5Q472 927 487 933.5Q502 940 519 940Q553 940 577.5 916Q602 892 602 859Q602 825 577.5 801Q553 777 519 777ZM309 777Q276 777 251.5 801Q227 825 227 859Q227 875 233.5 889.5Q240 904 251.5 915.5Q263 927 277.5 933.5Q292 940 309 940Q344 940 368 916Q392 892 392 859Q392 825 368 801Q344 777 309 777Z" glyph-name="Udieresis" horiz-adv-x="748" unicode="&#220;" /><glyph d="M522 222Q520 98 463 40Q406 -18 301 -18Q190 -18 133.5 37.5Q77 93 77 195V443Q77 467 71.5 483Q66 499 56.5 508.5Q47 518 35 522Q23 526 10 527V537H312V527Q300 526 288 522Q276 518 266.5 508.5Q257 499 251.5 483Q246 467 246 443V160Q246 105 277.5 67.5Q309 30 367 30Q426 30 462.5 78Q499 126 499 233V349Q499 387 493 419Q487 451 474.5 474.5Q462 498 443 512Q424 526 399 527V537H607V527Q582 526 566.5 512Q551 498 541.5 474Q532 450 528.5 416Q525 382 524 342ZM452 614Q418 614 394 638Q370 662 370 696Q370 712 376.5 726.5Q383 741 394 752.5Q405 764 420 770.5Q435 777 452 777Q486 777 510.5 753Q535 729 535 696Q535 662 510.5 638Q486 614 452 614ZM242 614Q209 614 184.5 638Q160 662 160 696Q160 712 166.5 726.5Q173 741 184.5 752.5Q196 764 210.5 770.5Q225 777 242 777Q277 777 301 753Q325 729 325 696Q325 662 301 638Q277 614 242 614Z" glyph-name="Udieresis.smcp" horiz-adv-x="616" /><glyph d="M636 268Q634 130 570 54.5Q506 -21 373 -21Q302 -21 249.5 -2Q197 17 162.5 51.5Q128 86 111 135Q94 184 94 243V586Q94 616 87 635.5Q80 655 68 666.5Q56 678 41 683Q26 688 11 690V700H363V690Q348 688 333 683Q318 678 306 666.5Q294 655 287 635.5Q280 616 280 586V203Q280 130 319.5 84Q359 38 435 38Q474 38 506.5 51.5Q539 65 562 94.5Q585 124 598 170.5Q611 217 611 282V465Q611 514 603.5 555Q596 596 581 625.5Q566 655 543 671.5Q520 688 488 690V700H739V690Q709 688 690 671Q671 654 659.5 624Q648 594 643 552.5Q638 511 638 460ZM469 770 311 811Q286 817 271.5 833.5Q257 850 257 871Q257 894 272.5 909.5Q288 925 311 925Q335 925 357 903L480 770Z" glyph-name="Ugrave" horiz-adv-x="748" unicode="&#217;" /><glyph d="M522 222Q520 98 463 40Q406 -18 301 -18Q190 -18 133.5 37.5Q77 93 77 195V443Q77 467 71.5 483Q66 499 56.5 508.5Q47 518 35 522Q23 526 10 527V537H312V527Q300 526 288 522Q276 518 266.5 508.5Q257 499 251.5 483Q246 467 246 443V160Q246 105 277.5 67.5Q309 30 367 30Q426 30 462.5 78Q499 126 499 233V349Q499 387 493 419Q487 451 474.5 474.5Q462 498 443 512Q424 526 399 527V537H607V527Q582 526 566.5 512Q551 498 541.5 474Q532 450 528.5 416Q525 382 524 342ZM402 607 244 648Q219 654 204.5 670.5Q190 687 190 708Q190 731 205.5 746.5Q221 762 244 762Q268 762 290 740L413 607Z" glyph-name="Ugrave.smcp" horiz-adv-x="616" /><glyph d="M636 268Q634 130 570 54.5Q506 -21 373 -21Q302 -21 249.5 -2Q197 17 162.5 51.5Q128 86 111 135Q94 184 94 243V586Q94 616 87 635.5Q80 655 68 666.5Q56 678 41 683Q26 688 11 690V700H363V690Q348 688 333 683Q318 678 306 666.5Q294 655 287 635.5Q280 616 280 586V203Q280 130 319.5 84Q359 38 435 38Q474 38 506.5 51.5Q539 65 562 94.5Q585 124 598 170.5Q611 217 611 282V465Q611 514 603.5 555Q596 596 581 625.5Q566 655 543 671.5Q520 688 488 690V700H739V690Q709 688 690 671Q671 654 659.5 624Q648 594 643 552.5Q638 511 638 460ZM365 886Q376 903 390 911Q404 919 418 919Q436 919 448.5 906.5Q461 894 461 877Q461 861 449 846Q437 831 412 820L306 775H296ZM536 886Q546 903 560 911Q574 919 588 919Q607 919 619 906.5Q631 894 631 877Q631 861 619.5 846Q608 831 582 820L476 775H466Z" glyph-name="Uhungarumlaut" horiz-adv-x="748" unicode="&#368;" /><glyph d="M522 222Q520 98 463 40Q406 -18 301 -18Q190 -18 133.5 37.5Q77 93 77 195V443Q77 467 71.5 483Q66 499 56.5 508.5Q47 518 35 522Q23 526 10 527V537H312V527Q300 526 288 522Q276 518 266.5 508.5Q257 499 251.5 483Q246 467 246 443V160Q246 105 277.5 67.5Q309 30 367 30Q426 30 462.5 78Q499 126 499 233V349Q499 387 493 419Q487 451 474.5 474.5Q462 498 443 512Q424 526 399 527V537H607V527Q582 526 566.5 512Q551 498 541.5 474Q532 450 528.5 416Q525 382 524 342ZM290 723Q301 740 315 748Q329 756 343 756Q361 756 373.5 743.5Q386 731 386 714Q386 698 374 683Q362 668 337 657L231 612H221ZM461 723Q471 740 485 748Q499 756 513 756Q532 756 544 743.5Q556 731 556 714Q556 698 544.5 683Q533 668 507 657L401 612H391Z" glyph-name="Uhungarumlaut.smcp" horiz-adv-x="616" /><glyph d="M636 268Q634 130 570 54.5Q506 -21 373 -21Q302 -21 249.5 -2Q197 17 162.5 51.5Q128 86 111 135Q94 184 94 243V586Q94 616 87 635.5Q80 655 68 666.5Q56 678 41 683Q26 688 11 690V700H363V690Q348 688 333 683Q318 678 306 666.5Q294 655 287 635.5Q280 616 280 586V203Q280 130 319.5 84Q359 38 435 38Q474 38 506.5 51.5Q539 65 562 94.5Q585 124 598 170.5Q611 217 611 282V465Q611 514 603.5 555Q596 596 581 625.5Q566 655 543 671.5Q520 688 488 690V700H739V690Q709 688 690 671Q671 654 659.5 624Q648 594 643 552.5Q638 511 638 460ZM558 845V814H277V845Z" glyph-name="Umacron" horiz-adv-x="748" unicode="&#362;" /><glyph d="M522 222Q520 98 463 40Q406 -18 301 -18Q190 -18 133.5 37.5Q77 93 77 195V443Q77 467 71.5 483Q66 499 56.5 508.5Q47 518 35 522Q23 526 10 527V537H312V527Q300 526 288 522Q276 518 266.5 508.5Q257 499 251.5 483Q246 467 246 443V160Q246 105 277.5 67.5Q309 30 367 30Q426 30 462.5 78Q499 126 499 233V349Q499 387 493 419Q487 451 474.5 474.5Q462 498 443 512Q424 526 399 527V537H607V527Q582 526 566.5 512Q551 498 541.5 474Q532 450 528.5 416Q525 382 524 342ZM491 682V651H210V682Z" glyph-name="Umacron.smcp" horiz-adv-x="616" /><glyph d="M441 -245Q416 -245 397 -237Q378 -229 365.5 -215.5Q353 -202 347 -184.5Q341 -167 341 -148Q341 -112 362 -77.5Q383 -43 424 -18Q400 -21 373 -21Q302 -21 249.5 -2Q197 17 162.5 51.5Q128 86 111 135Q94 184 94 243V586Q94 616 87 635.5Q80 655 68 666.5Q56 678 41 683Q26 688 11 690V700H363V690Q348 688 333 683Q318 678 306 666.5Q294 655 287 635.5Q280 616 280 586V203Q280 130 319.5 84Q359 38 435 38Q474 38 506.5 51.5Q539 65 562 94.5Q585 124 598 170.5Q611 217 611 282V465Q611 514 603.5 555Q596 596 581 625.5Q566 655 543 671.5Q520 688 488 690V700H739V690Q709 688 690 671Q671 654 659.5 624Q648 594 643 552.5Q638 511 638 460L636 268Q634 163 598 95Q562 27 487 -2Q462 -15 446 -44Q430 -73 430 -118Q430 -163 445.5 -183Q461 -203 487 -203Q510 -203 530 -186L538 -193Q524 -214 500 -229.5Q476 -245 441 -245Z" glyph-name="Uogonek" horiz-adv-x="748" unicode="&#370;" /><glyph d="M352 -245Q327 -245 308 -237Q289 -229 276.5 -215.5Q264 -202 258 -184.5Q252 -167 252 -148Q252 -111 274 -76Q296 -41 338 -16Q329 -17 320 -17.5Q311 -18 301 -18Q190 -18 133.5 37.5Q77 93 77 195V443Q77 467 71.5 483Q66 499 56.5 508.5Q47 518 35 522Q23 526 10 527V537H312V527Q300 526 288 522Q276 518 266.5 508.5Q257 499 251.5 483Q246 467 246 443V160Q246 105 277.5 67.5Q309 30 367 30Q426 30 462.5 78Q499 126 499 233V349Q499 387 493 419Q487 451 474.5 474.5Q462 498 443 512Q424 526 399 527V537H607V527Q582 526 566.5 512Q551 498 541.5 474Q532 450 528.5 416Q525 382 524 342L522 222Q521 130 489.5 75Q458 20 398 -3Q372 -15 356.5 -44Q341 -73 341 -118Q341 -163 356.5 -183Q372 -203 398 -203Q421 -203 441 -186L449 -193Q435 -214 411 -229.5Q387 -245 352 -245Z" glyph-name="Uogonek.smcp" horiz-adv-x="616" /><glyph d="M636 268Q634 130 570 54.5Q506 -21 373 -21Q302 -21 249.5 -2Q197 17 162.5 51.5Q128 86 111 135Q94 184 94 243V586Q94 616 87 635.5Q80 655 68 666.5Q56 678 41 683Q26 688 11 690V700H363V690Q348 688 333 683Q318 678 306 666.5Q294 655 287 635.5Q280 616 280 586V203Q280 130 319.5 84Q359 38 435 38Q474 38 506.5 51.5Q539 65 562 94.5Q585 124 598 170.5Q611 217 611 282V465Q611 514 603.5 555Q596 596 581 625.5Q566 655 543 671.5Q520 688 488 690V700H739V690Q709 688 690 671Q671 654 659.5 624Q648 594 643 552.5Q638 511 638 460ZM414 950Q398 950 384 943.5Q370 937 359.5 925.5Q349 914 343 899Q337 884 337 867Q337 833 359.5 809.5Q382 786 414 786Q446 786 469 809.5Q492 833 492 867Q492 901 469 925.5Q446 950 414 950ZM414 972Q436 972 454.5 963.5Q473 955 487 941Q501 927 509 907.5Q517 888 517 867Q517 846 509 827Q501 808 487 794Q473 780 454 772Q435 764 414 764Q393 764 374 772Q355 780 341.5 794Q328 808 320 827Q312 846 312 867Q312 888 320 907.5Q328 927 341.5 941Q355 955 373.5 963.5Q392 972 414 972Z" glyph-name="Uring" horiz-adv-x="748" unicode="&#366;" /><glyph d="M522 222Q520 98 463 40Q406 -18 301 -18Q190 -18 133.5 37.5Q77 93 77 195V443Q77 467 71.5 483Q66 499 56.5 508.5Q47 518 35 522Q23 526 10 527V537H312V527Q300 526 288 522Q276 518 266.5 508.5Q257 499 251.5 483Q246 467 246 443V160Q246 105 277.5 67.5Q309 30 367 30Q426 30 462.5 78Q499 126 499 233V349Q499 387 493 419Q487 451 474.5 474.5Q462 498 443 512Q424 526 399 527V537H607V527Q582 526 566.5 512Q551 498 541.5 474Q532 450 528.5 416Q525 382 524 342ZM347 787Q331 787 317 780.5Q303 774 292.5 762.5Q282 751 276 736Q270 721 270 704Q270 670 292.5 646.5Q315 623 347 623Q379 623 402 646.5Q425 670 425 704Q425 738 402 762.5Q379 787 347 787ZM347 809Q369 809 387.5 800.5Q406 792 420 778Q434 764 442 744.5Q450 725 450 704Q450 683 442 664Q434 645 420 631Q406 617 387 609Q368 601 347 601Q326 601 307 609Q288 617 274.5 631Q261 645 253 664Q245 683 245 704Q245 725 253 744.5Q261 764 274.5 778Q288 792 306.5 800.5Q325 809 347 809Z" glyph-name="Uring.smcp" horiz-adv-x="616" /><glyph d="M636 268Q634 130 570 54.5Q506 -21 373 -21Q302 -21 249.5 -2Q197 17 162.5 51.5Q128 86 111 135Q94 184 94 243V586Q94 616 87 635.5Q80 655 68 666.5Q56 678 41 683Q26 688 11 690V700H363V690Q348 688 333 683Q318 678 306 666.5Q294 655 287 635.5Q280 616 280 586V203Q280 130 319.5 84Q359 38 435 38Q474 38 506.5 51.5Q539 65 562 94.5Q585 124 598 170.5Q611 217 611 282V465Q611 514 603.5 555Q596 596 581 625.5Q566 655 543 671.5Q520 688 488 690V700H739V690Q709 688 690 671Q671 654 659.5 624Q648 594 643 552.5Q638 511 638 460ZM579 904Q577 878 569 855.5Q561 833 547.5 815.5Q534 798 516 788Q498 778 476 778Q457 778 439 784Q421 790 403.5 797.5Q386 805 368 811.5Q350 818 331 818Q309 818 292.5 808.5Q276 799 267 778L257 780Q259 805 267.5 827.5Q276 850 289.5 867.5Q303 885 321 895Q339 905 361 905Q380 905 397.5 898.5Q415 892 433 884.5Q451 877 468.5 871Q486 865 505 865Q525 865 542.5 874.5Q560 884 569 906Z" glyph-name="Utilde" horiz-adv-x="748" unicode="&#360;" /><glyph d="M522 222Q520 98 463 40Q406 -18 301 -18Q190 -18 133.5 37.5Q77 93 77 195V443Q77 467 71.5 483Q66 499 56.5 508.5Q47 518 35 522Q23 526 10 527V537H312V527Q300 526 288 522Q276 518 266.5 508.5Q257 499 251.5 483Q246 467 246 443V160Q246 105 277.5 67.5Q309 30 367 30Q426 30 462.5 78Q499 126 499 233V349Q499 387 493 419Q487 451 474.5 474.5Q462 498 443 512Q424 526 399 527V537H607V527Q582 526 566.5 512Q551 498 541.5 474Q532 450 528.5 416Q525 382 524 342ZM512 741Q510 715 502 692.5Q494 670 480.5 652.5Q467 635 449 625Q431 615 409 615Q390 615 372 621Q354 627 336.5 634.5Q319 642 301 648.5Q283 655 264 655Q242 655 225.5 645.5Q209 636 200 615L190 617Q192 642 200.5 664.5Q209 687 222.5 704.5Q236 722 254 732Q272 742 294 742Q313 742 330.5 735.5Q348 729 366 721.5Q384 714 401.5 708Q419 702 438 702Q458 702 475.5 711.5Q493 721 502 743Z" glyph-name="Utilde.smcp" horiz-adv-x="616" /><glyph d="M339 -11 107 587Q89 634 64 658Q39 682 10 690V700H362V690Q339 686 325 676.5Q311 667 306 649Q301 631 306.5 602.5Q312 574 328 531L451 199L543 445Q589 567 571.5 624Q554 681 482 690V700H740V690Q719 687 700 675Q681 663 661.5 637.5Q642 612 621.5 571.5Q601 531 579 471L397 -11Z" glyph-name="V" horiz-adv-x="750" unicode="V" /><glyph d="M275 -8 106 400Q92 433 81 455.5Q70 478 59 492.5Q48 507 36.5 515Q25 523 10 528V537H313V528Q283 521 272 494Q261 467 284 408L382 165L442 324Q462 377 467.5 413.5Q473 450 466.5 473.5Q460 497 442.5 510Q425 523 398 528V537H610V528Q593 524 577.5 515Q562 506 545.5 484.5Q529 463 510 425Q491 387 467 326L335 -8Z" glyph-name="V.smcp" horiz-adv-x="619" /><glyph d="M557 435 390 -11H338L128 538Q113 577 99 604Q85 631 71 649Q57 667 42 676.5Q27 686 10 690V700H353V690Q332 686 318.5 679Q305 672 300 657.5Q295 643 299 620.5Q303 598 316 563L449 210L544 469L504 574Q485 625 462.5 653.5Q440 682 416 690V700H735V690Q717 687 705 679Q693 671 689 657Q685 643 688.5 621Q692 599 705 566L836 224L909 436Q950 557 929.5 620Q909 683 846 690V700H1110V690Q1090 689 1070 678.5Q1050 668 1030.5 645.5Q1011 623 992.5 586.5Q974 550 956 498L779 -11H728Z" glyph-name="W" horiz-adv-x="1119" unicode="W" /><glyph d="M455 319 328 -8H276L110 397Q84 458 62.5 488.5Q41 519 10 527V537H297V527Q269 520 262 500Q255 480 272 438L376 176L443 348L412 430Q394 475 374.5 498.5Q355 522 339 527V537H612V527Q597 524 588.5 518Q580 512 577.5 500.5Q575 489 579 471Q583 453 593 426L682 185L732 324Q767 419 748.5 469.5Q730 520 679 527V537H898V527Q866 522 832.5 480.5Q799 439 768 354L632 -8H580Z" glyph-name="W.smcp" horiz-adv-x="908" /><glyph d="M557 435 390 -11H338L128 538Q113 577 99 604Q85 631 71 649Q57 667 42 676.5Q27 686 10 690V700H353V690Q332 686 318.5 679Q305 672 300 657.5Q295 643 299 620.5Q303 598 316 563L449 210L544 469L504 574Q485 625 462.5 653.5Q440 682 416 690V700H735V690Q717 687 705 679Q693 671 689 657Q685 643 688.5 621Q692 599 705 566L836 224L909 436Q950 557 929.5 620Q909 683 846 690V700H1110V690Q1090 689 1070 678.5Q1050 668 1030.5 645.5Q1011 623 992.5 586.5Q974 550 956 498L779 -11H728ZM627 903Q649 925 673 925Q696 925 711.5 909.5Q727 894 727 871Q727 850 712.5 833.5Q698 817 673 811L515 770H504Z" glyph-name="Wacute" horiz-adv-x="1119" unicode="&#7810;" /><glyph d="M455 319 328 -8H276L110 397Q84 458 62.5 488.5Q41 519 10 527V537H297V527Q269 520 262 500Q255 480 272 438L376 176L443 348L412 430Q394 475 374.5 498.5Q355 522 339 527V537H612V527Q597 524 588.5 518Q580 512 577.5 500.5Q575 489 579 471Q583 453 593 426L682 185L732 324Q767 419 748.5 469.5Q730 520 679 527V537H898V527Q866 522 832.5 480.5Q799 439 768 354L632 -8H580ZM520 740Q542 762 566 762Q589 762 604.5 746.5Q620 731 620 708Q620 687 605.5 670.5Q591 654 566 648L408 607H397Z" glyph-name="Wacute.smcp" horiz-adv-x="908" /><glyph d="M557 435 390 -11H338L128 538Q113 577 99 604Q85 631 71 649Q57 667 42 676.5Q27 686 10 690V700H353V690Q332 686 318.5 679Q305 672 300 657.5Q295 643 299 620.5Q303 598 316 563L449 210L544 469L504 574Q485 625 462.5 653.5Q440 682 416 690V700H735V690Q717 687 705 679Q693 671 689 657Q685 643 688.5 621Q692 599 705 566L836 224L909 436Q950 557 929.5 620Q909 683 846 690V700H1110V690Q1090 689 1070 678.5Q1050 668 1030.5 645.5Q1011 623 992.5 586.5Q974 550 956 498L779 -11H728ZM578 831 427 776H413L529 906H629L741 776H723Z" glyph-name="Wcircumflex" horiz-adv-x="1119" unicode="&#372;" /><glyph d="M455 319 328 -8H276L110 397Q84 458 62.5 488.5Q41 519 10 527V537H297V527Q269 520 262 500Q255 480 272 438L376 176L443 348L412 430Q394 475 374.5 498.5Q355 522 339 527V537H612V527Q597 524 588.5 518Q580 512 577.5 500.5Q575 489 579 471Q583 453 593 426L682 185L732 324Q767 419 748.5 469.5Q730 520 679 527V537H898V527Q866 522 832.5 480.5Q799 439 768 354L632 -8H580ZM470 668 319 613H305L421 743H521L633 613H615Z" glyph-name="Wcircumflex.smcp" horiz-adv-x="908" /><glyph d="M557 435 390 -11H338L128 538Q113 577 99 604Q85 631 71 649Q57 667 42 676.5Q27 686 10 690V700H353V690Q332 686 318.5 679Q305 672 300 657.5Q295 643 299 620.5Q303 598 316 563L449 210L544 469L504 574Q485 625 462.5 653.5Q440 682 416 690V700H735V690Q717 687 705 679Q693 671 689 657Q685 643 688.5 621Q692 599 705 566L836 224L909 436Q950 557 929.5 620Q909 683 846 690V700H1110V690Q1090 689 1070 678.5Q1050 668 1030.5 645.5Q1011 623 992.5 586.5Q974 550 956 498L779 -11H728ZM680 777Q646 777 622 801Q598 825 598 859Q598 875 604.5 889.5Q611 904 622 915.5Q633 927 648 933.5Q663 940 680 940Q714 940 738.5 916Q763 892 763 859Q763 825 738.5 801Q714 777 680 777ZM470 777Q437 777 412.5 801Q388 825 388 859Q388 875 394.5 889.5Q401 904 412.5 915.5Q424 927 438.5 933.5Q453 940 470 940Q505 940 529 916Q553 892 553 859Q553 825 529 801Q505 777 470 777Z" glyph-name="Wdieresis" horiz-adv-x="1119" unicode="&#7812;" /><glyph d="M455 319 328 -8H276L110 397Q84 458 62.5 488.5Q41 519 10 527V537H297V527Q269 520 262 500Q255 480 272 438L376 176L443 348L412 430Q394 475 374.5 498.5Q355 522 339 527V537H612V527Q597 524 588.5 518Q580 512 577.5 500.5Q575 489 579 471Q583 453 593 426L682 185L732 324Q767 419 748.5 469.5Q730 520 679 527V537H898V527Q866 522 832.5 480.5Q799 439 768 354L632 -8H580ZM572 614Q538 614 514 638Q490 662 490 696Q490 712 496.5 726.5Q503 741 514 752.5Q525 764 540 770.5Q555 777 572 777Q606 777 630.5 753Q655 729 655 696Q655 662 630.5 638Q606 614 572 614ZM362 614Q329 614 304.5 638Q280 662 280 696Q280 712 286.5 726.5Q293 741 304.5 752.5Q316 764 330.5 770.5Q345 777 362 777Q397 777 421 753Q445 729 445 696Q445 662 421 638Q397 614 362 614Z" glyph-name="Wdieresis.smcp" horiz-adv-x="908" /><glyph d="M557 435 390 -11H338L128 538Q113 577 99 604Q85 631 71 649Q57 667 42 676.5Q27 686 10 690V700H353V690Q332 686 318.5 679Q305 672 300 657.5Q295 643 299 620.5Q303 598 316 563L449 210L544 469L504 574Q485 625 462.5 653.5Q440 682 416 690V700H735V690Q717 687 705 679Q693 671 689 657Q685 643 688.5 621Q692 599 705 566L836 224L909 436Q950 557 929.5 620Q909 683 846 690V700H1110V690Q1090 689 1070 678.5Q1050 668 1030.5 645.5Q1011 623 992.5 586.5Q974 550 956 498L779 -11H728ZM630 770 472 811Q447 817 432.5 833.5Q418 850 418 871Q418 894 433.5 909.5Q449 925 472 925Q496 925 518 903L641 770Z" glyph-name="Wgrave" horiz-adv-x="1119" unicode="&#7808;" /><glyph d="M455 319 328 -8H276L110 397Q84 458 62.5 488.5Q41 519 10 527V537H297V527Q269 520 262 500Q255 480 272 438L376 176L443 348L412 430Q394 475 374.5 498.5Q355 522 339 527V537H612V527Q597 524 588.5 518Q580 512 577.5 500.5Q575 489 579 471Q583 453 593 426L682 185L732 324Q767 419 748.5 469.5Q730 520 679 527V537H898V527Q866 522 832.5 480.5Q799 439 768 354L632 -8H580ZM522 607 364 648Q339 654 324.5 670.5Q310 687 310 708Q310 731 325.5 746.5Q341 762 364 762Q388 762 410 740L533 607Z" glyph-name="Wgrave.smcp" horiz-adv-x="908" /><glyph d="M303 0H15V10Q37 14 61.5 25Q86 36 112 56.5Q138 77 166 108.5Q194 140 225 187L303 304L134 584Q118 611 104.5 629Q91 647 78 659.5Q65 672 51.5 679Q38 686 23 690V700H372V690Q332 685 323.5 661Q315 637 333 606L436 430L487 509Q510 545 516.5 575.5Q523 606 517 630Q511 654 493.5 669.5Q476 685 451 690V700H724V690Q677 682 624.5 642Q572 602 513 510L448 409L623 116Q639 88 654 69Q669 50 682.5 38Q696 26 709 19.5Q722 13 735 10V0H386V10Q424 15 432.5 40.5Q441 66 418 105L315 282L258 194Q233 156 226.5 124Q220 92 228 68Q236 44 256 29Q276 14 303 10Z" glyph-name="X" horiz-adv-x="750" unicode="X" /><glyph d="M233 0H10V10Q51 18 98 54.5Q145 91 191 158L244 236L114 446Q91 482 70.5 501.5Q50 521 27 527V537H318V527Q289 522 284.5 503Q280 484 296 456L366 336L393 374Q414 405 423 432Q432 459 430 479.5Q428 500 416 512.5Q404 525 383 527V537H595V527Q557 519 513.5 486Q470 453 422 383L377 317L518 91Q541 54 561.5 35Q582 16 602 10V0H314V10Q370 20 337 80L256 216L217 158Q200 132 192.5 106.5Q185 81 187 60Q189 39 200.5 25Q212 11 233 10Z" glyph-name="X.smcp" horiz-adv-x="612" /><glyph d="M168 0V10Q184 11 199 16.5Q214 22 225.5 33.5Q237 45 244 64.5Q251 84 251 114V300L103 587Q89 612 77.5 629.5Q66 647 55 659Q44 671 33 678Q22 685 10 690V700H341V690Q308 687 297 658Q286 629 305 592L428 341L500 487Q545 575 535 626.5Q525 678 458 690V700H701V690Q669 688 627.5 647Q586 606 548 529L437 306V114Q437 84 444 64.5Q451 45 462.5 33.5Q474 22 489 16.5Q504 11 520 10V0Z" glyph-name="Y" horiz-adv-x="710" unicode="Y" /><glyph d="M131 0V10Q143 11 155 15.5Q167 20 176.5 29.5Q186 39 191.5 54.5Q197 70 197 94V228L83 444Q63 479 47.5 498.5Q32 518 10 529V537H295V529Q267 524 261 498Q255 472 274 435L360 266L411 375Q429 412 432 440Q435 468 428.5 486.5Q422 505 409.5 515.5Q397 526 383 529V537H572V529Q558 525 542.5 516.5Q527 508 510.5 492.5Q494 477 476.5 451.5Q459 426 441 389L367 232V94Q367 70 372.5 54.5Q378 39 387.5 29.5Q397 20 409 15.5Q421 11 433 10V0Z" glyph-name="Y.smcp" horiz-adv-x="582" /><glyph d="M168 0V10Q184 11 199 16.5Q214 22 225.5 33.5Q237 45 244 64.5Q251 84 251 114V300L103 587Q89 612 77.5 629.5Q66 647 55 659Q44 671 33 678Q22 685 10 690V700H341V690Q308 687 297 658Q286 629 305 592L428 341L500 487Q545 575 535 626.5Q525 678 458 690V700H701V690Q669 688 627.5 647Q586 606 548 529L437 306V114Q437 84 444 64.5Q451 45 462.5 33.5Q474 22 489 16.5Q504 11 520 10V0ZM425 903Q447 925 471 925Q494 925 509.5 909.5Q525 894 525 871Q525 850 510.5 833.5Q496 817 471 811L313 770H302Z" glyph-name="Yacute" horiz-adv-x="710" unicode="&#221;" /><glyph d="M131 0V10Q143 11 155 15.5Q167 20 176.5 29.5Q186 39 191.5 54.5Q197 70 197 94V228L83 444Q63 479 47.5 498.5Q32 518 10 529V537H295V529Q267 524 261 498Q255 472 274 435L360 266L411 375Q429 412 432 440Q435 468 428.5 486.5Q422 505 409.5 515.5Q397 526 383 529V537H572V529Q558 525 542.5 516.5Q527 508 510.5 492.5Q494 477 476.5 451.5Q459 426 441 389L367 232V94Q367 70 372.5 54.5Q378 39 387.5 29.5Q397 20 409 15.5Q421 11 433 10V0ZM359 740Q381 762 405 762Q428 762 443.5 746.5Q459 731 459 708Q459 687 444.5 670.5Q430 654 405 648L247 607H236Z" glyph-name="Yacute.smcp" horiz-adv-x="582" /><glyph d="M168 0V10Q184 11 199 16.5Q214 22 225.5 33.5Q237 45 244 64.5Q251 84 251 114V300L103 587Q89 612 77.5 629.5Q66 647 55 659Q44 671 33 678Q22 685 10 690V700H341V690Q308 687 297 658Q286 629 305 592L428 341L500 487Q545 575 535 626.5Q525 678 458 690V700H701V690Q669 688 627.5 647Q586 606 548 529L437 306V114Q437 84 444 64.5Q451 45 462.5 33.5Q474 22 489 16.5Q504 11 520 10V0ZM375 831 224 776H210L326 906H426L538 776H520Z" glyph-name="Ycircumflex" horiz-adv-x="710" unicode="&#374;" /><glyph d="M131 0V10Q143 11 155 15.5Q167 20 176.5 29.5Q186 39 191.5 54.5Q197 70 197 94V228L83 444Q63 479 47.5 498.5Q32 518 10 529V537H295V529Q267 524 261 498Q255 472 274 435L360 266L411 375Q429 412 432 440Q435 468 428.5 486.5Q422 505 409.5 515.5Q397 526 383 529V537H572V529Q558 525 542.5 516.5Q527 508 510.5 492.5Q494 477 476.5 451.5Q459 426 441 389L367 232V94Q367 70 372.5 54.5Q378 39 387.5 29.5Q397 20 409 15.5Q421 11 433 10V0ZM309 668 158 613H144L260 743H360L472 613H454Z" glyph-name="Ycircumflex.smcp" horiz-adv-x="582" /><glyph d="M168 0V10Q184 11 199 16.5Q214 22 225.5 33.5Q237 45 244 64.5Q251 84 251 114V300L103 587Q89 612 77.5 629.5Q66 647 55 659Q44 671 33 678Q22 685 10 690V700H341V690Q308 687 297 658Q286 629 305 592L428 341L500 487Q545 575 535 626.5Q525 678 458 690V700H701V690Q669 688 627.5 647Q586 606 548 529L437 306V114Q437 84 444 64.5Q451 45 462.5 33.5Q474 22 489 16.5Q504 11 520 10V0ZM477 777Q443 777 419 801Q395 825 395 859Q395 875 401.5 889.5Q408 904 419 915.5Q430 927 445 933.5Q460 940 477 940Q511 940 535.5 916Q560 892 560 859Q560 825 535.5 801Q511 777 477 777ZM267 777Q234 777 209.5 801Q185 825 185 859Q185 875 191.5 889.5Q198 904 209.5 915.5Q221 927 235.5 933.5Q250 940 267 940Q302 940 326 916Q350 892 350 859Q350 825 326 801Q302 777 267 777Z" glyph-name="Ydieresis" horiz-adv-x="710" unicode="&#376;" /><glyph d="M131 0V10Q143 11 155 15.5Q167 20 176.5 29.5Q186 39 191.5 54.5Q197 70 197 94V228L83 444Q63 479 47.5 498.5Q32 518 10 529V537H295V529Q267 524 261 498Q255 472 274 435L360 266L411 375Q429 412 432 440Q435 468 428.5 486.5Q422 505 409.5 515.5Q397 526 383 529V537H572V529Q558 525 542.5 516.5Q527 508 510.5 492.5Q494 477 476.5 451.5Q459 426 441 389L367 232V94Q367 70 372.5 54.5Q378 39 387.5 29.5Q397 20 409 15.5Q421 11 433 10V0ZM411 614Q377 614 353 638Q329 662 329 696Q329 712 335.5 726.5Q342 741 353 752.5Q364 764 379 770.5Q394 777 411 777Q445 777 469.5 753Q494 729 494 696Q494 662 469.5 638Q445 614 411 614ZM201 614Q168 614 143.5 638Q119 662 119 696Q119 712 125.5 726.5Q132 741 143.5 752.5Q155 764 169.5 770.5Q184 777 201 777Q236 777 260 753Q284 729 284 696Q284 662 260 638Q236 614 201 614Z" glyph-name="Ydieresis.smcp" horiz-adv-x="582" /><glyph d="M168 0V10Q184 11 199 16.5Q214 22 225.5 33.5Q237 45 244 64.5Q251 84 251 114V300L103 587Q89 612 77.5 629.5Q66 647 55 659Q44 671 33 678Q22 685 10 690V700H341V690Q308 687 297 658Q286 629 305 592L428 341L500 487Q545 575 535 626.5Q525 678 458 690V700H701V690Q669 688 627.5 647Q586 606 548 529L437 306V114Q437 84 444 64.5Q451 45 462.5 33.5Q474 22 489 16.5Q504 11 520 10V0ZM427 770 269 811Q244 817 229.5 833.5Q215 850 215 871Q215 894 230.5 909.5Q246 925 269 925Q293 925 315 903L438 770Z" glyph-name="Ygrave" horiz-adv-x="710" unicode="&#7922;" /><glyph d="M131 0V10Q143 11 155 15.5Q167 20 176.5 29.5Q186 39 191.5 54.5Q197 70 197 94V228L83 444Q63 479 47.5 498.5Q32 518 10 529V537H295V529Q267 524 261 498Q255 472 274 435L360 266L411 375Q429 412 432 440Q435 468 428.5 486.5Q422 505 409.5 515.5Q397 526 383 529V537H572V529Q558 525 542.5 516.5Q527 508 510.5 492.5Q494 477 476.5 451.5Q459 426 441 389L367 232V94Q367 70 372.5 54.5Q378 39 387.5 29.5Q397 20 409 15.5Q421 11 433 10V0ZM361 607 203 648Q178 654 163.5 670.5Q149 687 149 708Q149 731 164.5 746.5Q180 762 203 762Q227 762 249 740L372 607Z" glyph-name="Ygrave.smcp" horiz-adv-x="582" /><glyph d="M22 12 400 682H333Q291 682 250.5 668Q210 654 174.5 629Q139 604 110 570.5Q81 537 61 498H45L82 700H602L607 688L234 18H315Q400 18 474.5 73.5Q549 129 600 233H615L588 0H26Z" glyph-name="Z" horiz-adv-x="655" unicode="Z" /><glyph d="M15 11 323 520H275Q235 520 199.5 507.5Q164 495 135 473Q106 451 83.5 422.5Q61 394 46 361H31L67 537H504L509 526L200 17H277Q316 17 351 33.5Q386 50 415 77Q444 104 466 138Q488 172 501 207H515L495 0H19Z" glyph-name="Z.smcp" horiz-adv-x="546" /><glyph d="M22 12 400 682H333Q291 682 250.5 668Q210 654 174.5 629Q139 604 110 570.5Q81 537 61 498H45L82 700H602L607 688L234 18H315Q400 18 474.5 73.5Q549 129 600 233H615L588 0H26ZM385 903Q407 925 431 925Q454 925 469.5 909.5Q485 894 485 871Q485 850 470.5 833.5Q456 817 431 811L273 770H262Z" glyph-name="Zacute" horiz-adv-x="655" unicode="&#377;" /><glyph d="M15 11 323 520H275Q235 520 199.5 507.5Q164 495 135 473Q106 451 83.5 422.5Q61 394 46 361H31L67 537H504L509 526L200 17H277Q316 17 351 33.5Q386 50 415 77Q444 104 466 138Q488 172 501 207H515L495 0H19ZM328 740Q350 762 374 762Q397 762 412.5 746.5Q428 731 428 708Q428 687 413.5 670.5Q399 654 374 648L216 607H205Z" glyph-name="Zacute.smcp" horiz-adv-x="546" /><glyph d="M22 12 400 682H333Q291 682 250.5 668Q210 654 174.5 629Q139 604 110 570.5Q81 537 61 498H45L82 700H602L607 688L234 18H315Q400 18 474.5 73.5Q549 129 600 233H615L588 0H26ZM333 852 484 906H498L382 776H282L170 906H188Z" glyph-name="Zcaron" horiz-adv-x="655" unicode="&#381;" /><glyph d="M15 11 323 520H275Q235 520 199.5 507.5Q164 495 135 473Q106 451 83.5 422.5Q61 394 46 361H31L67 537H504L509 526L200 17H277Q316 17 351 33.5Q386 50 415 77Q444 104 466 138Q488 172 501 207H515L495 0H19ZM277 689 428 743H442L326 613H226L114 743H132Z" glyph-name="Zcaron.smcp" horiz-adv-x="546" /><glyph d="M22 12 400 682H333Q291 682 250.5 668Q210 654 174.5 629Q139 604 110 570.5Q81 537 61 498H45L82 700H602L607 688L234 18H315Q400 18 474.5 73.5Q549 129 600 233H615L588 0H26ZM332 777Q299 777 274.5 801Q250 825 250 859Q250 875 256.5 889.5Q263 904 274.5 915.5Q286 927 300.5 933.5Q315 940 332 940Q366 940 390.5 916Q415 892 415 859Q415 825 390.5 801Q366 777 332 777Z" glyph-name="Zdotaccent" horiz-adv-x="655" unicode="&#379;" /><glyph d="M15 11 323 520H275Q235 520 199.5 507.5Q164 495 135 473Q106 451 83.5 422.5Q61 394 46 361H31L67 537H504L509 526L200 17H277Q316 17 351 33.5Q386 50 415 77Q444 104 466 138Q488 172 501 207H515L495 0H19ZM276 614Q243 614 218.5 638Q194 662 194 696Q194 712 200.5 726.5Q207 741 218.5 752.5Q230 764 244.5 770.5Q259 777 276 777Q310 777 334.5 753Q359 729 359 696Q359 662 334.5 638Q310 614 276 614Z" glyph-name="Zdotaccent.smcp" horiz-adv-x="546" /><glyph d="M385 -16Q349 -16 324 0Q299 16 288 50Q256 18 216.5 0Q177 -18 139 -18Q116 -18 95 -11Q74 -4 57.5 10Q41 24 31 44Q21 64 21 91Q21 119 32.5 144Q44 169 73.5 192Q103 215 153 236.5Q203 258 280 279V367Q280 420 269.5 440Q259 460 238 460Q221 460 213.5 451.5Q206 443 202.5 429.5Q199 416 196.5 398Q194 380 187 361Q176 329 155 316Q134 303 112 303Q85 303 66 321Q47 339 47 368Q47 413 95 444.5Q143 476 242 476Q346 476 396.5 432.5Q447 389 447 317V88Q447 48 476 48Q498 48 515 72L525 65Q502 27 466 5.5Q430 -16 385 -16ZM235 52Q261 52 283 70Q280 86 280 106V262Q247 249 226.5 233Q206 217 194 199.5Q182 182 178 163.5Q174 145 174 129Q174 89 192 70.5Q210 52 235 52Z" glyph-name="a" horiz-adv-x="526" unicode="a" /><glyph d="M385 -16Q349 -16 324 0Q299 16 288 50Q256 18 216.5 0Q177 -18 139 -18Q116 -18 95 -11Q74 -4 57.5 10Q41 24 31 44Q21 64 21 91Q21 119 32.5 144Q44 169 73.5 192Q103 215 153 236.5Q203 258 280 279V367Q280 420 269.5 440Q259 460 238 460Q221 460 213.5 451.5Q206 443 202.5 429.5Q199 416 196.5 398Q194 380 187 361Q176 329 155 316Q134 303 112 303Q85 303 66 321Q47 339 47 368Q47 413 95 444.5Q143 476 242 476Q346 476 396.5 432.5Q447 389 447 317V88Q447 48 476 48Q498 48 515 72L525 65Q502 27 466 5.5Q430 -16 385 -16ZM235 52Q261 52 283 70Q280 86 280 106V262Q247 249 226.5 233Q206 217 194 199.5Q182 182 178 163.5Q174 145 174 129Q174 89 192 70.5Q210 52 235 52ZM175 522 288 676Q299 692 312.5 699Q326 706 340 706Q361 706 376.5 691Q392 676 392 653Q392 636 381.5 618Q371 600 345 589L188 522Z" glyph-name="aacute" horiz-adv-x="526" unicode="&#225;" /><glyph d="M385 -16Q349 -16 324 0Q299 16 288 50Q256 18 216.5 0Q177 -18 139 -18Q116 -18 95 -11Q74 -4 57.5 10Q41 24 31 44Q21 64 21 91Q21 119 32.5 144Q44 169 73.5 192Q103 215 153 236.5Q203 258 280 279V367Q280 420 269.5 440Q259 460 238 460Q221 460 213.5 451.5Q206 443 202.5 429.5Q199 416 196.5 398Q194 380 187 361Q176 329 155 316Q134 303 112 303Q85 303 66 321Q47 339 47 368Q47 413 95 444.5Q143 476 242 476Q346 476 396.5 432.5Q447 389 447 317V88Q447 48 476 48Q498 48 515 72L525 65Q502 27 466 5.5Q430 -16 385 -16ZM235 52Q261 52 283 70Q280 86 280 106V262Q247 249 226.5 233Q206 217 194 199.5Q182 182 178 163.5Q174 145 174 129Q174 89 192 70.5Q210 52 235 52ZM236 541Q205 541 178 550Q151 559 131.5 577Q112 595 101 621.5Q90 648 90 682H106Q111 652 145 635.5Q179 619 236 619Q293 619 327.5 635.5Q362 652 367 682H383Q383 648 371.5 621.5Q360 595 340.5 577Q321 559 294 550Q267 541 236 541Z" glyph-name="abreve" horiz-adv-x="526" unicode="&#259;" /><glyph d="M385 -16Q349 -16 324 0Q299 16 288 50Q256 18 216.5 0Q177 -18 139 -18Q116 -18 95 -11Q74 -4 57.5 10Q41 24 31 44Q21 64 21 91Q21 119 32.5 144Q44 169 73.5 192Q103 215 153 236.5Q203 258 280 279V367Q280 420 269.5 440Q259 460 238 460Q221 460 213.5 451.5Q206 443 202.5 429.5Q199 416 196.5 398Q194 380 187 361Q176 329 155 316Q134 303 112 303Q85 303 66 321Q47 339 47 368Q47 413 95 444.5Q143 476 242 476Q346 476 396.5 432.5Q447 389 447 317V88Q447 48 476 48Q498 48 515 72L525 65Q502 27 466 5.5Q430 -16 385 -16ZM235 52Q261 52 283 70Q280 86 280 106V262Q247 249 226.5 233Q206 217 194 199.5Q182 182 178 163.5Q174 145 174 129Q174 89 192 70.5Q210 52 235 52ZM238 600 86 521H72L189 676H289L402 521H384Z" glyph-name="acircumflex" horiz-adv-x="526" unicode="&#226;" /><glyph d="M141 522 254 676Q265 692 278.5 699Q292 706 306 706Q327 706 342.5 691Q358 676 358 653Q358 636 347.5 618Q337 600 311 589L154 522Z" glyph-name="acute" horiz-adv-x="500" unicode="&#180;" /><glyph d="M266 903Q288 925 312 925Q335 925 350.5 909.5Q366 894 366 871Q366 850 351.5 833.5Q337 817 312 811L154 770H143Z" glyph-name="acute.cap" horiz-adv-x="500" /><glyph d="M385 -16Q349 -16 324 0Q299 16 288 50Q256 18 216.5 0Q177 -18 139 -18Q116 -18 95 -11Q74 -4 57.5 10Q41 24 31 44Q21 64 21 91Q21 119 32.5 144Q44 169 73.5 192Q103 215 153 236.5Q203 258 280 279V367Q280 420 269.5 440Q259 460 238 460Q221 460 213.5 451.5Q206 443 202.5 429.5Q199 416 196.5 398Q194 380 187 361Q176 329 155 316Q134 303 112 303Q85 303 66 321Q47 339 47 368Q47 413 95 444.5Q143 476 242 476Q346 476 396.5 432.5Q447 389 447 317V88Q447 48 476 48Q498 48 515 72L525 65Q502 27 466 5.5Q430 -16 385 -16ZM235 52Q261 52 283 70Q280 86 280 106V262Q247 249 226.5 233Q206 217 194 199.5Q182 182 178 163.5Q174 145 174 129Q174 89 192 70.5Q210 52 235 52ZM50 618Q50 634 56.5 648.5Q63 663 74.5 674.5Q86 686 100.5 692.5Q115 699 132 699Q167 699 191 675Q215 651 215 618Q215 584 191 560Q167 536 132 536Q99 536 74.5 560Q50 584 50 618ZM260 618Q260 634 266.5 648.5Q273 663 284 674.5Q295 686 310 692.5Q325 699 342 699Q376 699 400.5 675Q425 651 425 618Q425 584 400.5 560Q376 536 342 536Q308 536 284 560Q260 584 260 618Z" glyph-name="adieresis" horiz-adv-x="526" unicode="&#228;" /><glyph d="M245 66Q264 66 279.5 71Q295 76 314 93Q298 120 289 152.5Q280 185 280 223V262Q247 249 226.5 233Q206 217 194 200Q182 183 178 166Q174 149 174 134Q174 122 178 110Q182 98 190.5 88.5Q199 79 212.5 72.5Q226 66 245 66ZM516 458Q502 458 488 446Q474 434 463 411.5Q452 389 445 357.5Q438 326 438 287H574Q580 458 516 458ZM722 156Q700 70 642 26Q584 -18 508 -18Q456 -18 406.5 6.5Q357 31 325 77Q286 35 246 8.5Q206 -18 153 -18Q127 -18 103 -11Q79 -4 61 10Q43 24 32.5 45Q22 66 22 94Q22 120 32.5 144.5Q43 169 71.5 191.5Q100 214 150 236Q200 258 280 279V367Q280 421 269.5 441Q259 461 238 461Q221 461 213.5 452.5Q206 444 202.5 430Q199 416 196.5 398Q194 380 187 361Q176 329 155 316Q134 303 111 303Q84 303 65.5 321Q47 339 47 368Q47 413 95 444.5Q143 476 242 476Q292 476 326 464.5Q360 453 382 430Q411 452 445.5 464Q480 476 516 476Q561 476 598 461Q635 446 662.5 419Q690 392 706 353Q722 314 724 266H438Q443 176 483.5 130Q524 84 587 84Q628 84 659.5 105.5Q691 127 710 160Z" glyph-name="ae" horiz-adv-x="748" unicode="&#230;" /><glyph d="M385 -16Q349 -16 324 0Q299 16 288 50Q256 18 216.5 0Q177 -18 139 -18Q116 -18 95 -11Q74 -4 57.5 10Q41 24 31 44Q21 64 21 91Q21 119 32.5 144Q44 169 73.5 192Q103 215 153 236.5Q203 258 280 279V367Q280 420 269.5 440Q259 460 238 460Q221 460 213.5 451.5Q206 443 202.5 429.5Q199 416 196.5 398Q194 380 187 361Q176 329 155 316Q134 303 112 303Q85 303 66 321Q47 339 47 368Q47 413 95 444.5Q143 476 242 476Q346 476 396.5 432.5Q447 389 447 317V88Q447 48 476 48Q498 48 515 72L525 65Q502 27 466 5.5Q430 -16 385 -16ZM235 52Q261 52 283 70Q280 86 280 106V262Q247 249 226.5 233Q206 217 194 199.5Q182 182 178 163.5Q174 145 174 129Q174 89 192 70.5Q210 52 235 52ZM289 523 132 590Q106 601 95 618.5Q84 636 84 653Q84 676 99 692Q114 708 137 708Q166 708 189 677L302 523Z" glyph-name="agrave" horiz-adv-x="526" unicode="&#224;" /><glyph d="M385 -16Q349 -16 324 0Q299 16 288 50Q256 18 216.5 0Q177 -18 139 -18Q116 -18 95 -11Q74 -4 57.5 10Q41 24 31 44Q21 64 21 91Q21 119 32.5 144Q44 169 73.5 192Q103 215 153 236.5Q203 258 280 279V367Q280 420 269.5 440Q259 460 238 460Q221 460 213.5 451.5Q206 443 202.5 429.5Q199 416 196.5 398Q194 380 187 361Q176 329 155 316Q134 303 112 303Q85 303 66 321Q47 339 47 368Q47 413 95 444.5Q143 476 242 476Q346 476 396.5 432.5Q447 389 447 317V88Q447 48 476 48Q498 48 515 72L525 65Q502 27 466 5.5Q430 -16 385 -16ZM235 52Q261 52 283 70Q280 86 280 106V262Q247 249 226.5 233Q206 217 194 199.5Q182 182 178 163.5Q174 145 174 129Q174 89 192 70.5Q210 52 235 52ZM378 632V601H97V632Z" glyph-name="amacron" horiz-adv-x="526" unicode="&#257;" /><glyph d="M427 61Q377 19 326 0.5Q275 -18 223 -18Q173 -18 135 -4.5Q97 9 71.5 32.5Q46 56 33.5 86.5Q21 117 21 152Q21 189 35.5 221Q50 253 73.5 280Q97 307 128 329.5Q159 352 192 372Q147 434 129.5 477Q112 520 112 557Q112 594 129 624.5Q146 655 174 676Q202 697 239 708.5Q276 720 317 720Q352 720 383 711.5Q414 703 437 687.5Q460 672 473.5 650Q487 628 487 600Q487 584 481 566.5Q475 549 460 529.5Q445 510 418.5 488Q392 466 352 442L527 218Q537 235 546.5 252Q556 269 566 289Q583 325 585 352.5Q587 380 577.5 399Q568 418 549 429.5Q530 441 505 446V458H737V445Q714 440 695.5 431Q677 422 660.5 405Q644 388 629 362.5Q614 337 597 300Q583 272 569.5 247Q556 222 542 199L605 118Q626 91 642.5 72Q659 53 672.5 40.5Q686 28 698 20.5Q710 13 722 9V0H473ZM304 50Q360 50 410 84L214 343Q193 314 183 280.5Q173 247 173 210Q173 141 206 95.5Q239 50 304 50ZM256 625Q256 608 260 592Q264 576 273.5 557Q283 538 298 515Q313 492 336 463Q360 492 367.5 526.5Q375 561 375 588Q375 638 358.5 670Q342 702 313 702Q293 702 274.5 682.5Q256 663 256 625Z" glyph-name="ampersand" horiz-adv-x="749" unicode="&amp;" /><glyph d="M330 42Q293 13 253.5 -2Q214 -17 176 -17Q137 -17 106.5 -7Q76 3 54.5 20.5Q33 38 22 62Q11 86 11 113Q11 142 22 167Q33 192 51.5 213Q70 234 93.5 251Q117 268 142 283Q117 317 101 350Q85 383 85 418Q85 449 99 474.5Q113 500 136 517Q159 534 190 543.5Q221 553 256 553Q317 553 355 528Q393 503 393 462Q393 436 371 406Q349 376 285 341L418 169Q423 177 427.5 185.5Q432 194 437 202Q453 233 455 258Q457 283 449 300.5Q441 318 426.5 328.5Q412 339 395 342V352H582V342Q566 340 552 332.5Q538 325 524 311Q510 297 496 274.5Q482 252 467 220Q458 202 449 185.5Q440 169 430 154L474 97Q500 65 521.5 43.5Q543 22 569 7V0H363ZM247 48Q282 48 313 64L164 255Q139 218 139 167Q139 144 144 122.5Q149 101 161.5 84.5Q174 68 194.5 58Q215 48 247 48ZM269 361Q283 381 289.5 406Q296 431 296 460Q296 496 285 517.5Q274 539 252 539Q236 539 224 524Q212 509 212 483Q212 457 224 430.5Q236 404 261 372Z" glyph-name="ampersand.smcp" horiz-adv-x="591" /><glyph d="M235 52Q261 52 283 70Q280 86 280 106V262Q247 249 226.5 233Q206 217 194 199.5Q182 182 178 163.5Q174 145 174 129Q174 89 192 70.5Q210 52 235 52ZM403 -245Q378 -245 359 -237Q340 -229 327.5 -215.5Q315 -202 309 -184.5Q303 -167 303 -148Q303 -111 325 -76Q347 -41 389 -16H385Q349 -16 324 0Q299 16 288 50Q256 18 216.5 0Q177 -18 139 -18Q116 -18 95 -11Q74 -4 57.5 10Q41 24 31 44Q21 64 21 91Q21 119 32.5 144Q44 169 73.5 192Q103 215 153 236.5Q203 258 280 279V367Q280 420 269.5 440Q259 460 238 460Q221 460 213.5 451.5Q206 443 202.5 429.5Q199 416 196.5 398Q194 380 187 361Q176 329 155 316Q134 303 112 303Q85 303 66 321Q47 339 47 368Q47 413 95 444.5Q143 476 242 476Q346 476 396.5 432.5Q447 389 447 317V88Q447 48 476 48Q498 48 515 72L525 65Q495 14 443 -6Q420 -20 406 -48Q392 -76 392 -118Q392 -163 407.5 -183Q423 -203 449 -203Q472 -203 492 -186L500 -193Q486 -214 462 -229.5Q438 -245 403 -245Z" glyph-name="aogonek" horiz-adv-x="526" unicode="&#261;" /><glyph d="M550 239Q526 219 497.5 206.5Q469 194 431 194Q400 194 369 206Q338 218 306 232Q274 246 240.5 258Q207 270 173 270Q138 270 108.5 256Q79 242 55 222V254Q79 274 107.5 286.5Q136 299 174 299Q209 299 243 287Q277 275 309 261Q341 247 372 235Q403 223 432 223Q467 223 496 237Q525 251 550 271ZM550 354Q526 334 497.5 321.5Q469 309 431 309Q400 309 369 321Q338 333 306 347Q274 361 240.5 373Q207 385 173 385Q138 385 108.5 371Q79 357 55 337V369Q79 389 107.5 401.5Q136 414 174 414Q209 414 243 402Q277 390 309 376Q341 362 372 350Q403 338 432 338Q467 338 496.5 352Q526 366 550 386Z" glyph-name="approxequal" horiz-adv-x="605" unicode="&#8776;" /><glyph d="M385 -16Q349 -16 324 0Q299 16 288 50Q256 18 216.5 0Q177 -18 139 -18Q116 -18 95 -11Q74 -4 57.5 10Q41 24 31 44Q21 64 21 91Q21 119 32.5 144Q44 169 73.5 192Q103 215 153 236.5Q203 258 280 279V367Q280 420 269.5 440Q259 460 238 460Q221 460 213.5 451.5Q206 443 202.5 429.5Q199 416 196.5 398Q194 380 187 361Q176 329 155 316Q134 303 112 303Q85 303 66 321Q47 339 47 368Q47 413 95 444.5Q143 476 242 476Q346 476 396.5 432.5Q447 389 447 317V88Q447 48 476 48Q498 48 515 72L525 65Q502 27 466 5.5Q430 -16 385 -16ZM235 52Q261 52 283 70Q280 86 280 106V262Q247 249 226.5 233Q206 217 194 199.5Q182 182 178 163.5Q174 145 174 129Q174 89 192 70.5Q210 52 235 52ZM234 699Q202 699 179.5 674.5Q157 650 157 617Q157 582 179.5 558.5Q202 535 234 535Q266 535 289 558.5Q312 582 312 617Q312 633 305.5 648Q299 663 288.5 674.5Q278 686 264 692.5Q250 699 234 699ZM234 721Q256 721 274.5 712.5Q293 704 307 690Q321 676 329 657Q337 638 337 617Q337 595 329 576Q321 557 307 543Q293 529 274 521Q255 513 234 513Q213 513 194 521Q175 529 161.5 543Q148 557 140 576Q132 595 132 617Q132 638 140 657Q148 676 161.5 690Q175 704 193.5 712.5Q212 721 234 721Z" glyph-name="aring" horiz-adv-x="526" unicode="&#229;" /><glyph d="M689 376 698 371 427 -19H422L150 371L160 376L411 232L391 701H458L437 231Z" glyph-name="arrowdown" horiz-adv-x="850" unicode="&#8595;" /><glyph d="M440 115 51 387V392L440 663L445 654L300 402L770 423V356L301 376L445 125Z" glyph-name="arrowleft" horiz-adv-x="850" unicode="&#8592;" /><glyph d="M404 125 548 376 79 356V423L549 402L404 654L409 663L798 392V387L409 115Z" glyph-name="arrowright" horiz-adv-x="850" unicode="&#8594;" /><glyph d="M437 469 458 -1H391L411 468L160 324L150 329L422 719H427L698 329L689 324Z" glyph-name="arrowup" horiz-adv-x="850" unicode="&#8593;" /><glyph d="M241 451 45 290 35 295 194 568H289L443 295L430 290Z" glyph-name="asciicircum" horiz-adv-x="478" unicode="^" /><glyph d="M538 478Q520 403 484 361Q448 319 395 318Q366 318 335.5 330Q305 342 274 356Q243 370 214 381.5Q185 393 159 393Q138 393 116 380.5Q94 368 72 328L58 332Q76 407 112.5 449Q149 491 201 491Q230 491 261 479.5Q292 468 322.5 453.5Q353 439 382 427.5Q411 416 436 416Q458 416 480 429Q502 442 524 481Z" glyph-name="asciitilde" horiz-adv-x="595" unicode="~" /><glyph d="M337 312Q337 285 319 265.5Q301 246 272 246Q246 246 226 265.5Q206 285 206 312Q206 333 214 353.5Q222 374 232 395Q242 416 251.5 438Q261 460 263 484Q243 470 229 451Q215 432 202 412.5Q189 393 176 375.5Q163 358 145 348Q121 334 95 341.5Q69 349 55 373Q41 396 48 421.5Q55 447 78 461Q97 472 118 474.5Q139 477 161.5 477.5Q184 478 208 481.5Q232 485 256 497Q234 508 210.5 511.5Q187 515 163.5 516.5Q140 518 118.5 520.5Q97 523 78 534Q55 547 48 574Q41 601 55 623Q69 648 94.5 654.5Q120 661 143 647Q162 636 174 619Q186 602 198 583Q210 564 225 545Q240 526 263 511Q261 535 252 557Q243 579 232.5 600Q222 621 214 641.5Q206 662 206 683Q206 711 226 730Q246 749 272 749Q301 749 319 730Q337 711 337 683Q337 661 328.5 641.5Q320 622 309.5 602Q299 582 289.5 559.5Q280 537 278 510Q302 522 317.5 541Q333 560 345 580Q357 600 369.5 618Q382 636 400 647Q425 661 449.5 654.5Q474 648 489 623Q503 600 496 573.5Q489 547 466 534Q447 523 425 520.5Q403 518 380 516.5Q357 515 333.5 511.5Q310 508 288 497Q312 485 336 482Q360 479 382.5 478Q405 477 426 474.5Q447 472 466 461Q489 447 496 421Q503 395 489 372Q475 349 449 341.5Q423 334 398 348Q380 359 366.5 377Q353 395 340.5 414.5Q328 434 313.5 453Q299 472 278 485Q280 458 289.5 435.5Q299 413 309.5 393Q320 373 328.5 353.5Q337 334 337 312Z" glyph-name="asterisk" horiz-adv-x="544" unicode="*" /><glyph d="M356 96Q370 96 385.5 104Q401 112 419 131Q420 138 421 144.5Q422 151 424 158L476 339Q487 379 480.5 396Q474 413 457 413Q435 413 411 387.5Q387 362 367 324Q347 286 334 241.5Q321 197 321 158Q321 123 331 109.5Q341 96 356 96ZM369 -158Q300 -158 241 -133Q182 -108 139.5 -64.5Q97 -21 72.5 38.5Q48 98 48 167Q48 257 79.5 335.5Q111 414 165.5 472.5Q220 531 294.5 565Q369 599 455 599Q519 599 573.5 580Q628 561 668 525Q708 489 730 438Q752 387 752 323Q752 264 737 211Q722 158 694 118Q666 78 626 55Q586 32 535 32Q482 32 453 54Q424 76 420 111Q373 62 336.5 43.5Q300 25 274 25Q239 25 216.5 52Q194 79 194 131Q194 186 220.5 240Q247 294 287 336.5Q327 379 375 405Q423 431 465 431Q526 431 554 381L622 426H632L550 136Q530 63 580 63Q608 63 635 83Q662 103 683 138.5Q704 174 717 221.5Q730 269 730 323Q730 382 709 429.5Q688 477 651 511Q614 545 563.5 563Q513 581 454 581Q375 581 305.5 549Q236 517 183.5 461Q131 405 100.5 330Q70 255 70 169Q70 104 92.5 48Q115 -8 154.5 -50Q194 -92 249.5 -116Q305 -140 371 -140Q441 -140 502.5 -120Q564 -100 612 -65L622 -81Q570 -117 506.5 -137.5Q443 -158 369 -158Z" glyph-name="at" horiz-adv-x="809" unicode="@" /><glyph d="M356 214Q370 214 385.5 222Q401 230 419 249Q420 256 421 262.5Q422 269 424 276L476 457Q487 497 480.5 514Q474 531 457 531Q435 531 411 505.5Q387 480 367 442Q347 404 334 359.5Q321 315 321 276Q321 241 331 227.5Q341 214 356 214ZM369 -40Q300 -40 241 -15Q182 10 139.5 53.5Q97 97 72.5 156.5Q48 216 48 285Q48 375 79.5 453.5Q111 532 165.5 590.5Q220 649 294.5 683Q369 717 455 717Q519 717 573.5 698Q628 679 668 643Q708 607 730 556Q752 505 752 441Q752 382 737 329Q722 276 694 236Q666 196 626 173Q586 150 535 150Q482 150 453 172Q424 194 420 229Q373 180 336.5 161.5Q300 143 274 143Q239 143 216.5 170Q194 197 194 249Q194 304 220.5 358Q247 412 287 454.5Q327 497 375 523Q423 549 465 549Q526 549 554 499L622 544H632L550 254Q530 181 580 181Q608 181 635 201Q662 221 683 256.5Q704 292 717 339.5Q730 387 730 441Q730 500 709 547.5Q688 595 651 629Q614 663 563.5 681Q513 699 454 699Q375 699 305.5 667Q236 635 183.5 579Q131 523 100.5 448Q70 373 70 287Q70 222 92.5 166Q115 110 154.5 68Q194 26 249.5 2Q305 -22 371 -22Q441 -22 502.5 -2Q564 18 612 53L622 37Q570 1 506.5 -19.5Q443 -40 369 -40Z" glyph-name="at.cap" horiz-adv-x="809" /><glyph d="M291 167Q309 167 331 186Q331 200 336 218L379 364Q393 408 367 408Q351 408 333 389.5Q315 371 300 342.5Q285 314 275 279.5Q265 245 265 212Q265 187 272.5 177Q280 167 291 167ZM297 -31Q243 -31 196.5 -12Q150 7 116 40.5Q82 74 63 120Q44 166 44 219Q44 288 68.5 348Q93 408 136.5 452.5Q180 497 238 523Q296 549 364 549Q417 549 461.5 534Q506 519 538.5 490.5Q571 462 589.5 422Q608 382 608 332Q608 287 595.5 247.5Q583 208 559 178.5Q535 149 501 131.5Q467 114 425 114Q380 114 357.5 130.5Q335 147 331 175Q296 139 266.5 124Q237 109 217 109Q190 109 172.5 128.5Q155 148 155 183Q155 225 175.5 267.5Q196 310 228.5 344Q261 378 300.5 399.5Q340 421 378 421Q402 421 419 411Q436 401 446 384L502 418H512L442 185Q434 159 440 148.5Q446 138 463 138Q486 138 509 153Q532 168 550 194Q568 220 579.5 255.5Q591 291 591 332Q591 378 573.5 415.5Q556 453 525.5 479.5Q495 506 453.5 520.5Q412 535 363 535Q301 535 246.5 510Q192 485 151 442.5Q110 400 86 342.5Q62 285 62 220Q62 170 79.5 127Q97 84 128.5 52Q160 20 203.5 1.5Q247 -17 299 -17Q353 -17 401 -1.5Q449 14 487 40L495 28Q454 1 404.5 -15Q355 -31 297 -31Z" glyph-name="at.smcp" horiz-adv-x="654" /><glyph d="M385 -16Q349 -16 324 0Q299 16 288 50Q256 18 216.5 0Q177 -18 139 -18Q116 -18 95 -11Q74 -4 57.5 10Q41 24 31 44Q21 64 21 91Q21 119 32.5 144Q44 169 73.5 192Q103 215 153 236.5Q203 258 280 279V367Q280 420 269.5 440Q259 460 238 460Q221 460 213.5 451.5Q206 443 202.5 429.5Q199 416 196.5 398Q194 380 187 361Q176 329 155 316Q134 303 112 303Q85 303 66 321Q47 339 47 368Q47 413 95 444.5Q143 476 242 476Q346 476 396.5 432.5Q447 389 447 317V88Q447 48 476 48Q498 48 515 72L525 65Q502 27 466 5.5Q430 -16 385 -16ZM235 52Q261 52 283 70Q280 86 280 106V262Q247 249 226.5 233Q206 217 194 199.5Q182 182 178 163.5Q174 145 174 129Q174 89 192 70.5Q210 52 235 52ZM308 544Q288 544 269.5 550Q251 556 232 562.5Q213 569 194.5 575Q176 581 156 581Q133 581 114.5 569Q96 557 86 534L77 536Q79 563 87.5 587.5Q96 612 110 630.5Q124 649 143.5 660Q163 671 186 671Q206 671 224.5 665Q243 659 262 652.5Q281 646 299.5 640Q318 634 338 634Q361 634 379.5 645.5Q398 657 408 681L418 679Q416 652 407 627.5Q398 603 384 584.5Q370 566 350.5 555Q331 544 308 544Z" glyph-name="atilde" horiz-adv-x="526" unicode="&#227;" /><glyph d="M287 -2Q304 -2 320.5 11.5Q337 25 349.5 51.5Q362 78 369.5 117.5Q377 157 377 210Q377 303 350.5 345.5Q324 388 280 388Q256 388 236 374V86Q236 40 251 19Q266 -2 287 -2ZM281 -18Q232 -18 197.5 1Q163 20 147 48L81 -11H70V618Q70 640 64.5 654Q59 668 50.5 676Q42 684 31 687Q20 690 8 689V699L228 756L236 753V398Q263 434 297.5 455Q332 476 375 476Q415 476 446.5 460Q478 444 500 415.5Q522 387 534 349Q546 311 546 266Q546 203 523.5 151Q501 99 463.5 61.5Q426 24 378.5 3Q331 -18 281 -18Z" glyph-name="b" horiz-adv-x="574" unicode="b" /><glyph d="M40 700 394 0H364L10 700Z" glyph-name="backslash" horiz-adv-x="404" unicode="\" /><glyph d="M128 -249H100V701H128Z" glyph-name="bar" horiz-adv-x="228" unicode="|" /><glyph d="M97 349Q97 423 125.5 488.5Q154 554 202.5 602.5Q251 651 316.5 679.5Q382 708 456 708Q531 708 596.5 679.5Q662 651 710.5 602.5Q759 554 787.5 488.5Q816 423 816 349Q816 275 787.5 209.5Q759 144 710.5 95Q662 46 596.5 18Q531 -10 456 -10Q382 -10 316.5 18Q251 46 202.5 95Q154 144 125.5 209.5Q97 275 97 349Z" glyph-name="blackcircle" horiz-adv-x="913" unicode="&#9679;" /><glyph d="M97 534H631V0H97Z" glyph-name="blacksmallsquare" horiz-adv-x="728" unicode="&#9642;" /><glyph d="M805 0H106V699H805Z" glyph-name="blacksquare" horiz-adv-x="911" unicode="&#9632;" /><glyph d="M353 -178Q309 -184 273 -184Q226 -184 192.5 -174Q159 -164 138 -146Q117 -128 107 -103.5Q97 -79 97 -50Q97 -23 102 1.5Q107 26 112.5 50Q118 74 123 99.5Q128 125 128 153Q128 209 107.5 231Q87 253 35 253H0V271H35Q87 271 107.5 292Q128 313 128 364Q128 394 123 420Q118 446 112.5 470.5Q107 495 102 518.5Q97 542 97 567Q97 597 107 623Q117 649 138 668Q159 687 193 698Q227 709 275 709Q292 709 311.5 707Q331 705 353 702V688Q348 689 343 689.5Q338 690 333 690Q294 690 274.5 665.5Q255 641 255 605Q255 586 259.5 560Q264 534 269.5 506Q275 478 279.5 451.5Q284 425 284 406Q284 351 240.5 312Q197 273 104 262Q143 257 176 245.5Q209 234 233 217Q257 200 270.5 176.5Q284 153 284 123Q284 92 279.5 63Q275 34 269.5 7Q264 -20 259.5 -44Q255 -68 255 -87Q255 -119 274.5 -142.5Q294 -166 333 -166Q338 -166 343 -165.5Q348 -165 353 -164Z" glyph-name="braceleft" horiz-adv-x="375" unicode="{" /><glyph d="M339 -88Q294 -94 259 -94Q215 -94 184.5 -84.5Q154 -75 134.5 -58.5Q115 -42 106 -19.5Q97 3 97 30Q97 54 102.5 76Q108 98 114 120Q120 142 125.5 165Q131 188 131 213Q131 261 110 279.5Q89 298 35 298H5V316H35Q89 316 110 335Q131 354 131 402Q131 426 125.5 448.5Q120 471 114 492.5Q108 514 102.5 535.5Q97 557 97 580Q97 607 106 630.5Q115 654 134.5 671.5Q154 689 185 699Q216 709 260 709Q277 709 296.5 707.5Q316 706 339 702V689Q334 690 330.5 690Q327 690 322 690Q288 690 271.5 670Q255 650 255 621Q255 604 259 584Q263 564 268.5 541Q274 518 278 492.5Q282 467 282 441Q282 412 268.5 389.5Q255 367 231 350Q207 333 174.5 322.5Q142 312 103 307Q142 302 174.5 291.5Q207 281 231 264.5Q255 248 268.5 225Q282 202 282 174Q282 147 278 122Q274 97 268.5 73.5Q263 50 259 29.5Q255 9 255 -7Q255 -36 271.5 -56Q288 -76 322 -76Q327 -76 330.5 -76Q334 -76 339 -75Z" glyph-name="braceleft.cap" horiz-adv-x="358" /><glyph d="M102 -184Q65 -184 22 -178V-164Q27 -165 32 -165.5Q37 -166 42 -166Q81 -166 100.5 -142.5Q120 -119 120 -87Q120 -68 115.5 -44Q111 -20 105.5 7Q100 34 95.5 63Q91 92 91 123Q91 153 104.5 176.5Q118 200 142 217Q166 234 199 245.5Q232 257 271 262Q178 273 134.5 312Q91 351 91 406Q91 425 95.5 451.5Q100 478 105.5 506Q111 534 115.5 560Q120 586 120 605Q120 641 100.5 665.5Q81 690 42 690Q37 690 32 689.5Q27 689 22 688V702Q44 705 63.5 707Q83 709 100 709Q148 709 182 698Q216 687 237 668Q258 649 268 623Q278 597 278 567Q278 542 273 518.5Q268 495 262.5 470.5Q257 446 252 420Q247 394 247 364Q247 313 267.5 292Q288 271 340 271H375V253H340Q288 253 267.5 231Q247 209 247 153Q247 125 252 99.5Q257 74 262.5 50Q268 26 273 1.5Q278 -23 278 -50Q278 -109 237 -146.5Q196 -184 102 -184Z" glyph-name="braceright" horiz-adv-x="375" unicode="}" /><glyph d="M99 -94Q64 -94 19 -88V-75Q24 -76 27.5 -76Q31 -76 36 -76Q70 -76 86.5 -56Q103 -36 103 -7Q103 9 99 29.5Q95 50 89.5 73.5Q84 97 80 122Q76 147 76 174Q76 202 89.5 225Q103 248 127 264.5Q151 281 183.5 291.5Q216 302 255 307Q216 312 183.5 322.5Q151 333 127 350Q103 367 89.5 389.5Q76 412 76 441Q76 467 80 492.5Q84 518 89.5 541Q95 564 99 584Q103 604 103 621Q103 650 86.5 670Q70 690 36 690Q31 690 27.5 690Q24 690 19 689V702Q42 706 61.5 707.5Q81 709 98 709Q142 709 173 699Q204 689 223.5 671.5Q243 654 252 630.5Q261 607 261 580Q261 557 255.5 535.5Q250 514 244 492.5Q238 471 232.5 448.5Q227 426 227 402Q227 354 248 335Q269 316 323 316H353V298H323Q269 298 248 279.5Q227 261 227 213Q227 188 232.5 165Q238 142 244 120Q250 98 255.5 76Q261 54 261 30Q261 3 252 -19.5Q243 -42 223.5 -58.5Q204 -75 173 -84.5Q142 -94 99 -94Z" glyph-name="braceright.cap" horiz-adv-x="358" /><glyph d="M50 700H326V683H221V-162H326V-179H50Z" glyph-name="bracketleft" horiz-adv-x="346" unicode="[" /><glyph d="M50 700H326V683H221V-65H326V-82H50Z" glyph-name="bracketleft.cap" horiz-adv-x="346" /><glyph d="M296 -179H20V-162H125V683H20V700H296Z" glyph-name="bracketright" horiz-adv-x="346" unicode="]" /><glyph d="M296 -82H20V-65H125V683H20V700H296Z" glyph-name="bracketright.cap" horiz-adv-x="346" /><glyph d="M249 541Q218 541 191 550Q164 559 144.5 577Q125 595 114 621.5Q103 648 103 682H119Q124 652 158 635.5Q192 619 249 619Q306 619 340.5 635.5Q375 652 380 682H396Q396 648 384.5 621.5Q373 595 353.5 577Q334 559 307 550Q280 541 249 541Z" glyph-name="breve" horiz-adv-x="499" unicode="&#728;" /><glyph d="M249 779Q218 779 191 788Q164 797 144.5 814Q125 831 114 856.5Q103 882 103 915H119Q124 887 158 872Q192 857 249 857Q306 857 340.5 872Q375 887 380 915H396Q396 882 384.5 856.5Q373 831 353.5 814Q334 797 307 788Q280 779 249 779Z" glyph-name="breve.cap" horiz-adv-x="500" /><glyph d="M128 -249H100V194H128ZM128 258H100V701H128Z" glyph-name="brokenbar" horiz-adv-x="228" unicode="&#166;" /><glyph d="M44 352Q44 377 53.5 399Q63 421 79.5 437Q96 453 117.5 462.5Q139 472 164 472Q188 472 209.5 462.5Q231 453 247 437Q263 421 272.5 399Q282 377 282 352Q282 327 272.5 305Q263 283 247 267Q231 251 209.5 242Q188 233 164 233Q139 233 117.5 242Q96 251 79.5 267Q63 283 53.5 305Q44 327 44 352Z" glyph-name="bullet" horiz-adv-x="326" unicode="&#8226;" /><glyph d="M324 356Q319 369 315 386.5Q311 404 304.5 420Q298 436 288.5 447Q279 458 263 458Q234 458 212 415.5Q190 373 190 290Q190 190 230 137.5Q270 85 337 85Q375 85 407 104Q439 123 459 160L471 155Q448 70 393 26Q338 -18 257 -18Q210 -18 168.5 -1Q127 16 95.5 47.5Q64 79 45.5 122.5Q27 166 27 220Q27 275 46.5 321.5Q66 368 100.5 402.5Q135 437 182.5 456.5Q230 476 286 476Q329 476 361 466.5Q393 457 414.5 442Q436 427 446.5 408.5Q457 390 457 371Q457 345 439 326.5Q421 308 390 308Q341 308 324 356Z" glyph-name="c" horiz-adv-x="491" unicode="c" /><glyph d="M324 356Q319 369 315 386.5Q311 404 304.5 420Q298 436 288.5 447Q279 458 263 458Q234 458 212 415.5Q190 373 190 290Q190 190 230 137.5Q270 85 337 85Q375 85 407 104Q439 123 459 160L471 155Q448 70 393 26Q338 -18 257 -18Q210 -18 168.5 -1Q127 16 95.5 47.5Q64 79 45.5 122.5Q27 166 27 220Q27 275 46.5 321.5Q66 368 100.5 402.5Q135 437 182.5 456.5Q230 476 286 476Q329 476 361 466.5Q393 457 414.5 442Q436 427 446.5 408.5Q457 390 457 371Q457 345 439 326.5Q421 308 390 308Q341 308 324 356ZM210 522 323 676Q334 692 347.5 699Q361 706 375 706Q396 706 411.5 691Q427 676 427 653Q427 636 416.5 618Q406 600 380 589L223 522Z" glyph-name="cacute" horiz-adv-x="491" unicode="&#263;" /><glyph d="M415 683 302 528H202L85 683H99L251 604L397 683Z" glyph-name="caron" horiz-adv-x="500" unicode="&#711;" /><glyph d="M249 852 400 906H414L298 776H198L86 906H104Z" glyph-name="caron.cap" horiz-adv-x="500" /><glyph d="M200 455 197 655Q196 693 214.5 710Q233 727 257 727Q279 727 296.5 712Q314 697 314 668Q314 658 310.5 645.5Q307 633 299 616L209 455Z" glyph-name="caronSlovak" horiz-adv-x="500" /><glyph d="M324 356Q319 369 315 386.5Q311 404 304.5 420Q298 436 288.5 447Q279 458 263 458Q234 458 212 415.5Q190 373 190 290Q190 190 230 137.5Q270 85 337 85Q375 85 407 104Q439 123 459 160L471 155Q448 70 393 26Q338 -18 257 -18Q210 -18 168.5 -1Q127 16 95.5 47.5Q64 79 45.5 122.5Q27 166 27 220Q27 275 46.5 321.5Q66 368 100.5 402.5Q135 437 182.5 456.5Q230 476 286 476Q329 476 361 466.5Q393 457 414.5 442Q436 427 446.5 408.5Q457 390 457 371Q457 345 439 326.5Q421 308 390 308Q341 308 324 356ZM433 683 320 528H220L103 683H117L269 604L415 683Z" glyph-name="ccaron" horiz-adv-x="491" unicode="&#269;" /><glyph d="M239 -280Q198 -280 168.5 -270Q139 -260 116 -243L122 -229Q164 -256 211 -256Q229 -256 245.5 -252.5Q262 -249 274.5 -240Q287 -231 295 -217Q303 -203 303 -182Q303 -148 278 -132.5Q253 -117 188 -124L185 -120L242 -18Q198 -15 158.5 3.5Q119 22 90 53Q61 84 44 126.5Q27 169 27 220Q27 275 46.5 321.5Q66 368 100.5 402.5Q135 437 182.5 456.5Q230 476 286 476Q329 476 361 466.5Q393 457 414.5 442Q436 427 446.5 408.5Q457 390 457 371Q457 345 439 326.5Q421 308 390 308Q341 308 324 356Q319 369 315 386.5Q311 404 304.5 420Q298 436 288.5 447Q279 458 263 458Q234 458 212 415.5Q190 373 190 290Q190 190 230 137.5Q270 85 337 85Q375 85 407 104Q439 123 459 160L471 155Q448 73 395.5 28.5Q343 -16 265 -18L238 -67Q261 -62 280 -62Q332 -62 365.5 -88Q399 -114 399 -162Q399 -186 388.5 -207Q378 -228 357.5 -244.5Q337 -261 307.5 -270.5Q278 -280 239 -280Z" glyph-name="ccedilla" horiz-adv-x="491" unicode="&#231;" /><glyph d="M324 356Q319 369 315 386.5Q311 404 304.5 420Q298 436 288.5 447Q279 458 263 458Q234 458 212 415.5Q190 373 190 290Q190 190 230 137.5Q270 85 337 85Q375 85 407 104Q439 123 459 160L471 155Q448 70 393 26Q338 -18 257 -18Q210 -18 168.5 -1Q127 16 95.5 47.5Q64 79 45.5 122.5Q27 166 27 220Q27 275 46.5 321.5Q66 368 100.5 402.5Q135 437 182.5 456.5Q230 476 286 476Q329 476 361 466.5Q393 457 414.5 442Q436 427 446.5 408.5Q457 390 457 371Q457 345 439 326.5Q421 308 390 308Q341 308 324 356ZM274 600 122 521H108L225 676H325L438 521H420Z" glyph-name="ccircumflex" horiz-adv-x="491" unicode="&#265;" /><glyph d="M324 356Q319 369 315 386.5Q311 404 304.5 420Q298 436 288.5 447Q279 458 263 458Q234 458 212 415.5Q190 373 190 290Q190 190 230 137.5Q270 85 337 85Q375 85 407 104Q439 123 459 160L471 155Q448 70 393 26Q338 -18 257 -18Q210 -18 168.5 -1Q127 16 95.5 47.5Q64 79 45.5 122.5Q27 166 27 220Q27 275 46.5 321.5Q66 368 100.5 402.5Q135 437 182.5 456.5Q230 476 286 476Q329 476 361 466.5Q393 457 414.5 442Q436 427 446.5 408.5Q457 390 457 371Q457 345 439 326.5Q421 308 390 308Q341 308 324 356ZM188 618Q188 634 194.5 648.5Q201 663 212.5 674.5Q224 686 238.5 692.5Q253 699 270 699Q304 699 328.5 675Q353 651 353 618Q353 584 328.5 560Q304 536 270 536Q237 536 212.5 560Q188 584 188 618Z" glyph-name="cdotaccent" horiz-adv-x="491" unicode="&#267;" /><glyph d="M232 -280Q191 -280 161.5 -270Q132 -260 109 -243L115 -229Q157 -256 204 -256Q222 -256 238.5 -252.5Q255 -249 267.5 -240Q280 -231 288 -217Q296 -203 296 -182Q296 -148 271 -132.5Q246 -117 181 -124L178 -120L240 -8H263L231 -67Q254 -62 273 -62Q325 -62 358.5 -88Q392 -114 392 -162Q392 -186 381.5 -207Q371 -228 350.5 -244.5Q330 -261 300.5 -270.5Q271 -280 232 -280Z" glyph-name="cedilla" horiz-adv-x="500" unicode="&#184;" /><glyph d="M254 11Q246 11 237.5 11.5Q229 12 221 13L204 -62H181L199 17Q163 25 131.5 44Q100 63 76.5 91Q53 119 39.5 156.5Q26 194 26 240Q26 283 41.5 325.5Q57 368 87.5 402.5Q118 437 162.5 458.5Q207 480 265 480Q276 480 285.5 479.5Q295 479 304 478L322 559H344L325 475Q381 464 407.5 436.5Q434 409 434 381Q434 357 417.5 339Q401 321 372 321Q349 321 330 335Q311 349 303 378L247 130Q278 108 320 108Q361 108 391 127.5Q421 147 437 180L447 176Q435 131 415 99.5Q395 68 369.5 48.5Q344 29 314.5 20Q285 11 254 11ZM181 314Q181 199 229 147L291 423Q286 440 276.5 451.5Q267 463 250 463Q231 463 218 448.5Q205 434 196.5 412Q188 390 184.5 363.5Q181 337 181 314Z" glyph-name="cent" horiz-adv-x="462" unicode="&#162;" /><glyph d="M251 600 99 521H85L202 676H302L415 521H397Z" glyph-name="circumflex" horiz-adv-x="500" unicode="&#710;" /><glyph d="M251 831 100 776H86L202 906H302L414 776H396Z" glyph-name="circumflex.cap" horiz-adv-x="500" /><glyph d="M152 -10Q133 -10 116 -3Q99 4 86.5 17Q74 30 66.5 46.5Q59 63 59 83Q59 102 66.5 119Q74 136 86.5 148.5Q99 161 116 168Q133 175 152 175Q171 175 188 168Q205 161 218 148.5Q231 136 238.5 119Q246 102 246 83Q246 63 238.5 46.5Q231 30 218 17Q205 4 188 -3Q171 -10 152 -10ZM152 287Q133 287 116 294Q99 301 86.5 314Q74 327 66.5 343.5Q59 360 59 380Q59 399 66.5 416Q74 433 86.5 445.5Q99 458 116 465Q133 472 152 472Q171 472 188 465Q205 458 218 445.5Q231 433 238.5 416Q246 399 246 380Q246 360 238.5 343.5Q231 327 218 314Q205 301 188 294Q171 287 152 287Z" glyph-name="colon" horiz-adv-x="305" unicode=":" /><glyph d="M174 -47Q174 -34 168.5 -26.5Q163 -19 154 -14Q145 -9 134 -5.5Q123 -2 112 4Q89 15 74 35.5Q59 56 59 85Q59 121 84 148Q109 175 154 175Q195 175 221.5 147.5Q248 120 248 70Q248 34 237 -2Q226 -38 205.5 -68.5Q185 -99 156 -120.5Q127 -142 91 -150L85 -134Q100 -131 115.5 -122Q131 -113 144 -100.5Q157 -88 165.5 -73.5Q174 -59 174 -47Z" glyph-name="comma" horiz-adv-x="304" unicode="," /><glyph d="M270 -279Q270 -267 265 -260Q260 -253 251.5 -248.5Q243 -244 232.5 -240.5Q222 -237 212 -232Q191 -221 177 -203Q163 -185 163 -159Q163 -125 186 -100Q209 -75 251 -75Q288 -75 312 -100.5Q336 -126 336 -172Q336 -206 326 -239Q316 -272 297.5 -300Q279 -328 252.5 -348.5Q226 -369 193 -376L187 -361Q200 -358 215 -349.5Q230 -341 242 -329.5Q254 -318 262 -304.5Q270 -291 270 -279Z" glyph-name="commaaccent" horiz-adv-x="499" unicode="&#63171;" /><glyph d="M514 417Q494 417 478 429Q462 441 455 461Q452 471 449 485.5Q446 500 441 513Q436 526 428 535Q420 544 406 544Q392 544 380.5 533.5Q369 523 361 505Q353 487 348.5 463Q344 439 344 411Q344 322 376 273Q408 224 469 224Q505 224 531 241Q557 258 571 289L582 285Q562 210 517 172.5Q472 135 410 135Q370 135 333.5 149Q297 163 268.5 189.5Q240 216 223 254.5Q206 293 206 342Q206 381 220 420Q234 459 261 490.5Q288 522 328 541.5Q368 561 420 561Q459 561 487 553Q515 545 534 532Q553 519 562 503Q571 487 571 472Q571 449 555.5 433Q540 417 514 417ZM408 1Q482 1 544 27.5Q606 54 650.5 101Q695 148 719.5 211Q744 274 744 348Q744 421 719 484Q694 547 649 594Q604 641 542 668Q480 695 406 695Q332 695 270 668.5Q208 642 163.5 595Q119 548 94.5 484.5Q70 421 70 348Q70 275 95 212Q120 149 165 102Q210 55 272 28Q334 1 408 1ZM407 -17Q328 -17 262 11.5Q196 40 148.5 89Q101 138 74.5 204.5Q48 271 48 348Q48 424 74.5 491Q101 558 148.5 607Q196 656 262 684.5Q328 713 407 713Q486 713 552 684.5Q618 656 665.5 607Q713 558 739.5 491Q766 424 766 348Q766 271 739.5 204.5Q713 138 665.5 89Q618 40 552 11.5Q486 -17 407 -17Z" glyph-name="copyright" horiz-adv-x="814" unicode="&#169;" /><glyph d="M413 319Q396 319 383 328.5Q370 338 365 355Q363 361 361 371Q359 381 355.5 391.5Q352 402 346.5 409.5Q341 417 331 417Q315 417 304.5 390Q294 363 294 306Q294 241 316 206.5Q338 172 383 172Q412 172 430.5 187Q449 202 457 222L467 219Q459 185 444.5 162.5Q430 140 411.5 126.5Q393 113 372 107.5Q351 102 330 102Q299 102 270.5 113Q242 124 219.5 144.5Q197 165 183.5 194.5Q170 224 170 262Q170 290 181 319.5Q192 349 213.5 373.5Q235 398 267 413.5Q299 429 341 429Q399 429 429 409Q459 389 459 362Q459 344 447 331.5Q435 319 413 319ZM326 4Q385 4 434 24Q483 44 518 79.5Q553 115 572.5 162.5Q592 210 592 266Q592 321 572 369.5Q552 418 516.5 453Q481 488 432 508.5Q383 529 324 529Q265 529 216 509Q167 489 131.5 453.5Q96 418 76.5 370Q57 322 57 266Q57 211 77 163Q97 115 132.5 80Q168 45 217.5 24.5Q267 4 326 4ZM325 -13Q262 -13 209 8.5Q156 30 118 68Q80 106 59 156.5Q38 207 38 266Q38 324 59 375Q80 426 118 464Q156 502 209 523.5Q262 545 325 545Q388 545 440.5 523.5Q493 502 531.5 464Q570 426 591 375Q612 324 612 266Q612 207 591 156.5Q570 106 531.5 68Q493 30 440.5 8.5Q388 -13 325 -13Z" glyph-name="copyright.smcp" horiz-adv-x="647" /><glyph d="M161 409Q132 409 106.5 419.5Q81 430 61.5 449.5Q42 469 30.5 496Q19 523 19 556Q19 590 31 619Q43 648 64 669Q85 690 113.5 702Q142 714 176 714Q204 714 225 708Q246 702 259.5 692.5Q273 683 279.5 671.5Q286 660 286 649Q286 632 274.5 620Q263 608 243 608Q228 608 216.5 615.5Q205 623 200 638Q197 645 195 655.5Q193 666 189.5 676Q186 686 180.5 692.5Q175 699 165 699Q145 699 134 670.5Q123 642 123 598Q123 542 145.5 508.5Q168 475 211 475Q262 475 284 522L295 517Q279 464 245.5 436.5Q212 409 161 409Z" glyph-name="cordinal" horiz-adv-x="304" /><glyph d="M335 62Q306 21 270.5 1.5Q235 -18 197 -18Q161 -18 130 -3Q99 12 76 39.5Q53 67 40 105.5Q27 144 27 192Q27 253 48.5 305Q70 357 105.5 395Q141 433 188 454.5Q235 476 286 476Q299 476 310 474Q321 472 332 469V618Q332 640 326.5 654Q321 668 312.5 676Q304 684 293 687Q282 690 270 689V699L490 756L498 753V99Q498 54 515.5 37.5Q533 21 556 23V13L343 -15L335 -12ZM288 68Q302 68 312.5 72Q323 76 332 83V410Q327 433 314 447Q301 461 282 461Q264 461 248 445Q232 429 219 400.5Q206 372 198.5 331.5Q191 291 191 242Q191 149 219 108.5Q247 68 288 68Z" glyph-name="d" horiz-adv-x="569" unicode="d" /><glyph d="M255 -78H232V58Q232 106 229 142Q226 178 217.5 205Q209 232 194.5 253Q180 274 157 292Q203 326 217 364.5Q231 403 233 451Q212 449 193 441.5Q174 434 156 426Q138 418 120 411.5Q102 405 84 405Q61 405 43 422Q25 439 25 462Q25 487 43 503.5Q61 520 84 520Q103 520 119.5 513Q136 506 153.5 497.5Q171 489 190 481.5Q209 474 233 472V504Q233 533 224.5 556.5Q216 580 206 601Q196 622 187.5 641.5Q179 661 179 683Q179 710 197 729.5Q215 749 243 749Q269 749 288.5 729.5Q308 710 308 683Q308 661 299.5 640Q291 619 280.5 597.5Q270 576 261.5 553Q253 530 253 504V471Q276 473 295.5 481Q315 489 332 497.5Q349 506 366 513Q383 520 402 520Q426 520 443.5 503.5Q461 487 461 462Q461 439 443.5 422Q426 405 402 405Q383 405 365.5 411.5Q348 418 330 426Q312 434 293 441.5Q274 449 253 451Q255 403 269 364.5Q283 326 330 292Q306 274 291.5 253Q277 232 269 205Q261 178 258 142Q255 106 255 58Z" glyph-name="dagger" horiz-adv-x="486" unicode="&#8224;" /><glyph d="M308 -99Q308 -126 290 -145.5Q272 -165 243 -165Q217 -165 198 -145.5Q179 -126 179 -99Q179 -77 187.5 -56Q196 -35 206 -13Q216 9 224.5 32Q233 55 233 81V112Q209 110 190 102.5Q171 95 153.5 87Q136 79 119.5 72Q103 65 84 65Q61 65 43 81.5Q25 98 25 122Q25 145 43 162.5Q61 180 84 180Q102 180 120 173.5Q138 167 156 159Q174 151 193 143.5Q212 136 233 134Q232 158 228.5 179Q225 200 216.5 219.5Q208 239 194 257Q180 275 157 292Q203 326 217 364.5Q231 403 233 451Q212 449 193 441.5Q174 434 156 426Q138 418 120 411.5Q102 405 84 405Q61 405 43 422Q25 439 25 462Q25 487 43 503.5Q61 520 84 520Q103 520 119.5 513Q136 506 153.5 497.5Q171 489 190 481.5Q209 474 233 472V504Q233 533 224.5 556.5Q216 580 206 601Q196 622 187.5 641.5Q179 661 179 683Q179 710 197 729.5Q215 749 243 749Q269 749 288.5 729.5Q308 710 308 683Q308 661 299.5 640Q291 619 280.5 597.5Q270 576 261.5 553Q253 530 253 504V471Q276 473 295.5 481Q315 489 332 497.5Q349 506 366 513Q383 520 402 520Q426 520 443.5 503.5Q461 487 461 462Q461 439 443.5 422Q426 405 402 405Q383 405 365.5 411.5Q348 418 330 426Q312 434 293 441.5Q274 449 253 451Q255 403 269 364.5Q283 326 330 292Q306 275 291.5 257Q277 239 269 219.5Q261 200 257.5 179Q254 158 253 134Q274 136 293 143.5Q312 151 330 159Q348 167 365.5 173.5Q383 180 402 180Q426 180 443.5 162.5Q461 145 461 122Q461 98 443.5 81.5Q426 65 402 65Q383 65 366 72Q349 79 332 87.5Q315 96 295.5 103.5Q276 111 253 113V81Q253 52 261.5 28Q270 4 280.5 -17Q291 -38 299.5 -57.5Q308 -77 308 -99Z" glyph-name="daggerdbl" horiz-adv-x="486" unicode="&#8225;" /><glyph d="M335 62Q306 21 270.5 1.5Q235 -18 197 -18Q161 -18 130 -3Q99 12 76 39.5Q53 67 40 105.5Q27 144 27 192Q27 253 48.5 305Q70 357 105.5 395Q141 433 188 454.5Q235 476 286 476Q299 476 310 474Q321 472 332 469V618Q332 640 326.5 654Q321 668 312.5 676Q304 684 293 687Q282 690 270 689V699L490 756L498 753V99Q498 54 515.5 37.5Q533 21 556 23V13L343 -15L335 -12ZM288 68Q302 68 312.5 72Q323 76 332 83V410Q327 433 314 447Q301 461 282 461Q264 461 248 445Q232 429 219 400.5Q206 372 198.5 331.5Q191 291 191 242Q191 149 219 108.5Q247 68 288 68ZM575 485 572 685Q571 723 589.5 740Q608 757 632 757Q654 757 671.5 742Q689 727 689 698Q689 688 685.5 675.5Q682 663 674 646L584 485Z" glyph-name="dcaron" horiz-adv-x="699" unicode="&#271;" /><glyph d="M335 62Q306 21 270.5 1.5Q235 -18 197 -18Q161 -18 130 -3Q99 12 76 39.5Q53 67 40 105.5Q27 144 27 192Q27 253 48.5 305Q70 357 105.5 395Q141 433 188 454.5Q235 476 286 476Q299 476 310 474Q321 472 332 469V561H209V582H332V618Q332 640 326.5 654Q321 668 312.5 676Q304 684 293 687Q282 690 270 689V699L490 756L498 753V582H560V561H498V99Q498 54 515.5 37.5Q533 21 556 23V13L343 -15L335 -12ZM288 68Q302 68 312.5 72Q323 76 332 83V410Q327 433 314 447Q301 461 282 461Q264 461 248 445Q232 429 219 400.5Q206 372 198.5 331.5Q191 291 191 242Q191 149 219 108.5Q247 68 288 68Z" glyph-name="dcroat" horiz-adv-x="569" unicode="&#273;" /><glyph d="M52 557Q52 530 62 506Q72 482 90 464Q108 446 131.5 435.5Q155 425 182 425Q209 425 233 435.5Q257 446 274.5 464Q292 482 302.5 506Q313 530 313 557Q313 585 302.5 609Q292 633 274.5 651Q257 669 233 679.5Q209 690 182 690Q155 690 131.5 679.5Q108 669 90 651Q72 633 62 609Q52 585 52 557ZM337 557Q337 525 325 497.5Q313 470 292 449Q271 428 242.5 416Q214 404 182 404Q150 404 122 416Q94 428 73 449Q52 470 40 497.5Q28 525 28 557Q28 589 40 617Q52 645 73 666Q94 687 122 699Q150 711 182 711Q214 711 242.5 699Q271 687 292 666Q313 645 325 617Q337 589 337 557Z" glyph-name="degree" horiz-adv-x="365" unicode="&#176;" /><glyph d="M62 618Q62 634 68.5 648.5Q75 663 86.5 674.5Q98 686 112.5 692.5Q127 699 144 699Q179 699 203 675Q227 651 227 618Q227 584 203 560Q179 536 144 536Q111 536 86.5 560Q62 584 62 618ZM272 618Q272 634 278.5 648.5Q285 663 296 674.5Q307 686 322 692.5Q337 699 354 699Q388 699 412.5 675Q437 651 437 618Q437 584 412.5 560Q388 536 354 536Q320 536 296 560Q272 584 272 618Z" glyph-name="dieresis" horiz-adv-x="499" unicode="&#168;" /><glyph d="M354 777Q320 777 296 801Q272 825 272 859Q272 875 278.5 889.5Q285 904 296 915.5Q307 927 322 933.5Q337 940 354 940Q388 940 412.5 916Q437 892 437 859Q437 825 412.5 801Q388 777 354 777ZM144 777Q111 777 86.5 801Q62 825 62 859Q62 875 68.5 889.5Q75 904 86.5 915.5Q98 927 112.5 933.5Q127 940 144 940Q179 940 203 916Q227 892 227 859Q227 825 203 801Q179 777 144 777Z" glyph-name="dieresis.cap" horiz-adv-x="500" /><glyph d="M303 18Q284 18 267 25Q250 32 237.5 45Q225 58 217.5 74.5Q210 91 210 111Q210 130 217.5 147Q225 164 237.5 176.5Q250 189 267 196Q284 203 303 203Q322 203 339 196Q356 189 369 176.5Q382 164 389.5 147Q397 130 397 111Q397 91 389.5 74.5Q382 58 369 45Q356 32 339 25Q322 18 303 18ZM559 315V286H47V315ZM303 401Q284 401 267 408Q250 415 237.5 428Q225 441 217.5 457.5Q210 474 210 494Q210 513 217.5 530Q225 547 237.5 559.5Q250 572 267 579Q284 586 303 586Q322 586 339 579Q356 572 369 559.5Q382 547 389.5 530Q397 513 397 494Q397 474 389.5 457.5Q382 441 369 428Q356 415 339 408Q322 401 303 401Z" glyph-name="divide" horiz-adv-x="606" unicode="&#247;" /><glyph d="M220 -80V-4Q168 -4 131.5 5Q95 14 72.5 28Q50 42 40 60Q30 78 30 96Q30 122 48 139.5Q66 157 95 157Q116 157 134 144.5Q152 132 162 107Q165 95 168 81Q171 67 176.5 54Q182 41 192 30.5Q202 20 220 17V214Q187 229 153 246Q119 263 91 286.5Q63 310 45 342Q27 374 27 419Q27 491 78 540.5Q129 590 220 597V670H243V598Q294 598 329 590.5Q364 583 385.5 570Q407 557 416.5 540.5Q426 524 426 508Q426 482 408 464.5Q390 447 362 447Q340 447 321.5 458.5Q303 470 295 496Q292 505 289.5 517.5Q287 530 282 542Q277 554 268 563.5Q259 573 243 577V395Q278 378 316.5 360.5Q355 343 386.5 319Q418 295 438.5 262Q459 229 459 182Q459 144 442.5 111.5Q426 79 397 54.5Q368 30 328.5 15Q289 0 243 -3V-80ZM330 102Q330 137 305 160Q280 183 243 202V16Q283 19 306.5 43.5Q330 68 330 102ZM137 501Q137 469 161 447Q185 425 220 407V579Q182 578 159.5 554.5Q137 531 137 501Z" glyph-name="dollar" horiz-adv-x="494" unicode="$" /></font>
</defs>
</svg>
