<?xml version="1.0" encoding="utf-8"?>
<!-- Generator: Adobe Illustrator 19.1.1, SVG Export Plug-In . SVG Version: 6.00 Build 0)  -->
<svg version="1.1" id="Layer_1" xmlns="http://www.w3.org/2000/svg" xmlns:xlink="http://www.w3.org/1999/xlink" x="0px" y="0px"
	 width="33.2px" height="24.8px" viewBox="-864 1152.5 33.2 24.8" style="enable-background:new -864 1152.5 33.2 24.8;"
	 xml:space="preserve">
<style type="text/css">
	.st0{fill:#FA5A36;}
</style>
<title>blog_arrow</title>
<path class="st0" d="M-847.5,1173.1l-6.6-5.5h20.7c3.4,0,3.4-5.3,0-5.3H-854l6.5-5.4c2.6-2.2-1.1-5.9-3.7-3.7
	c-3.9,3.2-7.8,6.4-11.7,9.6c-0.2,0.1-0.3,0.2-0.5,0.4l0,0l0,0c-0.4,0.5-0.6,1.1-0.6,1.7v0.1c-0.1,0.9,0.4,1.7,1.1,2.2
	c3.9,3.2,7.8,6.3,11.7,9.5C-848.6,1178.9-844.9,1175.2-847.5,1173.1z"/>
</svg>
