<?xml version="1.0" encoding="utf-8"?>
<!-- Generator: Adobe Illustrator 19.1.1, SVG Export Plug-In . SVG Version: 6.00 Build 0)  -->
<svg version="1.1" id="Layer_1" xmlns="http://www.w3.org/2000/svg" xmlns:xlink="http://www.w3.org/1999/xlink" x="0px" y="0px" width="20px" height="20px" xml:space="preserve" preserveAspectRatio="xMinYMin slice" viewBox="0 0 100 125">
<style type="text/css">
	.st0{fill:#FA5A36;}
</style>
<path class="st0" d="M62.8,28.3c1.9-0.2,3.8-0.1,5.6,0C63.9,16.1,51.2,8,36.7,8C18.2,8,3.2,21.3,3.2,37.7C3.2,44,5.4,49.9,9.5,55
	l0.2,0.2l-0.1,0.2c-1,1.7-2.1,2.8-3.4,3.4c-1.2,0.8-1.7,2.2-1.4,3.6c0.4,1.4,1.5,2.4,2.9,2.6c1.1,0.1,2.2,0.2,3.3,0.2
	c3.2,0,6.2-0.6,8.7-1.9l0.2-0.1l0.2,0.1c1.4,0.8,3,1.4,4.9,2v-0.7c0-1.6,0.2-3.2,0.4-4.7c-1.5-0.6-2.8-1.2-4.1-1.9l-1.3-0.7
	l-1.3,0.8C17,59,15.2,59.7,13.3,60l-1,0.2l0.6-0.8c0.8-1,1.5-2.3,2-3.8l0.5-1.5l-1-1.1c-4.1-4.4-6.2-9.6-6.2-15.3
	c0-13.6,12.7-24.6,28.4-24.6C48.2,13.1,58.4,19.1,62.8,28.3z"/>
<path class="st0" d="M89.9,90.8c1.1,0,2.2,0,3.2-0.2c1.5-0.2,2.6-1.2,2.9-2.6c0.4-1.3-0.2-2.8-1.4-3.6c-1.3-0.8-2.3-1.9-3.2-3.5
	l-0.1-0.2l0.2-0.2c4.2-5.2,6.4-11.3,6.4-17.6c0-16.6-15.2-30-33.9-30c-18.8,0-34,13.4-34,29.9c0,16.6,15.2,30,33.9,30
	c5.8,0,11.6-1.4,16.8-4l0.2-0.1l0.2,0.1C83.8,90.2,86.7,90.8,89.9,90.8z M79.7,83.7c-4.9,2.7-10.2,4.1-15.8,4.1
	c-15.9,0-28.8-11.2-28.8-24.9S48,38,63.9,38c15.9,0,28.8,11.2,28.8,24.9c0,5.7-2.1,11.1-6.2,15.6l-1,1.1l0.5,1.5
	c0.5,1.5,1.2,2.8,2,3.9l0.6,0.7l-0.9-0.1c-1.9-0.3-3.7-0.9-5.3-1.8L81,82.9L79.7,83.7z"/>
<path class="st0" d="M50.8,59.2c-2.1,0-3.7,1.7-3.7,3.7s1.7,3.7,3.7,3.7s3.7-1.7,3.7-3.7S52.8,59.2,50.8,59.2z"/>
<path class="st0" d="M77,59.2L77,59.2c-2.1,0-3.7,1.7-3.7,3.7s1.7,3.7,3.7,3.7l0,0c2.1,0,3.7-1.7,3.7-3.7S79.1,59.2,77,59.2z"/>
<path class="st0" d="M63.9,59.2c-2.1,0-3.7,1.7-3.7,3.7s1.7,3.7,3.7,3.7s3.7-1.7,3.7-3.7S66,59.2,63.9,59.2z"/>
</svg>
