<?xml version="1.0" encoding="utf-8"?>
<!-- Generator: Adobe Illustrator 19.1.1, SVG Export Plug-In . SVG Version: 6.00 Build 0)  -->
<svg version="1.1" id="Layer_1" xmlns="http://www.w3.org/2000/svg" xmlns:xlink="http://www.w3.org/1999/xlink" x="0px" y="0px"
	 width="34px" height="34px" viewBox="-288 380 34 34" style="enable-background:new -288 380 34 34;" xml:space="preserve">
<style type="text/css">
	.st0{fill:#FA5A36;}
</style>
<title>close</title>
<path class="st0" d="M-268.1,397l13.6-13.6c0.8-0.8,0.8-2.1,0-2.9c-0.8-0.8-2.1-0.8-2.9,0l-13.6,13.6l-13.6-13.6
	c-0.8-0.8-2.1-0.8-2.9,0c-0.8,0.8-0.8,2.1,0,2.9l13.6,13.6l-13.6,13.6c-0.8,0.8-0.8,2.1,0,2.9c0.8,0.8,2.1,0.8,2.9,0l13.6-13.6
	l13.6,13.6c0.8,0.8,2.1,0.8,2.9,0c0.8-0.8,0.8-2.1,0-2.9L-268.1,397z"/>
</svg>
