<svg id="Layer_1" data-name="Layer 1" xmlns="http://www.w3.org/2000/svg" viewBox="0 0 90 48.9"><defs><style>.cls-1{fill:#fa5936;}</style></defs><title>clothing</title><path class="cls-1" d="M0,41.4a7.5,7.5,0,0,0,7.5,7.5h75A7.6,7.6,0,0,0,88,46.5a7.2,7.2,0,0,0,2-5.3c0-4.1-2.3-6.8-7.1-8.2h0L46.3,21.1v-.6a20.1,20.1,0,0,1,.3-4.3v-.3l.3-.2.7-.6,1-.8.2-.2c1.8-1.6,3.5-3.1,3.5-6.6a7.5,7.5,0,1,0-14.9,0,1.5,1.5,0,1,0,3.1,0,4.6,4.6,0,0,1,9.2,0c0,2.1-.8,2.9-2.3,4.1l-.3.3A20.6,20.6,0,0,0,44.7,14c-.9.9-1.4,3.2-1.3,6.8v.6L7.3,33.2C2.4,34.6,0,37.3,0,41.4ZM8.1,36,45.2,23.8,82.3,36c4.4,1.4,5,3.4,5,5.4A4.6,4.6,0,0,1,82.7,46H7.7a4.6,4.6,0,0,1-4.6-4.6C3.1,39.4,3.5,37.4,8.1,36Z"/></svg>