<svg id="Layer_1" data-name="Layer 1" xmlns="http://www.w3.org/2000/svg" viewBox="0 0 98.6 78"><defs><style>.cls-1{fill:#fa5936;}</style></defs><title>enterdetails</title><path class="cls-1" d="M16.7,12.4C6.8,12.4,0,19.1,0,29.9V48.1C0,59,6.8,65.6,16.7,65.6S33.3,59,33.3,48.1V37.4H16.7V43h11v5.1c0,7.8-4.9,11.9-11,11.9s-11-4.1-11-11.9V29.9c0-7.8,4.9-11.9,11-11.9S27,21.6,27.6,28.5h5.7C32.7,18.5,26.1,12.4,16.7,12.4Z"/><path class="cls-1" d="M48.4,26.8H42.9V64.9h5.5V41c0-6.4,4.4-9.5,9.4-9.5h2.4V26.1H57.8c-3.5,0-7.4,1.6-9.4,4.7Z"/><path class="cls-1" d="M96.2,73.1H89.1a5.7,5.7,0,0,1-5.6-5.2h0c0-.2,0-.4,0-.6V41.5h5a2.5,2.5,0,0,0,0-4.9h-5V10.6a5.7,5.7,0,0,1,5.6-5.7h7.1a2.4,2.4,0,0,0,2.4-2.5A2.4,2.4,0,0,0,96.2,0H89.1a10.3,10.3,0,0,0-7.4,3.2l-.6.6-.6-.6A10.3,10.3,0,0,0,73.1,0H66a2.4,2.4,0,0,0-1.7.7,2.5,2.5,0,0,0-.7,1.7A2.4,2.4,0,0,0,66,4.9h7.1a5.7,5.7,0,0,1,5.6,5.7V36.5h-5a2.5,2.5,0,0,0,0,4.9h5V67.4c0,.2,0,.3,0,.5h0a5.7,5.7,0,0,1-5.6,5.1H66A2.5,2.5,0,0,0,66,78h7.1a10.3,10.3,0,0,0,7.4-3.2l.6-.6.6.6A10.3,10.3,0,0,0,89.1,78h7.1a2.5,2.5,0,0,0,0-4.9Z"/></svg>