<svg id="Layer_1" data-name="Layer 1" xmlns="http://www.w3.org/2000/svg" viewBox="0 0 34.97 50.87"><defs><style>.cls-1{fill:#fa5936;}</style></defs><title>funduses_cash</title><path class="cls-1" d="M35,45.65a1.5,1.5,0,0,0-.27-1.1A1.56,1.56,0,0,0,33.47,44a1.44,1.44,0,0,0-.91.29,14.39,14.39,0,0,1-8,2.68h-.17A8.55,8.55,0,0,1,20,45.69l-.17-.09A10.66,10.66,0,0,0,14.5,44l-.39.08a5.75,5.75,0,0,1-.81.14l-2.36.18.84-2.21A18.76,18.76,0,0,0,13,35.5a38.24,38.24,0,0,0-.7-6.74L12,27H19.5a1.5,1.5,0,1,0,0-3H11.38l-.23-1.22A54.11,54.11,0,0,1,10,12.5C10,7,14.42,3,20.5,3S31,7,31,12.5a1.5,1.5,0,0,0,3,0C34,5.61,27.94,0,20.5,0S7,5.61,7,12.5a57.19,57.19,0,0,0,.89,9.75L8.18,24H1.5A1.63,1.63,0,0,0,0,25.5,1.76,1.76,0,0,0,1.5,27H8.83l.24,1.21A38.75,38.75,0,0,1,10,35.5a13.53,13.53,0,0,1-1.4,6.85c-1.24,2.25-3.39,4.09-6.76,5.8a1.62,1.62,0,0,0-.49,1.93,1.64,1.64,0,0,0,1.41.79,1.31,1.31,0,0,0,.47-.08C8.07,48.21,11.65,47,14.5,47A6,6,0,0,1,18,48l.4.22A13.22,13.22,0,0,0,24.46,50a16.1,16.1,0,0,0,10-3.33A1.5,1.5,0,0,0,35,45.65Z"/></svg>