<svg id="Layer_1" data-name="Layer 1" xmlns="http://www.w3.org/2000/svg" viewBox="0 0 100.49 62.92"><defs><style>.cls-1{fill:#fa5936;}</style></defs><title>funuses_equip</title><path class="cls-1" d="M92.15,62.92H37.31a8.34,8.34,0,0,1,0-16.68H92.15a8.34,8.34,0,0,1,0,16.68ZM37.31,49.24a5.34,5.34,0,0,0,0,10.68H92.15a5.34,5.34,0,0,0,0-10.68Zm-13,13.68H16.11c-5.48,0-11.55-.27-14.18-3.52a8.7,8.7,0,0,1,0-11c1.72-2,4.74-5,6-6.18L2.6,1.91V1.84a1.49,1.49,0,0,1,0-.49h0A1.5,1.5,0,0,1,2.92.75h0a1.5,1.5,0,0,1,.51-.4h0A1.48,1.48,0,0,1,3.94.21H4C30.81-1.66,44.53,9.78,48.23,13.48a7.57,7.57,0,0,1,4.34-1.22H67.39c2.9,0,4.93,1.83,5.44,4.88.31,1.91,1,6.06,1.32,8.15H86.7a1.5,1.5,0,0,1,1.44,1.09L92.21,40.7a1.5,1.5,0,0,1-1.44,1.91H44.65a1.5,1.5,0,0,1-1.2-.6c-1.69-2.25-2.61-4.35-2.61-9S43.34,22,44.68,18.46l0-.13a12.86,12.86,0,0,1,1.38-2.71A38.53,38.53,0,0,0,36.8,9.07c-6.11-3.16-16.39-6.69-31-6L11,42.18l14.57,18.3a1.5,1.5,0,0,1-1.17,2.43ZM9.39,45C8,46.44,5.61,48.82,4.22,50.4a5.63,5.63,0,0,0,0,7.1c1.73,2.13,7,2.41,11.86,2.41h5.12ZM60,39.61H88.78L85.56,28.29H73.13L62.19,32.07Zm-14.58,0H56.87l2.65-9.12a1.5,1.5,0,0,1,1-1l10.72-3.71c-.34-2.09-1-6.25-1.33-8.16-.35-2.12-1.58-2.37-2.47-2.37H52.56a4.42,4.42,0,0,0-3.31,1.24l-.16.16a8.44,8.44,0,0,0-1.56,2.74l0,.13c-1.27,3.34-3.64,9.55-3.64,13.51C43.84,36.68,44.47,38.24,45.42,39.61Z"/></svg>