<svg id="Layer_1" data-name="Layer 1" xmlns="http://www.w3.org/2000/svg" viewBox="0 0 87.37 49.31"><defs><style>.cls-1{fill:#fa5936;}</style></defs><title>funduses_staff</title><path class="cls-1" d="M85.87,49.31a1.5,1.5,0,0,1-1.5-1.5A19.62,19.62,0,0,0,66,28.26a14.53,14.53,0,0,1-2.51,0A19.62,19.62,0,0,0,45.19,47.81a1.5,1.5,0,0,1-3,0A19.62,19.62,0,0,0,23.85,28.26a14.53,14.53,0,0,1-2.51,0A19.62,19.62,0,0,0,3,47.81a1.5,1.5,0,0,1-3,0A22.63,22.63,0,0,1,15.45,26.37a14.16,14.16,0,1,1,14.29,0A22.71,22.71,0,0,1,43.69,39.71,22.71,22.71,0,0,1,57.63,26.37a14.16,14.16,0,1,1,14.29,0A22.63,22.63,0,0,1,87.37,47.81,1.5,1.5,0,0,1,85.87,49.31ZM64.78,3a11.16,11.16,0,0,0-1.19,22.25,23.22,23.22,0,0,1,2.39,0A11.16,11.16,0,0,0,64.78,3ZM22.59,25.22q.6,0,1.19,0a11.15,11.15,0,1,0-2.39,0Q22,25.22,22.59,25.22Z"/></svg>