<svg xmlns="http://www.w3.org/2000/svg" viewBox="0 0 75 79.3"><defs><style>.cls-1{fill:#fa5936;}</style></defs><title>home</title><g id="Layer_2" data-name="Layer 2"><g id="Layer_1-2" data-name="Layer 1"><path class="cls-1" d="M73.1,25.9h0L44.1,2.3a10.5,10.5,0,0,0-13.2,0L1.9,25.9A5,5,0,0,0,0,29.8V74.2a5.1,5.1,0,0,0,5.1,5.1H24.5a5.1,5.1,0,0,0,5.1-5.1V46.9H45.4V74.2a5.1,5.1,0,0,0,5.1,5.1H69.9A5.1,5.1,0,0,0,75,74.2V29.8A5.1,5.1,0,0,0,73.1,25.9ZM23.8,46.1V73.5H5.8V30.2L34.6,6.9a4.8,4.8,0,0,1,5.9,0L69.2,30.2V73.5h-18V46.1a5.1,5.1,0,0,0-5.1-5H28.8A5.1,5.1,0,0,0,23.8,46.1Z"/></g></g></svg>