<svg id="Layer_1" data-name="Layer 1" xmlns="http://www.w3.org/2000/svg" viewBox="0 0 47.2 90.3"><defs><style>.cls-1{fill:#fa5936;}</style></defs><title>iphone</title><path class="cls-1" d="M23.4,76.7a3,3,0,1,0,3,3A3,3,0,0,0,23.4,76.7Z"/><path class="cls-1" d="M44.1,3.1A10.6,10.6,0,0,0,36.5,0H10.7A10.7,10.7,0,0,0,0,10.7v69A10.7,10.7,0,0,0,10.7,90.3H36.5A10.7,10.7,0,0,0,47.2,79.6v-69A10.6,10.6,0,0,0,44.1,3.1ZM36.5,85.3H10.7A5.7,5.7,0,0,1,5,79.6V74.8H42.2v4.9A5.7,5.7,0,0,1,36.5,85.3ZM5,69.8V17.7H42.2V69.8ZM5,12.7v-2A5.7,5.7,0,0,1,10.7,5H36.5a5.7,5.7,0,0,1,5.7,5.7v2Z"/></svg>