<?xml version="1.0" encoding="utf-8"?>
<!-- Generator: Adobe Illustrator 19.1.1, SVG Export Plug-In . SVG Version: 6.00 Build 0)  -->
<svg version="1.1" id="Layer_1" xmlns="http://www.w3.org/2000/svg" xmlns:xlink="http://www.w3.org/1999/xlink" x="0px" y="0px"
	 viewBox="-288 384.2 33.1 24.8" style="enable-background:new -288 384.2 33.1 24.8;" xml:space="preserve">
<style type="text/css">
	.st0{fill:#FFFFFF;}
</style>
<title>blog_arrow</title>
<path class="st0" d="M-267.7,408.4c3.9-3.2,7.8-6.3,11.7-9.5c0.7-0.5,1.2-1.3,1.1-2.2v-0.1c0-0.6-0.2-1.2-0.6-1.7l0,0l0,0
	c-0.1-0.1-0.3-0.3-0.5-0.4c-3.9-3.3-7.9-6.5-11.7-9.6c-2.6-2.1-6.3,1.6-3.7,3.7l6.5,5.4h-20.5c-3.4,0-3.4,5.3,0,5.3h20.7l-6.6,5.5
	C-274,406.8-270.3,410.5-267.7,408.4z"/>
</svg>
