<svg id="Layer_1" data-name="Layer 1" xmlns="http://www.w3.org/2000/svg" viewBox="0 0 90 74.5"><defs><style>.cls-1{fill:#fa5936;}</style></defs><title>manufacturing</title><path class="cls-1" d="M88.2,10.4H79.6a1.8,1.8,0,0,0-1.8,1.8V38l-9.4,5.7V33.8a1.8,1.8,0,0,0-2.7-1.5L46.8,43.6V33.8a1.8,1.8,0,0,0-2.7-1.5L25.1,43.6V33.8a1.8,1.8,0,0,0-2.7-1.5L.9,45.3A1.8,1.8,0,0,0,0,46.8V72.7a1.8,1.8,0,0,0,1.8,1.8H88.2A1.8,1.8,0,0,0,90,72.7V12.2A1.8,1.8,0,0,0,88.2,10.4ZM3.5,70.9V47.8L21.6,36.9v9.9a1.8,1.8,0,0,0,2.7,1.5L43.2,36.9v9.9a1.8,1.8,0,0,0,2.7,1.5L64.9,36.9v9.9a1.8,1.8,0,0,0,2.7,1.5l13-7.8a1.8,1.8,0,0,0,.9-1.5v-25h5.1v57Z"/><path class="cls-1" d="M71.3,5.7c5.9-1.2,9.6-1.7,11,1.2a1.8,1.8,0,0,0,1.6,1l.8-.2a1.8,1.8,0,0,0,.8-2.4C82.7-.2,76.3,1.1,70.6,2.2S61,3.9,59.6,1a1.8,1.8,0,1,0-3.2,1.6C59.2,8.1,65.6,6.8,71.3,5.7Z"/></svg>