<svg id="Layer_1" data-name="Layer 1" xmlns="http://www.w3.org/2000/svg" viewBox="0 0 71.4 71.3"><defs><style>.cls-1{fill:#fa5a36;}</style></defs><title>pen</title><path class="cls-1" d="M70.8,4.8,66.5.5a1.8,1.8,0,0,0-2.6,0L60.8,3.7h-.3a1.8,1.8,0,0,0-2.6,0L7.1,54.4l-.3.4L.2,69a1.6,1.6,0,0,0,1.4,2.3h.7l14.2-6.6.5-.4L60.5,20.7h.3l1.8,1.8a.2.2,0,0,1,0,.3L39.7,45.7a1.3,1.3,0,0,0,0,1.8l.5.5a1.2,1.2,0,0,0,1.7,0L66.1,23.8a1.6,1.6,0,0,0,0-2.3L63,18.5a.2.2,0,0,1,0-.3l4.8-4.8a1.6,1.6,0,0,0,0-2.3l-.3-.3,3.3-3.3A1.8,1.8,0,0,0,70.8,4.8ZM9.8,56.7l4.8,4.8a.2.2,0,0,1-.1.4l-9,4.2a.2.2,0,0,1-.3-.3l4.2-9A.2.2,0,0,1,9.8,56.7Zm7.2,2.6-5-5a.2.2,0,0,1,0-.3L59,7h.3l3.3,3.3,1.5,1.5h0l.3.3L17.3,59.4ZM65.1,8.3,63,6.2a.2.2,0,0,1,0-.3l2-2h.3L67.4,6a.2.2,0,0,1,0,.3l-2,2Z"/></svg>