<svg xmlns="http://www.w3.org/2000/svg" viewBox="0 0 62.8 78.9"><defs><style>.cls-1{fill:#01426a;}</style></defs><title>phone_blue</title><g id="Layer_2" data-name="Layer 2"><g id="Layer_1-2" data-name="Layer 1"><path class="cls-1" d="M49.9,0H49c-.1,0-13.3,5.4-12.6,18.7a2.1,2.1,0,0,0,.8,1.3,65.3,65.3,0,0,1,7,6.1c-1.4,2.7-4.9,8.9-5.9,10.5h-.1c-1.5,2.3-5.3,8-7.1,10.1l-3,3.5-5,5.7a61.9,61.9,0,0,1-8-4.5,1.9,1.9,0,0,0-1.7-.2C1.3,55.3.1,68.1,0,69.7H0a1.5,1.5,0,0,0,.3,1.1,15.6,15.6,0,0,0,4.9,5.7,13.2,13.2,0,0,0,7.7,2.5,14.7,14.7,0,0,0,5.4-1.1c.5-.2,12.3-5.6,24.3-22.7l6.9-9.9C59.6,30.9,62.1,19.3,62.7,15v-.3C63.2,4.4,54.5.6,49.9,0Z"/></g></g></svg>