<svg xmlns="http://www.w3.org/2000/svg" viewBox="0 0 88 88"><defs><style>.cls-1{fill:#fa5936;}</style></defs><title>print</title><g id="Layer_2" data-name="Layer 2"><g id="Layer_1-2" data-name="Layer 1"><path class="cls-1" d="M72.9,31.8h-.7V11.5C68,7.4,63.3,3,59.9,0h-44V31.8h-.7C6.8,31.8,0,39.5,0,49V73.8a2.4,2.4,0,0,0,2.2,2.2H15.9v9.7A2.4,2.4,0,0,0,18.1,88H69.9a2.4,2.4,0,0,0,2.2-2.2V76.1H85.8A2.4,2.4,0,0,0,88,73.8V49C88,39.5,81.2,31.8,72.9,31.8ZM20.4,4.5H53.8V17.4H67.7V31.8H20.4V4.5ZM67.6,83.5H20.4v-.7c0-6.5,0-13,.1-19.4V58.2H67.5v.7c.1,8.3.1,16.7.1,23.9ZM83.5,70.8v.7H72.1V55.9a2.4,2.4,0,0,0-2.2-2.2H18.2c-1.6,0-2.2.7-2.2,2.2V71.6H4.5V49c.1-6.1,4.2-12.7,10.7-12.7H72.8c5.2,0,10.7,5.1,10.7,12.7Z"/></g></g></svg>