<svg id="Layer_1" data-name="Layer 1" xmlns="http://www.w3.org/2000/svg" viewBox="0 0 90 90"><defs><style>.cls-1{fill:#fa5936;}</style></defs><title>recruitment</title><path class="cls-1" d="M43,2V6.2A38.9,38.9,0,0,0,6.2,43H2a2.1,2.1,0,0,0-2,2,2.2,2.2,0,0,0,2,2H6.2A38.9,38.9,0,0,0,43,83.8V88A2,2,0,1,0,47,88V83.8A38.9,38.9,0,0,0,83.8,47H88A2,2,0,1,0,88,43H83.8A38.9,38.9,0,0,0,47,6.2V2a2.2,2.2,0,0,0-2-2A2.3,2.3,0,0,0,43,2Zm2,8.2A34.8,34.8,0,1,1,10.2,45,34.7,34.7,0,0,1,45,10.2Z"/><path class="cls-1" d="M63.7,65.2a1.9,1.9,0,0,1-1.9-1.9,17.1,17.1,0,0,0-15.9-17H43.6a17.1,17.1,0,0,0-15.9,17,1.9,1.9,0,1,1-3.8,0A20.9,20.9,0,0,1,37,43.9a13.3,13.3,0,1,1,15.4,0A20.9,20.9,0,0,1,65.6,63.3,1.9,1.9,0,0,1,63.7,65.2Zm-19-22.8h1.1a9.5,9.5,0,1,0-2.1,0Z"/></svg>