<?xml version="1.0" encoding="utf-8"?>
<!-- Generator: Adobe Illustrator 19.1.1, SVG Export Plug-In . SVG Version: 6.00 Build 0)  -->
<svg version="1.1" xmlns="http://www.w3.org/2000/svg" xmlns:xlink="http://www.w3.org/1999/xlink" x="0px" y="0px" width="90px"
	 height="90px" viewBox="73.5 352.3 90 90" style="enable-background:new 73.5 352.3 90 90;" xml:space="preserve">
<style type="text/css">
	.st0{fill:#01426A;}
	.st1{fill:#FFFFFF;}
</style>
<g id="Layer_2_1_">
</g>
<g id="Layer_1">
	<title>mail</title>
	<circle class="st0" cx="118.5" cy="397.3" r="45"/>
	<g id="Layer_2">
		<g id="Layer_1-2">
			<path class="st1" d="M95.7,414.9c-2.7,0-5-2.2-5-5v-24.5c0-2.7,2.2-5,5-5h45.6c2.7,0,5,2.2,5,5v24.5c0,2.7-2.2,5-5,5H95.7z
				 M136.8,411.2l-12.6-11l-3,2.6c-1.6,1.4-3.9,1.4-5.5,0l-3-2.6l-12.6,11H136.8z M94.8,384.6c-0.2,0.2-0.3,0.5-0.3,0.8v24.5
				c0,0.3,0.1,0.6,0.3,0.8l15.2-13L94.8,384.6z M142.2,410.8c0.2-0.2,0.3-0.5,0.3-0.8v-24.6c0-0.3-0.1-0.6-0.3-0.8L127,397.7
				L142.2,410.8z M118.2,400h0.6l18.1-15.8h-36.7L118.2,400z"/>
		</g>
	</g>
</g>
</svg>
