<svg id="Layer_1" data-name="Layer 1" xmlns="http://www.w3.org/2000/svg" viewBox="0 0 94.7 84.9"><defs><style>.cls-1{fill:#fa5a36;}</style></defs><title>speechbubble</title><path class="cls-1" d="M59.7,20.3a38.6,38.6,0,0,1,5.6,0C60.7,8.1,48,0,33.5,0,15,0,0,13.3,0,29.7A26.9,26.9,0,0,0,6.3,47l.2.2v.2A7.4,7.4,0,0,1,3,50.8a3.3,3.3,0,0,0-1.4,3.6A3.5,3.5,0,0,0,4.5,57l3.3.2a20,20,0,0,0,8.7-1.9h.3a30.9,30.9,0,0,0,4.9,2v-.7A37.1,37.1,0,0,1,22,52a32.5,32.5,0,0,1-4.1-1.9l-1.3-.7-1.3.8A14.5,14.5,0,0,1,10.1,52l-1,.2.6-.8a12.9,12.9,0,0,0,2-3.8l.5-1.5-1-1.1A22.1,22.1,0,0,1,5.1,29.7C5.1,16.2,17.8,5.1,33.4,5.1,45,5.1,55.3,11.1,59.7,20.3Z"/><path class="cls-1" d="M86.7,82.9a18.1,18.1,0,0,0,3.2-.2,3.3,3.3,0,0,0,2.9-2.6,3.4,3.4,0,0,0-1.4-3.6,9.5,9.5,0,0,1-3.2-3.5v-.2l.2-.2a27.8,27.8,0,0,0,6.4-17.6c0-16.6-15.2-30-33.9-30s-34,13.4-34,29.9,15.2,30,33.9,30a37.8,37.8,0,0,0,16.8-4h.3A20.8,20.8,0,0,0,86.7,82.9ZM76.5,75.7a32.2,32.2,0,0,1-15.8,4.1C44.9,79.8,32,68.6,32,54.9S44.9,30,60.7,30,89.5,41.2,89.5,54.9a22.9,22.9,0,0,1-6.2,15.6l-1,1.1.5,1.5a15,15,0,0,0,2,3.9l.6.7h-.9a15.6,15.6,0,0,1-5.3-1.8L77.8,75Z"/><path class="cls-1" d="M47.6,51.2a3.7,3.7,0,0,0-3.7,3.7,3.7,3.7,0,1,0,3.7-3.7Z"/><path class="cls-1" d="M73.8,51.2h0a3.7,3.7,0,0,0-3.7,3.7,3.8,3.8,0,0,0,3.7,3.7h0a3.7,3.7,0,0,0,0-7.4Z"/><path class="cls-1" d="M60.7,51.2A3.7,3.7,0,0,0,57,54.9a3.7,3.7,0,0,0,7.4,0A3.7,3.7,0,0,0,60.7,51.2Z"/></svg>