<svg id="Layer_1" data-name="Layer 1" xmlns="http://www.w3.org/2000/svg" viewBox="0 0 90 51.6"><defs><style>.cls-1{fill:#fa5936;}</style></defs><title>transport</title><path class="cls-1" d="M88.7,26.8,75.5,12.3h-.1a4,4,0,0,0-2.6-1H59.6V3.9A3.9,3.9,0,0,0,55.7,0H3.9A3.9,3.9,0,0,0,0,3.9V39.9a3.9,3.9,0,0,0,3.9,3.9H8a9.5,9.5,0,0,0,18.7,0H64.4a9.5,9.5,0,0,0,9.3,7.8H75a9.5,9.5,0,0,0,8.1-7.7h3A3.9,3.9,0,0,0,90,39.9V29.7A3.9,3.9,0,0,0,88.7,26.8Zm-2,2.9V39.9a.6.6,0,0,1-.6.6h-3a9.5,9.5,0,0,0-18.7,0H59.6V14.5H73.2L86.4,29.1h.1A.6.6,0,0,1,86.8,29.7Zm-13,6.2a6.3,6.3,0,1,1-6.3,6.3A6.3,6.3,0,0,1,73.7,35.9ZM56.3,3.9V40.6H26.8A9.5,9.5,0,0,0,8,40.6H3.9a.6.6,0,0,1-.6-.6V3.9a.6.6,0,0,1,.6-.6H55.7A.6.6,0,0,1,56.3,3.9Zm-38.9,32a6.3,6.3,0,1,1-6.3,6.3A6.3,6.3,0,0,1,17.4,35.9Z"/></svg>