<?xml version="1.0" encoding="utf-8"?>
<!-- Generator: Adobe Illustrator 19.1.1, SVG Export Plug-In . SVG Version: 6.00 Build 0)  -->
<svg version="1.1" id="Layer_1" xmlns="http://www.w3.org/2000/svg" xmlns:xlink="http://www.w3.org/1999/xlink" width="20px" height="20px"
	 viewBox="0 0 90 90" xml:space="preserve" preserveAspectRatio="xMinYMin slice">
<style type="text/css">
	.st0{fill:#FFFFFF;}
</style>
<g>
	<path class="st0" d="M45,0C20.2,0,0,20.2,0,45s20.2,45,45,45s45-20.2,45-45S69.8,0,45,0z M66.3,47.2l-30,17.3
		c-0.4,0.2-0.8,0.3-1.3,0.3s-0.9-0.1-1.3-0.3c-0.8-0.4-1.3-1.3-1.3-2.2V27.7c0-0.9,0.5-1.7,1.3-2.2c0.8-0.4,1.7-0.4,2.5,0l30,17.3
		c0.8,0.4,1.3,1.3,1.3,2.2S67,46.7,66.3,47.2z"/>
</g>
</svg>
