<svg xmlns="http://www.w3.org/2000/svg" viewBox="0 0 68 60" width="20px" height="18px" xml:space="preserve" preserveAspectRatio="xMinYMin slice"><defs><style>.cls-1{fill:#01426a;}</style></defs><title>webchat</title><g id="Layer_2" data-name="Layer 2"><g id="Layer_1-2" data-name="Layer 1"><path class="cls-1" d="M60,58a18.1,18.1,0,0,0,3.2-.2,3.3,3.3,0,0,0,2.9-2.6,3.4,3.4,0,0,0-1.4-3.6A9.5,9.5,0,0,1,61.5,48v-.2l.2-.2A27.8,27.8,0,0,0,68,30C68,13.5,52.7,0,34,0S0,13.4,0,29.9,15.2,60,33.9,60a37.8,37.8,0,0,0,16.8-4h.3A20.8,20.8,0,0,0,60,58ZM49.8,50.8A32.2,32.2,0,0,1,34,54.9C18.2,54.9,5.3,43.7,5.3,30S18.2,5.1,34,5.1,62.8,16.3,62.8,30a22.9,22.9,0,0,1-6.2,15.6l-1,1.1.5,1.5a15,15,0,0,0,2,3.9l.6.7h-.9a15.6,15.6,0,0,1-5.3-1.8l-1.3-.8Z"/><path class="cls-1" d="M20.9,26.3A3.7,3.7,0,0,0,17.2,30a3.7,3.7,0,1,0,3.7-3.7Z"/><path class="cls-1" d="M47.1,26.3h0A3.7,3.7,0,0,0,43.4,30a3.8,3.8,0,0,0,3.7,3.7h0a3.7,3.7,0,0,0,0-7.4Z"/><path class="cls-1" d="M34,26.3A3.7,3.7,0,0,0,30.3,30a3.7,3.7,0,1,0,7.4,0A3.7,3.7,0,0,0,34,26.3Z"/></g></g></svg>