<svg id="Layer_1" data-name="Layer 1" xmlns="http://www.w3.org/2000/svg" viewBox="0 0 81.4 78.3"><defs><style>.cls-1{fill:#fa5936;}</style></defs><title>wholesale</title><path class="cls-1" d="M71,28.9l9.8-9.8a1.9,1.9,0,0,0,.6-1.6,2,2,0,0,0-1-1.4L52.9.3a2,2,0,0,0-2.4.3l-9.9,9.8L30.9.6A2,2,0,0,0,28.5.3L1,16.1a1.9,1.9,0,0,0-1,1.4,1.9,1.9,0,0,0,.5,1.6l9.9,9.8L.6,38.7A1.9,1.9,0,0,0,1,41.8l10.2,5.9V60.5a2,2,0,0,0,1,1.7L39.7,78l1,.3,1-.3L69.2,62.2a2,2,0,0,0,1-1.7V47.7l10.3-5.9a2,2,0,0,0,1-1.4,1.9,1.9,0,0,0-.6-1.6ZM42.7,49.4l7.9,7.9a1.9,1.9,0,0,0,1.1.5h.2l1-.3,13.4-7.7v9.5L42.7,73ZM67.9,31.4l8.4,8.3-24,13.8-8.4-8.3Zm-24-18.6,8.4-8.3,24,13.8-8.4,8.3ZM64.3,28.9,40.7,42.5,17.1,28.9,40.7,15.4ZM37.5,45.2l-8.4,8.3-15-8.6H14L5.1,39.7l8.4-8.3ZM15.1,49.9l13.4,7.7,1,.3h.2a1.9,1.9,0,0,0,1.1-.5l7.9-7.9V73L15.1,59.4ZM5.1,18.2l24-13.8,8.4,8.3-24,13.8Z"/></svg>