<?xml version="1.0" encoding="utf-8"?>
<!-- Generator: Adobe Illustrator 19.1.1, SVG Export Plug-In . SVG Version: 6.00 Build 0)  -->
<svg version="1.1" xmlns="http://www.w3.org/2000/svg" xmlns:xlink="http://www.w3.org/1999/xlink" x="0px" y="0px"
	 viewBox="0 0 90 90" style="enable-background:new 0 0 90 90;" xml:space="preserve">
<style type="text/css">
	.st0{fill:#FFFFFF;}
</style>
<g id="Layer_2">
	<path class="st0" d="M45,4c22.6,0,41,18.4,41,41S67.6,86,45,86S4,67.6,4,45S22.4,4,45,4 M45,0C20.1,0,0,20.1,0,45s20.1,45,45,45
		s45-20.1,45-45S69.9,0,45,0L45,0z"/>
	<path class="st0" d="M52.9,46.7l0.9-6.8H47v-4.3c0-2,0.6-3.3,3.4-3.3l3.6,0v-6c-0.6-0.1-2.8-0.3-5.3-0.3c-5.2,0-8.8,3.1-8.8,8.9v5
		H34v6.8h5.9V64H47V46.7H52.9z"/>
</g>
<g id="Layer_3">
</g>
</svg>
