<?xml version="1.0" encoding="utf-8"?>
<!-- Generator: Adobe Illustrator 19.1.1, SVG Export Plug-In . SVG Version: 6.00 Build 0)  -->
<svg version="1.1" id="Layer_1" xmlns="http://www.w3.org/2000/svg" xmlns:xlink="http://www.w3.org/1999/xlink" x="0px" y="0px"
	 viewBox="-260 352 90 90" style="enable-background:new -260 352 90 90;" xml:space="preserve">
<style type="text/css">
	.st0{fill:#FA5A36;}
</style>
<g id="Layer_2">
	<path class="st0" d="M-215,356c22.6,0,41,18.4,41,41s-18.4,41-41,41s-41-18.4-41-41S-237.6,356-215,356 M-215,352
		c-24.9,0-45,20.1-45,45s20.1,45,45,45s45-20.1,45-45S-190.1,352-215,352L-215,352z"/>
	<path class="st0" d="M-207.1,398.7l0.9-6.8h-6.8v-4.3c0-2,0.6-3.3,3.4-3.3h3.6v-6c-0.6-0.1-2.8-0.3-5.3-0.3c-5.2,0-8.8,3.1-8.8,8.9
		v5h-5.9v6.8h5.9V416h7.1v-17.3H-207.1z"/>
</g>
<g id="Layer_3">
</g>
</svg>
