<svg id="Layer_1" data-name="Layer 1" xmlns="http://www.w3.org/2000/svg" viewBox="0 0 90 90"><defs><style>.cls-1{fill:#fa5936;}.cls-2{fill:#fff;}</style></defs><title>social_googleorange</title><path class="cls-1" d="M45,0A45,45,0,1,0,90,45,45,45,0,0,0,45,0Z"/><path class="cls-2" d="M25,45a13.1,13.1,0,0,1,21.7-9.8c-1.1,1.2-2.1,2.3-3.3,3.4-2.3-1.4-5-2.4-7.7-1.5a8.2,8.2,0,1,0,5.5,15.5,7.2,7.2,0,0,0,4.2-4.9H38c0-1.5,0-2.9,0-4.4H50.5c.3,3.6-.3,7.5-2.6,10.4s-9.2,5.4-14,3.7A13,13,0,0,1,25,45Z"/><path class="cls-2" d="M58.6,39.4h3.7c0,1.2,0,2.5,0,3.7H66v3.7H62.3c0,1.2,0,2.5,0,3.7H58.6c0-1.2,0-2.5,0-3.7H54.8V43.2h3.7C58.5,41.9,58.5,40.7,58.6,39.4Z"/></svg>