<?xml version="1.0" encoding="utf-8"?>
<!-- Generator: Adobe Illustrator 19.1.1, SVG Export Plug-In . SVG Version: 6.00 Build 0)  -->
<svg version="1.1" id="Layer_1" xmlns="http://www.w3.org/2000/svg" xmlns:xlink="http://www.w3.org/1999/xlink" x="0px" y="0px"
	 viewBox="-260 352 90 90" style="enable-background:new -260 352 90 90;" xml:space="preserve">
<style type="text/css">
	.st0{fill:#FA5A36;}
</style>
<g id="Layer_2">
	<path class="st0" d="M-215,356c22.6,0,41,18.4,41,41s-18.4,41-41,41s-41-18.4-41-41S-237.6,356-215,356 M-215,352
		c-24.9,0-45,20.1-45,45s20.1,45,45,45s45-20.1,45-45S-190.1,352-215,352L-215,352z"/>
	<g>
		<path class="st0" d="M-235,397c-0.3-6.7,5.6-12.9,12.4-13c3.4-0.3,6.8,1,9.4,3.2c-1.1,1.2-2.1,2.3-3.3,3.4c-2.3-1.4-5-2.4-7.7-1.5
			c-4.3,1.2-6.9,6.3-5.3,10.5c1.3,4.4,6.7,6.8,10.9,5c2.2-0.8,3.6-2.8,4.2-4.9c-2.5,0-5,0-7.5-0.1c0-1.5,0-2.9,0-4.4
			c4.1,0,8.3,0,12.5,0c0.3,3.6-0.3,7.5-2.6,10.4c-3.2,4.1-9.2,5.4-14,3.7C-231.4,407.6-235.1,402.4-235,397z"/>
		<path class="st0" d="M-201.4,391.4c1.2,0,2.5,0,3.7,0c0,1.2,0,2.5,0,3.7c1.2,0,2.5,0,3.7,0c0,1.2,0,2.5,0,3.7c-1.2,0-2.5,0-3.7,0
			c0,1.2,0,2.5,0,3.7c-1.2,0-2.5,0-3.7,0c0-1.2,0-2.5,0-3.7c-1.2,0-2.5,0-3.7,0c0-1.2,0-2.5,0-3.7c1.2,0,2.5,0,3.7,0
			C-201.5,393.9-201.5,392.7-201.4,391.4z"/>
	</g>
</g>
<g id="Layer_3">
</g>
</svg>
