<?xml version="1.0" encoding="utf-8"?>
<!-- Generator: Adobe Illustrator 19.1.1, SVG Export Plug-In . SVG Version: 6.00 Build 0)  -->
<svg version="1.1" xmlns="http://www.w3.org/2000/svg" xmlns:xlink="http://www.w3.org/1999/xlink" x="0px" y="0px"
	 viewBox="0 0 90 90" style="enable-background:new 0 0 90 90;" xml:space="preserve">
<style type="text/css">
	.st0{fill:#FFFFFF;}
</style>
<g id="Layer_2">
	<path class="st0" d="M45,4c22.6,0,41,18.4,41,41S67.6,86,45,86S4,67.6,4,45S22.4,4,45,4 M45,0C20.1,0,0,20.1,0,45s20.1,45,45,45
		s45-20.1,45-45S69.9,0,45,0L45,0z"/>
	<g>
		<path class="st0" d="M25,45c-0.3-6.7,5.6-12.9,12.4-13c3.4-0.3,6.8,1,9.4,3.2c-1.1,1.2-2.1,2.3-3.3,3.4c-2.3-1.4-5-2.4-7.7-1.5
			c-4.3,1.2-6.9,6.3-5.3,10.5c1.3,4.4,6.7,6.8,10.9,5c2.2-0.8,3.6-2.8,4.2-4.9c-2.5,0-5,0-7.5-0.1c0-1.5,0-2.9,0-4.4
			c4.1,0,8.3,0,12.5,0c0.3,3.6-0.3,7.5-2.6,10.4c-3.2,4.1-9.2,5.4-14,3.7C28.6,55.6,24.9,50.4,25,45z"/>
		<path class="st0" d="M58.6,39.4c1.2,0,2.5,0,3.7,0c0,1.2,0,2.5,0,3.7c1.2,0,2.5,0,3.7,0c0,1.2,0,2.5,0,3.7c-1.2,0-2.5,0-3.7,0
			c0,1.2,0,2.5,0,3.7c-1.2,0-2.5,0-3.7,0c0-1.2,0-2.5,0-3.7c-1.2,0-2.5,0-3.7,0c0-1.2,0-2.5,0-3.7c1.2,0,2.5,0,3.7,0
			C58.5,41.9,58.5,40.7,58.6,39.4z"/>
	</g>
</g>
<g id="Layer_3">
</g>
</svg>
