<svg id="Layer_1" data-name="Layer 1" xmlns="http://www.w3.org/2000/svg" viewBox="0 0 90 90"><defs><style>.cls-1{fill:#01426a;}</style></defs><title>social_googleblue</title><path class="cls-1" d="M45,0A45,45,0,1,0,90,45,45,45,0,0,0,45,0Zm2.8,53.6c-3.2,4.1-9.2,5.4-14,3.7A13,13,0,1,1,46.7,35.2c-1.1,1.2-2.1,2.3-3.3,3.4-2.3-1.4-5-2.4-7.7-1.5a8.2,8.2,0,1,0,5.5,15.5,7.2,7.2,0,0,0,4.2-4.9H38c0-1.5,0-2.9,0-4.4H50.5C50.7,46.8,50.2,50.7,47.8,53.6ZM66,46.9H62.3c0,1.2,0,2.5,0,3.7H58.6c0-1.2,0-2.5,0-3.7H54.8V43.2h3.7c0-1.2,0-2.5,0-3.7h3.7c0,1.2,0,2.5,0,3.7H66Z"/></svg>