<svg id="Layer_1" data-name="Layer 1" xmlns="http://www.w3.org/2000/svg" viewBox="0 0 90 90"><defs><style>.cls-1{fill:#fa5936;}.cls-2{fill:#fff;}</style></defs><title>social_linkedinorange</title><path class="cls-1" d="M45,0A45,45,0,1,0,90,45,45,45,0,0,0,45,0Z"/><path class="cls-2" d="M29.6,36.6h7.3V60H29.6ZM33.2,25A4.2,4.2,0,1,1,29,29.2,4.2,4.2,0,0,1,33.2,25"/><path class="cls-2" d="M41.4,36.6h7v3.2h.1A7.6,7.6,0,0,1,55.3,36c7.3,0,8.7,4.8,8.7,11.1V60H56.8V48.6c0-2.7-.1-6.2-3.8-6.2s-4.4,3-4.4,6V60H41.4Z"/></svg>