<?xml version="1.0" encoding="utf-8"?>
<!-- Generator: Adobe Illustrator 19.1.1, SVG Export Plug-In . SVG Version: 6.00 Build 0)  -->
<svg version="1.1" xmlns="http://www.w3.org/2000/svg" xmlns:xlink="http://www.w3.org/1999/xlink" x="0px" y="0px"
	 viewBox="0 0 90 90" style="enable-background:new 0 0 90 90;" xml:space="preserve">
<style type="text/css">
	.st0{fill:#FFFFFF;}
</style>
<g id="Layer_3">
	<path class="st0" d="M45,4c22.6,0,41,18.4,41,41S67.6,86,45,86S4,67.6,4,45S22.4,4,45,4 M45,0C20.1,0,0,20.1,0,45s20.1,45,45,45
		s45-20.1,45-45S69.9,0,45,0L45,0z"/>
	<g>
		<path class="st0" d="M29.6,36.6h7.3V60h-7.3V36.6z M33.2,25c2.3,0,4.2,1.9,4.2,4.2c0,2.3-1.9,4.2-4.2,4.2c-2.3,0-4.2-1.9-4.2-4.2
			C29,26.9,30.9,25,33.2,25"/>
		<path class="st0" d="M41.4,36.6h7v3.2h0.1c1-1.8,3.3-3.8,6.9-3.8c7.3,0,8.7,4.8,8.7,11.1V60h-7.2V48.6c0-2.7-0.1-6.2-3.8-6.2
			c-3.8,0-4.4,3-4.4,6V60h-7.2V36.6z"/>
	</g>
</g>
<g id="Layer_2">
</g>
</svg>
