<?xml version="1.0" encoding="utf-8"?>
<!-- Generator: Adobe Illustrator 19.1.1, SVG Export Plug-In . SVG Version: 6.00 Build 0)  -->
<svg version="1.1" id="Layer_1" xmlns="http://www.w3.org/2000/svg" xmlns:xlink="http://www.w3.org/1999/xlink" x="0px" y="0px"
	 viewBox="-260 352 90 90" style="enable-background:new -260 352 90 90;" xml:space="preserve">
<style type="text/css">
	.st0{fill:#FA5A36;}
</style>
<g id="Layer_3">
	<path class="st0" d="M-215,356c22.6,0,41,18.4,41,41s-18.4,41-41,41s-41-18.4-41-41S-237.6,356-215,356 M-215,352
		c-24.9,0-45,20.1-45,45s20.1,45,45,45s45-20.1,45-45S-190.1,352-215,352L-215,352z"/>
	<g>
		<path class="st0" d="M-230.4,388.6h7.3V412h-7.3C-230.4,412-230.4,388.6-230.4,388.6z M-226.8,377c2.3,0,4.2,1.9,4.2,4.2
			c0,2.3-1.9,4.2-4.2,4.2s-4.2-1.9-4.2-4.2C-231,378.9-229.1,377-226.8,377"/>
		<path class="st0" d="M-218.6,388.6h7v3.2h0.1c1-1.8,3.3-3.8,6.9-3.8c7.3,0,8.7,4.8,8.7,11.1V412h-7.2v-11.4c0-2.7-0.1-6.2-3.8-6.2
			c-3.8,0-4.4,3-4.4,6V412h-7.2v-23.4H-218.6z"/>
	</g>
</g>
<g id="Layer_2">
</g>
</svg>
