<?xml version="1.0" encoding="utf-8"?>
<!-- Generator: Adobe Illustrator 19.1.1, SVG Export Plug-In . SVG Version: 6.00 Build 0)  -->
<svg version="1.1" id="Layer_1" xmlns="http://www.w3.org/2000/svg" xmlns:xlink="http://www.w3.org/1999/xlink" x="0px" y="0px"
	 viewBox="0 0 62.8 78.9" style="enable-background:new 0 0 62.8 78.9;" xml:space="preserve">
<style type="text/css">
	.st0{fill:#FFFFFF;}
</style>
<path class="st0" d="M49.9,0c-0.3,0-0.6,0-0.9,0.1c-0.1,0-13.3,5.4-12.6,18.7c0.1,0.6,0.4,1.1,0.8,1.3c2.6,2,5.9,4.8,7,6.1
	c-1.4,2.7-4.9,8.9-5.9,10.5l-0.1,0.1c-1.5,2.3-5.3,8-7.1,10.1c-0.5,0.6-1.7,2-3,3.5c-1.8,2.1-3.9,4.5-5,5.7c-1.6-0.7-5.1-2.6-8-4.5
	c-0.5-0.3-1.1-0.4-1.7-0.2C1.3,55.3,0.1,68.1,0,69.7l0,0c-0.1,0.4,0,0.8,0.3,1.1c1,2.1,2.9,4.3,4.9,5.7c2.4,1.7,5,2.5,7.7,2.5
	c1.8,0,3.6-0.4,5.4-1.1c0.5-0.2,12.3-5.6,24.3-22.7l6.9-9.9C59.6,30.9,62.1,19.3,62.7,15c0-0.1,0-0.2,0-0.3
	C63.2,4.4,54.5,0.6,49.9,0z M25.2,59.7c0.1-0.1,7.1-8.1,8.8-10.1c2-2.4,5.9-8.2,7.1-10.2c0.2-0.3,0.3-0.5,0.3-0.5
	c1.1-1.5,3.7-6.4,5.3-9.4c0.6-1.1,1.2-2.2,1.3-2.3c0.1-0.1,0.2-0.3,0.2-0.5c0.3-1,0.4-2.5-8-9.1c0.1-9,8.1-13.1,9.6-13.8
	c1.9,0.4,9.3,2.5,9,10.5c0,0.1-1.3,12.5-12.5,28.5c0,0,0,0.1-0.1,0.1c-0.2,0.4-2.4,3.4-4.1,5.8c-1,1.5-2.1,2.9-2.9,4.1
	C28.1,69,16.8,74.2,16.8,74.3c0,0-0.1,0-0.1,0c-7.7,3-12.2-3.6-12.9-4.9c0.4-3.3,2.1-10.9,9.7-13.7c8.8,5.5,10.4,5.2,11.4,4.3
	c0,0,0,0,0,0c0,0,0,0,0,0C25,59.9,25.1,59.8,25.2,59.7z"/>
</svg>
