<svg id="Layer_1" data-name="Layer 1" xmlns="http://www.w3.org/2000/svg" viewBox="0 0 90 90"><defs><style>.cls-1{fill:#fa5936;}.cls-2{fill:#fff;}</style></defs><title>social_twitterorange</title><path class="cls-1" d="M45,0A45,45,0,1,0,90,45,45,45,0,0,0,45,0Z"/><path class="cls-2" d="M65,34.6a15.9,15.9,0,0,1-4.5,1.2A7.6,7.6,0,0,0,64,31.6,15.9,15.9,0,0,1,59,33.4,7.9,7.9,0,0,0,53.3,31a7.7,7.7,0,0,0-7.8,7.6,7.4,7.4,0,0,0,.2,1.7,22.4,22.4,0,0,1-16.1-7.9,7.4,7.4,0,0,0-1.1,3.8,7.5,7.5,0,0,0,3.5,6.3,7.9,7.9,0,0,1-3.5-.9h0a7.6,7.6,0,0,0,6.3,7.4l-2.1.3H31.3a7.8,7.8,0,0,0,7.3,5.3,15.9,15.9,0,0,1-9.7,3.2H27A22.6,22.6,0,0,0,39,61,21.7,21.7,0,0,0,61.1,39.5c0-.3,0-.7,0-1A15.6,15.6,0,0,0,65,34.6Z"/></svg>