<?xml version="1.0" encoding="utf-8"?>
<!-- Generator: Adobe Illustrator 19.1.1, SVG Export Plug-In . SVG Version: 6.00 Build 0)  -->
<svg version="1.1" id="Layer_1" xmlns="http://www.w3.org/2000/svg" xmlns:xlink="http://www.w3.org/1999/xlink" x="0px" y="0px"
	 viewBox="-260 352 90 90" style="enable-background:new -260 352 90 90;" xml:space="preserve">
<style type="text/css">
	.st0{fill:#FA5A36;}
</style>
<g id="Layer_1_1_">
	<path class="st0" d="M-215,356c22.6,0,41,18.4,41,41s-18.4,41-41,41s-41-18.4-41-41S-237.6,356-215,356 M-215,352
		c-24.9,0-45,20.1-45,45s20.1,45,45,45s45-20.1,45-45S-190.1,352-215,352L-215,352z"/>
	<path class="st0" d="M-195,386.6c-1.4,0.6-2.9,1-4.5,1.2c1.6-0.9,2.8-2.4,3.4-4.2c-1.5,0.9-3.2,1.5-4.9,1.8
		c-1.4-1.5-3.5-2.4-5.7-2.4c-4.3,0-7.8,3.4-7.8,7.6c0,0.6,0.1,1.2,0.2,1.7c-6.5-0.3-12.2-3.3-16.1-7.9c-0.7,1.1-1.1,2.4-1.1,3.8
		c0,2.6,1.4,4.9,3.5,6.3c-1.3,0-2.5-0.4-3.5-0.9v0.1c0,3.7,2.7,6.7,6.3,7.4c-0.7,0.2-1.3,0.3-2.1,0.3c-0.5,0-1,0-1.5-0.1
		c1,3,3.9,5.2,7.3,5.3c-2.7,2-6,3.2-9.7,3.2c-0.6,0-1.2,0-1.9-0.1c3.5,2.1,7.5,3.4,12,3.4c14.3,0,22.2-11.5,22.2-21.5
		c0-0.3,0-0.7,0-1C-197.4,389.4-196,388.1-195,386.6z"/>
</g>
<g id="Layer_2">
</g>
</svg>
