<?xml version="1.0" encoding="utf-8"?>
<!-- Generator: Adobe Illustrator 19.1.1, SVG Export Plug-In . SVG Version: 6.00 Build 0)  -->
<svg version="1.1" xmlns="http://www.w3.org/2000/svg" xmlns:xlink="http://www.w3.org/1999/xlink" x="0px" y="0px"
	 viewBox="0 0 90 90" style="enable-background:new 0 0 90 90;" xml:space="preserve">
<style type="text/css">
	.st0{fill:#FFFFFF;}
</style>
<g id="Layer_1">
	<path class="st0" d="M45,4c22.6,0,41,18.4,41,41S67.6,86,45,86S4,67.6,4,45S22.4,4,45,4 M45,0C20.1,0,0,20.1,0,45s20.1,45,45,45
		s45-20.1,45-45S69.9,0,45,0L45,0z"/>
	<path class="st0" d="M65,34.6c-1.4,0.6-2.9,1-4.5,1.2c1.6-0.9,2.8-2.4,3.4-4.2c-1.5,0.9-3.2,1.5-4.9,1.8c-1.4-1.5-3.5-2.4-5.7-2.4
		c-4.3,0-7.8,3.4-7.8,7.6c0,0.6,0.1,1.2,0.2,1.7C39.2,40,33.5,37,29.6,32.4c-0.7,1.1-1.1,2.4-1.1,3.8c0,2.6,1.4,4.9,3.5,6.3
		c-1.3,0-2.5-0.4-3.5-0.9v0.1c0,3.7,2.7,6.7,6.3,7.4c-0.7,0.2-1.3,0.3-2.1,0.3c-0.5,0-1,0-1.5-0.1c1,3,3.9,5.2,7.3,5.3
		c-2.7,2-6,3.2-9.7,3.2c-0.6,0-1.2,0-1.9-0.1c3.5,2.1,7.5,3.4,12,3.4c14.3,0,22.2-11.5,22.2-21.5c0-0.3,0-0.7,0-1
		C62.6,37.4,64,36.1,65,34.6z"/>
</g>
<g id="Layer_2">
</g>
</svg>
