<svg id="Layer_1" data-name="Layer 1" xmlns="http://www.w3.org/2000/svg" viewBox="0 0 90 90"><defs><style>.cls-1{fill:#01426a;}</style></defs><title>social_twitterblue</title><path class="cls-1" d="M45,0A45,45,0,1,0,90,45,45,45,0,0,0,45,0ZM61.1,38.5c0,.3,0,.7,0,1A21.7,21.7,0,0,1,39,61a22.6,22.6,0,0,1-12-3.4h1.9a15.9,15.9,0,0,0,9.7-3.2,7.8,7.8,0,0,1-7.3-5.3h1.5l2.1-.3a7.6,7.6,0,0,1-6.3-7.4h0a7.9,7.9,0,0,0,3.5.9,7.5,7.5,0,0,1-3.5-6.3,7.4,7.4,0,0,1,1.1-3.8,22.4,22.4,0,0,0,16.1,7.9,7.4,7.4,0,0,1-.2-1.7A7.7,7.7,0,0,1,53.3,31,7.9,7.9,0,0,1,59,33.4,15.9,15.9,0,0,0,64,31.6a7.6,7.6,0,0,1-3.4,4.2A15.9,15.9,0,0,0,65,34.6,15.6,15.6,0,0,1,61.1,38.5Z"/></svg>