<?xml version="1.0" encoding="utf-8"?>
<!-- Generator: Adobe Illustrator 19.1.1, SVG Export Plug-In . SVG Version: 6.00 Build 0)  -->
<svg version="1.1" xmlns="http://www.w3.org/2000/svg" xmlns:xlink="http://www.w3.org/1999/xlink" x="0px" y="0px"
	 viewBox="0 0 90 90" style="enable-background:new 0 0 90 90;" xml:space="preserve">
<style type="text/css">
	.st0{fill:#FFFFFF;}
</style>
<g id="Layer_3">
	<path class="st0" d="M44,4c22.6,0,41,18.4,41,41S66.6,86,44,86S3,67.6,3,45S21.4,4,44,4 M44,0C19.1,0-1,20.1-1,45s20.1,45,45,45
		s45-20.1,45-45S68.9,0,44,0L44,0z"/>
	<path class="st0" d="M63.6,37.1c0,0-0.4-2.8-1.6-4c-1.5-1.6-3.2-1.6-4-1.7C52.4,31,44,31,44,31h0c0,0-8.4,0-14,0.4
		c-0.8,0.1-2.5,0.1-4,1.7c-1.2,1.2-1.6,4-1.6,4S24,40.4,24,43.6v3.1c0,3.3,0.4,6.5,0.4,6.5s0.4,2.8,1.6,4c1.5,1.6,3.5,1.6,4.4,1.7
		c3.2,0.3,13.6,0.4,13.6,0.4s8.4,0,14-0.4c0.8-0.1,2.5-0.1,4-1.7c1.2-1.2,1.6-4,1.6-4s0.4-3.3,0.4-6.5v-3.1
		C64,40.4,63.6,37.1,63.6,37.1 M39.9,50.4l0-11.3l10.8,5.7L39.9,50.4z"/>
</g>
<g id="Layer_2">
</g>
</svg>
