<?xml version="1.0" encoding="utf-8"?>
<!-- Generator: Adobe Illustrator 19.1.1, SVG Export Plug-In . SVG Version: 6.00 Build 0)  -->
<svg version="1.1" id="Layer_1" xmlns="http://www.w3.org/2000/svg" xmlns:xlink="http://www.w3.org/1999/xlink" x="0px" y="0px"
	 viewBox="-261 352 90 90" style="enable-background:new -261 352 90 90;" xml:space="preserve">
<style type="text/css">
	.st0{fill:#FA5A36;}
</style>
<g id="Layer_3">
	<path class="st0" d="M-216,356c22.6,0,41,18.4,41,41s-18.4,41-41,41s-41-18.4-41-41S-238.6,356-216,356 M-216,352
		c-24.9,0-45,20.1-45,45s20.1,45,45,45s45-20.1,45-45S-191.1,352-216,352L-216,352z"/>
	<path class="st0" d="M-196.4,389.1c0,0-0.4-2.8-1.6-4c-1.5-1.6-3.2-1.6-4-1.7c-5.6-0.4-14-0.4-14-0.4l0,0c0,0-8.4,0-14,0.4
		c-0.8,0.1-2.5,0.1-4,1.7c-1.2,1.2-1.6,4-1.6,4s-0.4,3.3-0.4,6.5v3.1c0,3.3,0.4,6.5,0.4,6.5s0.4,2.8,1.6,4c1.5,1.6,3.5,1.6,4.4,1.7
		c3.2,0.3,13.6,0.4,13.6,0.4s8.4,0,14-0.4c0.8-0.1,2.5-0.1,4-1.7c1.2-1.2,1.6-4,1.6-4s0.4-3.3,0.4-6.5v-3.1
		C-196,392.4-196.4,389.1-196.4,389.1 M-220.1,402.4v-11.3l10.8,5.7L-220.1,402.4z"/>
</g>
<g id="Layer_2">
</g>
</svg>
