<svg id="Layer_1" data-name="Layer 1" xmlns="http://www.w3.org/2000/svg" viewBox="0 0 90 90"><defs><style>.cls-1{fill:#01426a;}</style></defs><title>social_ytblue</title><polygon class="cls-1" points="40.9 50.4 51.7 44.7 40.9 39.1 40.9 50.4"/><path class="cls-1" d="M45,0A45,45,0,1,0,90,45,45,45,0,0,0,45,0ZM65,46.7a61.3,61.3,0,0,1-.4,6.5s-.4,2.8-1.6,4a5.7,5.7,0,0,1-4,1.7c-5.6.4-14,.4-14,.4s-10.4-.1-13.6-.4c-.9-.2-2.9-.1-4.4-1.7s-1.6-4-1.6-4a61.2,61.2,0,0,1-.4-6.5V43.6a61.2,61.2,0,0,1,.4-6.5s.4-2.8,1.6-4a5.7,5.7,0,0,1,4-1.7c5.6-.4,14-.4,14-.4h0s8.4,0,14,.4a5.7,5.7,0,0,1,4,1.7c1.2,1.2,1.6,4,1.6,4a61.3,61.3,0,0,1,.4,6.5Z"/></svg>