<svg id="Layer_1" data-name="Layer 1" xmlns="http://www.w3.org/2000/svg" viewBox="0 0 90 90"><defs><style>.cls-1{fill:#fa5936;}.cls-2{fill:#fff;}</style></defs><title>social_ytorange</title><path class="cls-1" d="M45,0A45,45,0,1,0,90,45,45,45,0,0,0,45,0Z"/><path class="cls-2" d="M64.6,37.1s-.4-2.8-1.6-4a5.7,5.7,0,0,0-4-1.7C53.4,31,45,31,45,31h0s-8.4,0-14,.4a5.7,5.7,0,0,0-4,1.7c-1.2,1.2-1.6,4-1.6,4a61.2,61.2,0,0,0-.4,6.5v3.1a61.2,61.2,0,0,0,.4,6.5s.4,2.8,1.6,4,3.5,1.6,4.4,1.7c3.2.3,13.6.4,13.6.4s8.4,0,14-.4a5.7,5.7,0,0,0,4-1.7c1.2-1.2,1.6-4,1.6-4a61.3,61.3,0,0,0,.4-6.5V43.6a61.3,61.3,0,0,0-.4-6.5M40.9,50.4V39.1l10.8,5.7Z"/></svg>