<svg xmlns="http://www.w3.org/2000/svg">
	<defs>
		<style>.cls-1{fill:#fa5a36;}</style>
		<style>.cls-1{fill:#59bec9;}</style>
	</defs>
	<symbol viewBox="0 0 33.11 24.82" id="shape-blog_arrow">
		<title>blog_arrow</title>
		<path class="cls-1" d="M20.3,24.17c3.87-3.2,7.83-6.33,11.7-9.53a2.41,2.41,0,0,0,1.1-2.18v-.11a2.49,2.49,0,0,0-.6-1.68l0,0,0,0a4.34,4.34,0,0,0-.47-.38C28.13,7,24.15,3.83,20.3.65,17.72-1.5,14,2.2,16.59,4.36l6.5,5.37H2.54C-.85,9.72-.85,15,2.54,15H23.22l-6.63,5.49C14,22.62,17.72,26.31,20.3,24.17Z"/>
	</symbol>
	<symbol viewBox="0 0 72 33.8" id="shape-down-arrow">
		<title>down-arrow</title>
		<style type="text/css"> .st0{fill:#F15C3A;} </style> <g>
			<path class="st0" d="M71.3,1.2c-1.1-1.4-3.2-1.5-4.5-0.4L36,26.4L5.3,0.7C3.9-0.4,1.9-0.2,0.7,1.2c-1.1,1.4-1,3.4,0.4,4.5L33.9,33
		c0.6,0.5,1.3,0.7,2.1,0.7c0.7,0,1.5-0.2,2.1-0.7L70.8,5.7C72.2,4.5,72.4,2.5,71.3,1.2z"/>
		</g>
	</symbol>
	<symbol viewBox="0 0 162 162" id="shape-fb-logo">
		<title>fb-logo</title>
		<style type="text/css"> .st0{fill:#FFFFFF;} </style> 
		<g id="fb-logo-Layer_2">
			<path class="cls-1" d="M81,1a80,80,0,1,0,80,80A80,80,0,0,0,81,1Zm19.95,81.4H87.6V130H67.82V82.4H58.42V65.59h9.41V54.71c0-7.79,3.7-20,20-20l14.65.06V51.13H91.8c-1.73,0-4.2.86-4.2,4.58v9.88h15.08Z"/>
		</g>
	</symbol>
	<symbol viewBox="0 0 90 90" id="shape-gplus-logo">
		<title>gplus-logo</title>
		<style type="text/css"> .st0{fill:#FFFFFF;} </style> <g id="gplus-logo-Layer_2">
			<path class="st0" d="M45,4c22.6,0,41,18.4,41,41S67.6,86,45,86S4,67.6,4,45S22.4,4,45,4 M45,0C20.1,0,0,20.1,0,45s20.1,45,45,45
		s45-20.1,45-45S69.9,0,45,0L45,0z"/>
			<g>
				<path class="st0" d="M25,45c-0.3-6.7,5.6-12.9,12.4-13c3.4-0.3,6.8,1,9.4,3.2c-1.1,1.2-2.1,2.3-3.3,3.4c-2.3-1.4-5-2.4-7.7-1.5
			c-4.3,1.2-6.9,6.3-5.3,10.5c1.3,4.4,6.7,6.8,10.9,5c2.2-0.8,3.6-2.8,4.2-4.9c-2.5,0-5,0-7.5-0.1c0-1.5,0-2.9,0-4.4
			c4.1,0,8.3,0,12.5,0c0.3,3.6-0.3,7.5-2.6,10.4c-3.2,4.1-9.2,5.4-14,3.7C28.6,55.6,24.9,50.4,25,45z"/>
				<path class="st0" d="M58.6,39.4c1.2,0,2.5,0,3.7,0c0,1.2,0,2.5,0,3.7c1.2,0,2.5,0,3.7,0c0,1.2,0,2.5,0,3.7c-1.2,0-2.5,0-3.7,0
			c0,1.2,0,2.5,0,3.7c-1.2,0-2.5,0-3.7,0c0-1.2,0-2.5,0-3.7c-1.2,0-2.5,0-3.7,0c0-1.2,0-2.5,0-3.7c1.2,0,2.5,0,3.7,0
			C58.5,41.9,58.5,40.7,58.6,39.4z"/>
			</g>
		</g>
	</symbol>
	<symbol viewBox="0 0 162 162" id="shape-linkedin-logo">
		<title>linkedin-logo</title>
		<style type="text/css"> .st0{fill:#FFFFFF;} </style> <g id="linkedin-logo-Layer_3">			
			<path class="cls-1" d="M81,1a80,80,0,1,0,80,80A80,80,0,0,0,81,1ZM58.74,120H41.24V67.38h17.5ZM50,60.19h-.11c-5.87,0-9.66-4-9.66-9.09S44.12,42,50.1,42s9.67,3.93,9.78,9.09S56.09,60.19,50,60.19ZM121.81,120H104.32V91.85c0-7.07-2.53-11.9-8.87-11.9a9.59,9.59,0,0,0-9,6.41,11.88,11.88,0,0,0-.58,4.26V120H68.41s.22-47.68,0-52.61H85.9v7.45c2.33-3.6,6.48-8.69,15.77-8.69,11.5,0,20.14,7.51,20.14,23.68Z"/>
		</g>
	</symbol>
	<symbol viewBox="0 0 34 34" id="shape-nav-close">
		<title>nav-close</title>
		<style type="text/css"> .st0{fill-rule:evenodd;clip-rule:evenodd;fill:#01426A;} </style> <g id="nav-close-Layer_2">
			<path class="st0" d="M19.9,17L33.4,3.4c0.8-0.8,0.8-2.1,0-2.9c-0.8-0.8-2.1-0.8-2.9,0L17,14.1L3.4,0.6c-0.8-0.8-2.1-0.8-2.9,0
		c-0.8,0.8-0.8,2.1,0,2.9L14.1,17L0.6,30.6c-0.8,0.8-0.8,2.1,0,2.9c0.8,0.8,2.1,0.8,2.9,0L17,19.9l13.6,13.6c0.8,0.8,2.1,0.8,2.9,0
		c0.8-0.8,0.8-2.1,0-2.9L19.9,17z"/>
		</g>
	</symbol>
	<symbol viewBox="0 0 46 32" id="shape-nav-open">
		<title>nav-open</title>
		<style type="text/css"> .st0{fill-rule:evenodd;clip-rule:evenodd;fill:#01426A;} </style> <g>
			<path class="st0" d="M2,0h42c1.1,0,2,0.9,2,2c0,1.1-0.9,2-2,2H2C0.9,4,0,3.1,0,2C0,0.9,0.9,0,2,0z"/>
			<path class="st0" d="M2,14h42c1.1,0,2,0.9,2,2s-0.9,2-2,2H2c-1.1,0-2-0.9-2-2S0.9,14,2,14z"/>
			<path class="st0" d="M2,28h42c1.1,0,2,0.9,2,2c0,1.1-0.9,2-2,2H2c-1.1,0-2-0.9-2-2C0,28.9,0.9,28,2,28z"/>
		</g>
	</symbol>
	<symbol viewBox="0 0 90 90" id="shape-success_play">
		<title>success_play</title>
		<path class="cls-1" d="M45,0A45,45,0,1,0,90,45,45.05,45.05,0,0,0,45,0Zm0,85A40,40,0,1,1,85,45,40,40,0,0,1,45,85Z"/>
		<path class="cls-1" d="M66.25,42.83l-30-17.32a2.5,2.5,0,0,0-3.75,2.17V62.32a2.5,2.5,0,0,0,3.75,2.17l30-17.32a2.5,2.5,0,0,0,0-4.33ZM37.5,58V32L60,45Z"/>
	</symbol>
	<symbol viewBox="0 0 62.8 78.9" id="shape-telephone">
		<title>telephone</title>
		<style type="text/css"> .st0{fill:#FFFFFF;} </style>
		<path class="st0" d="M49.9,0c-0.3,0-0.6,0-0.9,0.1c-0.1,0-13.3,5.4-12.6,18.7c0.1,0.6,0.4,1.1,0.8,1.3c2.6,2,5.9,4.8,7,6.1
	c-1.4,2.7-4.9,8.9-5.9,10.5l-0.1,0.1c-1.5,2.3-5.3,8-7.1,10.1c-0.5,0.6-1.7,2-3,3.5c-1.8,2.1-3.9,4.5-5,5.7c-1.6-0.7-5.1-2.6-8-4.5
	c-0.5-0.3-1.1-0.4-1.7-0.2C1.3,55.3,0.1,68.1,0,69.7l0,0c-0.1,0.4,0,0.8,0.3,1.1c1,2.1,2.9,4.3,4.9,5.7c2.4,1.7,5,2.5,7.7,2.5
	c1.8,0,3.6-0.4,5.4-1.1c0.5-0.2,12.3-5.6,24.3-22.7l6.9-9.9C59.6,30.9,62.1,19.3,62.7,15c0-0.1,0-0.2,0-0.3
	C63.2,4.4,54.5,0.6,49.9,0z M25.2,59.7c0.1-0.1,7.1-8.1,8.8-10.1c2-2.4,5.9-8.2,7.1-10.2c0.2-0.3,0.3-0.5,0.3-0.5
	c1.1-1.5,3.7-6.4,5.3-9.4c0.6-1.1,1.2-2.2,1.3-2.3c0.1-0.1,0.2-0.3,0.2-0.5c0.3-1,0.4-2.5-8-9.1c0.1-9,8.1-13.1,9.6-13.8
	c1.9,0.4,9.3,2.5,9,10.5c0,0.1-1.3,12.5-12.5,28.5c0,0,0,0.1-0.1,0.1c-0.2,0.4-2.4,3.4-4.1,5.8c-1,1.5-2.1,2.9-2.9,4.1
	C28.1,69,16.8,74.2,16.8,74.3c0,0-0.1,0-0.1,0c-7.7,3-12.2-3.6-12.9-4.9c0.4-3.3,2.1-10.9,9.7-13.7c8.8,5.5,10.4,5.2,11.4,4.3
	c0,0,0,0,0,0c0,0,0,0,0,0C25,59.9,25.1,59.8,25.2,59.7z"/>
	</symbol>
	<symbol viewBox="0 0 162 162" id="shape-twitter-logo">
		<title>twitter-logo</title>
		<style type="text/css"> .st0{fill:#FFFFFF;} </style> <g id="twitter-logo-Layer_1">
			<path class="cls-1" d="M81,1a80,80,0,1,0,80,80A80,80,0,0,0,81,1Zm36.41,63.16c0,.81.06,1.61.06,2.43C117.46,91.41,98.57,120,64,120a53.15,53.15,0,0,1-28.8-8.44,39.62,39.62,0,0,0,4.48.26,37.64,37.64,0,0,0,23.32-8,18.81,18.81,0,0,1-17.54-13,19.31,19.31,0,0,0,3.53.34A18.94,18.94,0,0,0,54,90.45,18.81,18.81,0,0,1,38.9,72v-.23a18.75,18.75,0,0,0,8.51,2.35A18.81,18.81,0,0,1,41.6,49.06,53.31,53.31,0,0,0,80.31,68.69a18.8,18.8,0,0,1,32-17.13A37.48,37.48,0,0,0,124.25,47,18.85,18.85,0,0,1,116,57.39a37.49,37.49,0,0,0,10.79-3A38.09,38.09,0,0,1,117.41,64.16Z"/>
		</g>
	</symbol>
	<symbol viewBox="0 0 368.1 141.4" id="shape-uf-logo">
		<title>uf-logo</title>
		<style type="text/css"> .st0{fill:#01426A;} </style> <g id="uf-logo-Layer_1">
			<g>
				<g>
					<path class="st0" d="M134.9,28.6c-0.6-5.1-2.1-11.3-7-17.5C122.4,4.1,113.7,0,104.4,0c0,0,0,0,0,0c0,0,0,0,0,0c0,0,0,0,0,0
				c0,0,0,0,0,0c-9.3,0-17.8,4-23.3,10.9c-6.5,8.1-7,16.6-7,24.6l0,26.5h-12c-3.4,0-6.1,2.7-6.1,6.1s2.7,6.1,6.1,6.1h12l0,31.7
				c0,7.7-0.7,12.4-4.3,16.9c-3.1,3.9-8.3,6.3-13.7,6.3c0,0,0,0,0,0c-5.5,0-10.6-2.3-13.7-6.3c-2.4-3.1-3.6-6.6-4.6-11.9
				c-0.7-3.6-3.1-6.2-7.1-5.6c-3.7,0.6-5.4,3.6-4.9,7.5c0.6,5.1,2.1,11.3,7,17.5c5.5,7,14.1,11,23.4,11.1c0,0,0.1,0,0.1,0
				c9.3,0,17.8-4,23.3-10.9c6.5-8.1,7-16.6,7-24.6l0-31.7h11.9c3.4,0,6.1-2.7,6.1-6.1s-2.7-6.1-6.1-6.1H86.4l0-26.5
				c0-7.7,0.7-12.4,4.3-16.9c3.1-3.9,8.3-6.3,13.7-6.3c5.5,0,10.6,2.3,13.7,6.3c2.4,3.1,3.6,6.6,4.6,11.9c0.7,3.6,3.1,6.2,7.1,5.6
				C133.7,35.5,135.3,32.5,134.9,28.6z"/>
					<path class="st0" d="M30.5,39.2C30.5,39.2,30.5,39.2,30.5,39.2c9.3,0,18-4.1,23.5-11.1c4.9-6.2,6.4-12.5,7-17.5
				c0.4-3.9-1.2-6.9-4.9-7.5c-4.1-0.6-6.4,2-7.1,5.6c-1.1,5.3-2.2,8.8-4.6,11.9c-3.1,3.9-8.3,6.3-13.7,6.3c0,0,0,0,0,0c0,0,0,0,0,0
				c-5.5,0-10.6-2.3-13.7-6.3c-2.4-3.1-3.6-6.6-4.6-11.9C11.4,5.1,9.1,2.5,5,3.1c-3.7,0.6-5.4,3.6-4.9,7.5c0.6,5.1,2.1,11.3,7,17.5
				C12.6,35.1,21.2,39.2,30.5,39.2C30.5,39.2,30.5,39.2,30.5,39.2z"/>
				</g> <g>
					<path class="st0" d="M182.2,44.6h4.5v19.6c0,6.4-4.3,10.5-10.6,10.5c-6.4,0-10.6-4.1-10.6-10.5V44.6h4.5v19.6c0,4.2,3.1,6,6.1,6
				c3,0,6.1-1.8,6.1-6V44.6z"/>
					<path class="st0" d="M196.4,44.6h4.5v25.2h13v4.5h-17.5V44.6z"/>
					<path class="st0" d="M230.1,49.1v25.2h-4.5V49.1h-8.3v-4.5h21.2v4.5H230.1z"/>
					<path class="st0" d="M251.5,74.2H247V44.6h4.5V74.2z"/>
					<path class="st0" d="M282,44.6h4.5v29.7H282V53.6l-6.1,12.6h-3.7l-6.1-12.6v20.6h-4.5V44.6h4.5L274,61L282,44.6z"/>
					<path class="st0" d="M312,67.1h-11.1l-2.5,7.2h-4.7l10.4-29.7h4.7l10.4,29.7h-4.7L312,67.1z M310.6,62.9l-4.1-11.8l-4.1,11.8
				H310.6z"/>
					<path class="st0" d="M334.8,49.1v25.2h-4.5V49.1h-8.3v-4.5h21.2v4.5H334.8z"/>
					<path class="st0" d="M355.2,57h13v4.5h-13v8.2h13v4.5h-17.5V44.6h17.5v4.5h-13V57z"/>
				</g> <g>
					<path class="st0" d="M170,99.4h13v4.5h-13v12.7h-4.5V86.9H183v4.5h-13V99.4z"/>
					<path class="st0" d="M197.1,116.6h-4.5V86.9h4.5V116.6z"/>
					<path class="st0" d="M228.5,116.6h-4.5l-12.2-21.3v21.3h-4.5V86.9h4.5l12.2,21.3V86.9h4.5V116.6z"/>
					<path class="st0" d="M253.8,109.4h-11.1l-2.5,7.2h-4.7l10.4-29.7h4.7l10.4,29.7h-4.7L253.8,109.4z M252.4,105.2l-4.1-11.8
				l-4.1,11.8H252.4z"/>
					<path class="st0" d="M289.3,116.6h-4.5l-12.2-21.3v21.3H268V86.9h4.5l12.2,21.3V86.9h4.5V116.6z"/>
					<path class="st0" d="M308.5,117c-6.4,0-10.6-4.1-10.6-10.5V97c0-6.4,4.3-10.5,10.6-10.5c6.1,0,10.3,3.7,10.6,9.6h-4.5
				c-0.4-3.6-3.3-5.1-6.1-5.1c-3,0-6.1,1.8-6.1,6v9.6c0,4.2,3.1,6,6.1,6c2.8,0,5.7-1.6,6.1-5.1h4.5C318.7,113.3,314.6,117,308.5,117
				z"/>
					<path class="st0" d="M332.6,99.4h13v4.5h-13v8.2h13v4.5h-17.5V86.9h17.5v4.5h-13V99.4z"/>
				</g>
			</g>
		</g>
	</symbol>
	<symbol viewBox="0 0 162 162" id="shape-yt-logo">
		<title>yt-logo</title>
		<style type="text/css"> .st0{fill:#FFFFFF;} </style> <g id="yt-logo-Layer_3">
			<polygon class="cls-1" points="71.35 66.94 71.35 80.99 71.35 95.04 83.51 88.02 95.68 80.99 83.51 73.97 71.35 66.94"/>
			<path class="cls-1" d="M81,1a80,80,0,1,0,80,80A80,80,0,0,0,81,1Zm40,97.88c-.78,6-4.21,9.83-10.94,10.34s-17.76.73-29.07.73-22.37-.23-29.07-.73S41.77,104.82,41,98.87A136.71,136.71,0,0,1,40,81a136.71,136.71,0,0,1,1-17.88c.78-6,4.21-9.83,10.94-10.34S69.69,52,81,52s22.37.23,29.07.73S120.23,57.16,121,63.11A136.71,136.71,0,0,1,122,81,136.71,136.71,0,0,1,121,98.87Z"/>
		C64,40.4,63.6,37.1,63.6,37.1 M39.9,50.4l0-11.3l10.8,5.7L39.9,50.4z"/>
		</g>
	</symbol>
</svg>